<?xml version="1.0" encoding="UTF-8" standalone="no"?>
<!-- Created with Inkscape (http://www.inkscape.org/) -->

<svg
   width="190.30246mm"
   height="193.4801mm"
   viewBox="0 0 190.30246 193.4801"
   version="1.1"
   id="svg5"
   inkscape:version="1.1.1 (3bf5ae0d25, 2021-09-20)"
   sodipodi:docname="logo_black_only_ink.svg"
   xmlns:inkscape="http://www.inkscape.org/namespaces/inkscape"
   xmlns:sodipodi="http://sodipodi.sourceforge.net/DTD/sodipodi-0.dtd"
   xmlns="http://www.w3.org/2000/svg"
   xmlns:svg="http://www.w3.org/2000/svg">
  <sodipodi:namedview
     id="namedview7"
     pagecolor="#ffffff"
     bordercolor="#111111"
     borderopacity="1"
     inkscape:pageshadow="0"
     inkscape:pageopacity="0"
     inkscape:pagecheckerboard="1"
     inkscape:document-units="mm"
     showgrid="false"
     inkscape:zoom="1"
     inkscape:cx="325.5"
     inkscape:cy="362.5"
     inkscape:window-width="1920"
     inkscape:window-height="1001"
     inkscape:window-x="-9"
     inkscape:window-y="-9"
     inkscape:window-maximized="1"
     inkscape:current-layer="layer2"
     inkscape:snap-page="true"
     inkscape:snap-object-midpoints="true" />
  <defs
     id="defs2" />
  <g
     inkscape:groupmode="layer"
     id="layer2"
     inkscape:label="Vrstva 2"
     transform="translate(-9.2229923,-59.065135)">
    <path
       style="display:inline;fill:#000000;stroke-width:0.280367"
       d="m 97.110805,228.00529 -1.26166,-0.16909 0.0336,-7.56992 c 0.0328,-7.38848 0.10236,-8.31838 1.34292,-17.94351 0.43018,-3.33781 1.0548,-6.68429 1.69575,-9.08543 0.33738,-1.26382 0.34328,-1.63246 0.0357,-2.21974 -0.3645,-0.69567 -0.37642,-0.68435 -0.98063,0.93056 -2.09523,5.59999 -3.65678,18.4182 -3.66515,30.08578 l -0.005,5.69279 -1.33176,-0.0855 -1.33174,-0.0855 0.0536,-8.05848 c 0.06326,-9.51068 0.92282,-17.87163 2.62102,-25.49551 0.82059,-3.68395 0.79913,-3.80327 -0.72503,-4.03183 -0.70103,-0.10512 -1.35576,-0.10995 -1.454946,-0.0104 -0.09914,0.0991 0.04439,0.8053 0.319096,1.56915 0.61486,1.70986 0.42807,3.12045 -0.637584,4.81476 l -0.76318,1.21343 0.488522,1.26164 c 0.68297,1.76383 0.635275,2.50299 -0.273359,4.23614 -0.4358,0.83127 -0.94776,2.22901 -1.137671,3.10609 -0.295114,1.36286 -0.281815,1.71746 0.09144,2.43928 0.240213,0.46453 0.436758,1.43522 0.436758,2.15707 0,1.1726 -0.128441,1.44091 -1.205263,2.51773 -1.546091,1.5461 -2.431095,1.77667 -3.96288,1.03246 -0.958067,-0.46545 -1.245234,-0.79479 -1.562071,-1.79136 l -0.388195,-1.22106 -0.213266,1.40184 c -0.117294,0.77101 -0.287475,3.54664 -0.378181,6.16808 -0.09071,2.62142 -0.228302,5.28966 -0.305774,5.92938 l -0.14086,1.16316 -1.178645,-0.14072 c -1.240729,-0.14814 -2.314098,-1.02085 -1.948145,-1.58396 0.114827,-0.17669 0.28741,-3.98005 0.383532,-8.45191 0.22525,-10.4798 0.653776,-15.37881 1.944786,-22.23334 0.698621,-3.70922 0.695855,-4.04556 -0.02618,-3.17893 -0.303274,0.36404 -0.551402,0.90887 -0.551402,1.21076 0,0.30187 -0.435699,2.54094 -0.968229,4.97571 -0.53253,2.43478 -1.103812,5.80106 -1.269522,7.48064 -0.421859,4.27592 -1.107245,18.04555 -0.941027,18.90578 0.104487,0.54061 -0.0195,0.79575 -0.514653,1.05912 -1.756062,0.93412 -11.663433,-4.0119 -18.907559,-9.43915 -5.113063,-3.83069 -13.28602,-12.45202 -13.28602,-14.01492 0,-0.83979 1.634975,-4.26009 2.9703,-6.21376 2.405568,-3.51949 4.507416,-6.71859 4.911962,-7.47618 0.253533,-0.47479 1.54803,-1.60401 2.943851,-2.568 2.365576,-1.63373 2.576257,-1.72099 4.17354,-1.72865 1.845434,-0.008 4.076338,-0.86453 5.019972,-1.92543 0.529574,-0.59537 0.528387,-0.60038 -0.140182,-0.59053 -0.370859,0.006 -0.989698,0.19024 -1.3752,0.41061 -1.658723,0.94821 -2.376798,0.0219 -1.961424,-2.53037 0.238264,-1.46391 0.0021,-3.93313 -0.445246,-4.6571 -0.257528,-0.4167 -1.611779,-0.0257 -4.614971,1.33254 -3.548661,1.6049 -4.35294,1.76977 -4.614431,0.94588 -0.108605,-0.34218 -0.10742,-2.1209 0.0021,-3.95268 0.110054,-1.83179 0.194479,-3.426 0.187591,-3.54267 -0.01388,-0.23565 -6.753749,-1.70202 -7.969598,-1.73393 -0.617632,-0.0162 -0.771006,-0.15187 -0.771006,-0.68201 0,-0.36399 0.293069,-1.08944 0.651264,-1.61211 1.93934,-2.82982 5.184654,-7.28044 6.123763,-8.3981 0.591394,-0.70384 1.075254,-1.45221 1.075254,-1.66306 0,-0.21085 -1.019528,-1.42788 -2.265619,-2.70452 -1.467412,-1.50338 -2.231582,-2.49788 -2.169021,-2.82281 0.117421,-0.60979 1.347745,-1.03779 4.63591,-1.61273 3.314086,-0.57946 4.566366,-0.95185 4.557878,-1.35532 -0.0043,-0.18552 -0.508561,-1.34521 -1.121465,-2.57712 -0.612906,-1.23191 -1.114377,-2.39895 -1.114377,-2.5934 0,-0.26498 0.895578,-0.35849 3.574685,-0.37327 4.886381,-0.0269 4.777513,0.0455 3.604494,-2.40205 l -0.954961,-1.99266 1.409109,-0.16688 c 0.841229,-0.0996 2.892002,0.0546 5.088638,0.38298 2.02373,0.30244 3.754764,0.5507 3.84671,0.55172 0.188163,0.002 0.642035,-6.26262 0.578338,-7.98272 -0.02268,-0.61355 -0.347471,-2.06445 -0.721678,-3.22422 -0.88975,-2.75764 -0.965601,-3.48273 -1.144429,-10.94025 -0.187357,-7.81271 -0.02797,-8.87761 1.80345,-12.05093 l 1.397347,-2.421185 -0.400051,-1.51654 c -0.388672,-1.47339 -0.379569,-1.55147 0.320185,-2.74552 0.396132,-0.67594 1.452248,-1.96098 2.346926,-2.85568 0.894679,-0.89467 2.341342,-2.576187 3.214806,-3.736683 1.984726,-2.636789 2.515624,-2.990533 4.488215,-2.990533 1.198556,0 1.893383,-0.188396 3.023813,-0.819857 2.782594,-1.554355 4.15879,-1.778314 8.967086,-1.45922 2.58969,0.171865 4.77358,0.465623 5.53768,0.744875 0.783815,0.286467 2.801335,0.549378 5.326975,0.69417 3.96919,0.227561 6.54935,0.728482 8.26301,1.604235 1.96365,1.003494 7.15719,5.745163 7.15719,6.534473 0,0.13438 0.56372,0.63214 1.2527,1.10619 1.5249,1.04915 3.7044,4.02851 4.26527,5.830615 0.40261,1.29365 0.83553,2.91263 2.59266,9.69571 0.47362,1.82833 0.86122,4.03623 0.86134,4.90643 1.6e-4,1.17558 0.21633,2.03901 0.8411,3.35967 0.48752,1.03054 0.84088,2.23783 0.84088,2.87297 0,0.84808 0.21299,1.33311 0.94308,2.14766 0.51869,0.5787 1.14984,1.45658 1.40253,1.95081 0.34049,0.66595 0.69522,0.93278 1.36995,1.03057 0.50078,0.0726 1.91982,0.26933 3.15345,0.43726 2.65842,0.36188 8.81211,1.84765 9.18123,2.21677 0.28133,0.28133 -0.17445,1.30918 -1.34609,3.03568 l -0.70965,1.04574 0.92312,0.49198 c 0.50773,0.2706 1.61705,0.6907 2.46516,0.93356 2.68936,0.77011 3.92515,1.29988 3.92515,1.68263 0,0.20434 -0.82009,1.59812 -1.82239,3.09725 -1.00232,1.49916 -1.81944,2.86705 -1.81583,3.03977 0.003,0.17273 1.2829,1.1341 2.84288,2.13642 2.50516,1.60962 4.72047,3.72576 4.72047,4.50917 0,0.12265 -1.23011,1.03387 -2.73357,2.02492 -1.50347,0.99107 -2.95546,2.05072 -3.22663,2.3548 -0.47455,0.53212 -0.45945,0.59925 0.40253,1.7898 0.49255,0.6803 1.66066,2.13498 2.59578,3.23258 0.93513,1.09762 1.98724,2.50818 2.33801,3.13457 l 0.63777,1.13891 -0.96921,0.73925 c -0.53306,0.40659 -1.95554,1.15647 -3.16108,1.66642 -1.67724,0.70948 -2.18322,1.05065 -2.15501,1.45315 0.0516,0.73576 1.74136,5.44303 2.2204,6.18531 0.21747,0.33698 1.24945,1.064 2.29329,1.6156 1.04384,0.5516 3.79038,2.16837 6.10341,3.59282 3.82032,2.35269 4.21323,2.66881 4.28966,3.45139 0.14109,1.44441 -2.01737,6.50163 -4.39524,10.29797 -7.05142,11.25778 -13.28161,18.37004 -21.45272,24.49005 -5.17624,3.87691 -7.18581,5.03383 -12.62698,7.26943 -6.97903,2.86748 -12.2269,4.13312 -19.57328,4.72052 -5.34493,0.42737 -7.903585,0.47639 -10.024985,0.19208 z M 84.485751,209.4237 c 0.566693,-0.76649 0.667211,-1.26098 0.726669,-3.57468 0.0497,-1.93448 -0.04992,-2.93988 -0.356521,-3.59634 -0.906144,-1.94037 -1.193798,-0.93134 -1.198906,4.20551 -0.0021,2.12027 0.0355,3.85506 0.08361,3.85506 0.04811,0 0.383415,-0.4003 0.745128,-0.88955 z m 3.650334,-3.73296 c 0.425293,-0.51244 0.176846,-1.26521 -0.41759,-1.26521 -0.514451,0 -0.829371,0.6627 -0.599532,1.26165 0.205034,0.5343 0.575563,0.5356 1.017122,0.003 z m -2.394918,-7.41819 c 1.039766,-1.06482 1.063312,-1.13061 0.627168,-1.75229 -0.746337,-1.06383 -1.226064,-1.62722 -1.385554,-1.62722 -0.156638,0 -0.768875,3.1996 -0.768875,4.0182 0,0.71495 0.347282,0.56972 1.527261,-0.63869 z m 0.575955,-7.09438 c 0.535635,-0.34695 0.975434,-0.70166 0.977353,-0.78823 0.0063,-0.27171 -1.126754,-1.38462 -1.40929,-1.38462 -0.148193,0 -0.269449,0.30721 -0.269449,0.68267 0,0.37547 -0.123037,1.00629 -0.273423,1.40184 -0.333973,0.87841 -0.255855,0.88549 0.974809,0.0883 z m 8.215883,-4.99346 c 0.19842,-0.31773 1.39434,-1.75697 2.6576,-3.19831 2.61971,-2.989 2.33947,-2.95717 4.928575,-0.56009 l 1.66924,1.54541 1.82398,-2.03917 c 1.00319,-1.12154 2.06341,-2.33907 2.35603,-2.70561 0.70961,-0.88886 1.21952,-0.69513 3.60704,1.37046 1.06524,0.92161 2.3153,1.86344 2.7779,2.093 0.78949,0.3917 0.87319,0.3789 1.36381,-0.20855 0.28748,-0.34424 1.06487,-1.70516 1.72756,-3.02424 1.64878,-3.28203 1.74678,-3.34105 3.30602,-1.99155 0.69767,0.60383 2.05171,1.93514 3.00898,2.95847 1.22401,1.30847 1.8379,1.77976 2.06872,1.5882 0.18053,-0.14983 0.92983,-1.41343 1.66513,-2.80799 l 1.3369,-2.53558 h -1.00039 c -0.5502,0 -1.00038,-0.13188 -1.00038,-0.29307 0,-0.18168 0.36378,-0.22482 0.95715,-0.11352 0.79058,0.14831 1.01185,0.0774 1.27151,-0.40785 0.17291,-0.32308 0.53241,-0.58741 0.79889,-0.58741 0.59533,0 2.77947,1.45089 5.987,3.9771 1.33426,1.05084 2.48739,1.91061 2.56252,1.91061 0.42056,0 1.30226,-2.71345 1.46427,-4.5064 0.20895,-2.31198 0.59521,-4.08918 0.93429,-4.29876 0.12233,-0.0756 2.08396,0.42374 4.35918,1.10964 2.27522,0.68589 4.23976,1.24708 4.36564,1.24708 1.06693,0 -0.0427,-4.32531 -1.97157,-7.68506 -1.21696,-2.11972 -1.2254,-2.75364 -0.0424,-3.18878 0.41893,-0.15412 1.35891,-0.49274 2.08884,-0.75251 0.72994,-0.25977 1.6131,-0.70672 1.96258,-0.99321 l 0.63541,-0.52089 -0.6376,-1.20997 c -0.71267,-1.35241 -2.52208,-3.35948 -4.81255,-5.33829 -1.48916,-1.28653 -1.51559,-1.33514 -1.12393,-2.06694 0.22059,-0.4122 0.65453,-0.90285 0.96427,-1.09035 4.55902,-2.7596 5.70628,-3.5766 5.55953,-3.95902 -0.42479,-1.10696 -3.16861,-2.62609 -7.46164,-4.13119 -0.64675,-0.22673 -0.43628,-0.64537 1.94136,-3.86155 0.98209,-1.32845 1.7856,-2.53321 1.7856,-2.67727 0,-0.26174 -5.7313,-2.05676 -6.56704,-2.05676 -0.56283,0 -0.58162,0.10983 0.36644,-2.14348 1.37873,-3.277 1.41642,-3.05098 -0.59083,-3.54242 -2.81526,-0.68927 -4.09644,-0.83295 -5.67194,-0.63611 l -1.47693,0.18453 -0.18735,2.24654 c -0.39283,4.71039 -1.34225,6.41554 -6.86645,12.33197 l -2.91042,3.11707 0.16763,1.60377 c 0.26495,2.53488 0.3926,2.71431 1.30751,1.83777 0.66226,-0.63449 0.79211,-0.67223 0.9447,-0.2746 0.2855,0.74401 -0.9107,4.89064 -1.77043,6.13716 -0.43493,0.63065 -2.72961,3.11578 -5.09924,5.52253 -3.50899,3.56393 -4.90826,4.7675 -7.54102,6.48632 -3.71166,2.42319 -5.04315,3.76618 -6.21352,6.26719 -0.75622,1.61601 -0.92616,1.79475 -1.86113,1.95747 -0.56591,0.0986 -1.47051,0.47188 -2.01021,0.82973 -0.53971,0.35787 -1.69058,0.96093 -2.557505,1.34015 -0.86692,0.3792 -1.66432,0.83201 -1.77198,1.00622 -0.13653,0.22091 -0.42411,0.15414 -0.95054,-0.22071 -0.64395,-0.45853 -1.59823,-0.58216 -6.498856,-0.84183 -6.00115,-0.31801 -8.375733,-0.73966 -10.13045,-1.79891 -1.465991,-0.88496 -3.584307,-3.49593 -3.955865,-4.87588 -0.173995,-0.64621 -0.438051,-1.09971 -0.586795,-1.00778 -0.16749,0.10351 -0.194903,-0.19633 -0.07206,-0.78766 0.109134,-0.52514 0.313214,-2.21643 0.453512,-3.75845 0.140309,-1.54203 0.366355,-3.24804 0.502341,-3.79115 0.135974,-0.54312 0.225219,-2.25062 0.198315,-3.79446 -0.04376,-2.51106 -0.130583,-2.94633 -0.823534,-4.12877 -0.67001,-1.14329 -0.74924,-1.50632 -0.586689,-2.68824 0.159934,-1.16282 -0.0085,-1.9881 -1.12882,-5.53772 -1.80754,-5.726 -2.043419,-6.274 -2.70048,-6.274 -0.4185,0 -0.507533,-0.13121 -0.374175,-0.55139 0.195963,-0.61742 0.293441,-0.58181 -3.462511,-1.26511 -2.751258,-0.50053 -3.964258,-0.54052 -3.964258,-0.1307 0,0.16266 0.372872,1.17197 0.82861,2.24294 l 0.828607,1.9472 h -4.082833 c -3.402682,0 -4.057496,0.066 -3.930772,0.39623 0.08361,0.21795 0.787589,1.42094 1.564348,2.67335 l 1.4123,2.2771 -0.682282,0.2594 c -0.375245,0.14266 -1.349577,0.34205 -2.165184,0.44308 -1.823318,0.22583 -6.033712,1.17041 -6.580114,1.47619 -0.399596,0.22361 0.181816,0.84949 2.947942,3.1734 0.488194,0.41014 0.887621,0.86658 0.887621,1.01434 0,0.14774 -0.770731,1.26307 -1.712733,2.47851 -0.942002,1.21542 -2.537389,3.38967 -3.545301,4.83166 -1.441471,2.06228 -1.749079,2.67383 -1.441398,2.86564 0.492549,0.30706 3.55858,1.00722 5.54854,1.26709 l 1.512585,0.19752 -0.170563,3.1827 c -0.09378,1.75049 -0.06231,3.18272 0.07004,3.18272 0.745458,0 4.017707,-1.22119 4.434428,-1.65491 0.270191,-0.2812 0.806662,-0.5813 1.192166,-0.66687 0.385502,-0.0856 1.253223,-0.36009 1.928255,-0.61005 0.675044,-0.24997 1.269341,-0.41248 1.320682,-0.36115 0.05128,0.0514 0.18084,2.14046 0.287813,4.64249 l 0.194488,4.54919 0.587591,-0.4283 c 0.323185,-0.23557 1.249969,-0.81783 2.059526,-1.29391 1.12083,-0.65914 1.471926,-1.02476 1.471926,-1.53284 0,-0.59911 0.07291,-0.63949 0.71407,-0.39572 0.566947,0.21555 0.99826,0.12747 2.093436,-0.42749 1.725544,-0.8744 2.412666,-0.89235 2.60883,-0.0681 0.08254,0.34696 0.238073,2.08173 0.345543,3.85505 0.107478,1.77332 0.241963,3.30537 0.298855,3.40457 0.05691,0.0991 1.240984,-0.24777 2.631316,-0.77101 1.390333,-0.52325 2.822564,-0.95135 3.18272,-0.95135 1.216983,0 1.852586,1.30472 2.287722,4.69614 0.165858,1.29263 0.26714,1.47193 0.831524,1.47193 0.353459,0 1.398396,-0.50466 2.322066,-1.12147 2.345326,-1.56615 2.823909,-1.5005 5.073936,0.69594 1.956229,1.90962 2.751779,2.20646 3.349279,1.24968 z m -1.06698,-2.08581 c 0,-0.23131 0.17574,-0.42056 0.39055,-0.42056 0.21481,0 0.46317,0.18925 0.55194,0.42056 0.10972,0.28606 -0.0152,0.42054 -0.39056,0.42054 -0.30369,0 -0.55193,-0.18915 -0.55193,-0.42054 z m -9.252119,-1.09148 c 0,-0.56065 0.763916,-0.77572 0.958078,-0.26972 0.239313,0.62361 0.21725,0.66028 -0.397351,0.66028 -0.308402,0 -0.560727,-0.17576 -0.560727,-0.39056 z m 7.30838,-0.8484 c -0.49334,-0.59443 -0.26663,-1.04416 0.311428,-0.61779 0.276279,0.20379 0.381779,0.49046 0.255612,0.6946 -0.165398,0.26761 -0.295866,0.24994 -0.56704,-0.0768 z m 3.754599,-0.18153 c -0.10167,-0.16446 -0.11455,-0.3693 -0.0286,-0.45519 0.23064,-0.23065 1.02146,0.1294 1.02146,0.46504 0,0.38053 -0.75619,0.37302 -0.99282,-0.009 z m 7.942265,-0.82188 c -0.11547,-0.78681 -0.0919,-0.81202 0.36982,-0.39422 0.27126,0.24548 0.42511,0.62373 0.34191,0.84054 -0.2506,0.65307 -0.58076,0.44602 -0.71173,-0.44632 z m -19.292612,-0.70992 c -0.543339,-0.65468 0.122252,-1.25813 0.723989,-0.65639 0.371823,0.37182 0.376771,0.47897 0.03518,0.76245 -0.310205,0.25744 -0.476814,0.23417 -0.75918,-0.10604 z m 41.286052,-0.13176 c -0.31572,-0.50555 -0.28,-0.56073 0.36297,-0.56073 0.62627,0 0.6766,0.0683 0.41306,0.56073 -0.16505,0.3084 -0.32839,0.56074 -0.36297,0.56074 -0.0345,0 -0.22047,-0.25234 -0.41306,-0.56074 z m -35.531527,-0.28036 c -0.09526,-0.1542 0.02342,-0.28037 0.263823,-0.28037 0.240404,0 0.437098,0.12617 0.437098,0.28037 0,0.15421 -0.118724,0.28036 -0.263823,0.28036 -0.145098,0 -0.341793,-0.12615 -0.437098,-0.28036 z m 11.074507,0.0229 c 0,-0.14159 -0.0821,-0.47157 -0.18258,-0.73327 -0.15176,-0.39544 -0.0689,-0.44081 0.49063,-0.26847 0.91011,0.28033 0.94792,0.33873 0.53867,0.83184 -0.39451,0.47538 -0.84672,0.5661 -0.84672,0.1699 z m 4.62606,-0.86404 c -0.22955,-0.3714 0.0782,-0.84109 0.55103,-0.84109 0.23973,0 0.32417,0.20489 0.23113,0.56072 -0.15837,0.6056 -0.50447,0.72967 -0.78216,0.28037 z m -29.859118,-0.70092 c 0,-0.23363 0.249221,-0.42055 0.560739,-0.42055 0.311517,0 0.560738,0.18692 0.560738,0.42055 0,0.23363 -0.249221,0.42055 -0.560738,0.42055 -0.311518,0 -0.560739,-0.18692 -0.560739,-0.42055 z m 48.503538,-0.44391 c 0,-0.68327 0.65515,-0.58668 0.79156,0.11669 0.0536,0.27666 -0.0894,0.46741 -0.35046,0.46741 -0.26007,0 -0.4411,-0.23972 -0.4411,-0.5841 z m 13.17726,0.0234 c 0,-0.1542 0.18925,-0.28036 0.42055,-0.28036 0.23131,0 0.42055,0.12616 0.42055,0.28036 0,0.15422 -0.18924,0.28037 -0.42055,0.28037 -0.2313,0 -0.42055,-0.12615 -0.42055,-0.28037 z m -58.596753,-0.70091 c 0,-0.23364 0.249209,-0.42055 0.560737,-0.42055 0.311518,0 0.560728,0.18691 0.560728,0.42055 0,0.23363 -0.24921,0.42055 -0.560728,0.42055 -0.311528,0 -0.560737,-0.18692 -0.560737,-0.42055 z m 28.877823,-0.44392 c 0,-0.68326 0.65515,-0.58669 0.79157,0.11669 0.0536,0.27666 -0.0894,0.46741 -0.35045,0.46741 -0.26009,0 -0.44112,-0.23971 -0.44112,-0.5841 z m 15.13983,-0.11682 c 0,-0.2313 0.18926,-0.42055 0.42055,-0.42055 0.23131,0 0.42055,0.18925 0.42055,0.42055 0,0.23131 -0.18924,0.42055 -0.42055,0.42055 -0.23129,0 -0.42055,-0.18924 -0.42055,-0.42055 z m 11.77543,-0.70091 c 0,-0.15421 0.18924,-0.28038 0.42056,-0.28038 0.2313,0 0.42054,0.12617 0.42054,0.28038 0,0.15419 -0.18924,0.28036 -0.42054,0.28036 -0.23132,0 -0.42056,-0.12617 -0.42056,-0.28036 z M 65.429289,175.5777 c 0,-0.13771 0.189254,-0.323 0.420557,-0.41175 0.256171,-0.0983 0.420545,-5.7e-4 0.420545,0.25038 0,0.22645 -0.189244,0.41173 -0.420545,0.41173 -0.231303,0 -0.420557,-0.11271 -0.420557,-0.25036 z m 51.307211,-0.2045 c 0,-0.37256 0.076,-0.39172 0.42056,-0.10593 0.2313,0.19198 0.42054,0.39666 0.42054,0.45488 0,0.0582 -0.18924,0.10581 -0.42054,0.10581 -0.23131,0 -0.42056,-0.20468 -0.42056,-0.45487 z m 20.88736,0.17449 c -0.23468,-0.37971 0.082,-0.8411 0.57729,-0.8411 0.2222,0 0.404,0.25234 0.404,0.56074 0,0.58045 -0.67638,0.77371 -0.98129,0.28036 z m -62.381712,-0.7009 c 0,-0.55579 0.123154,-0.71832 0.490642,-0.64755 0.269852,0.0519 0.490642,0.34336 0.490642,0.64755 0,0.30417 -0.22079,0.59556 -0.490642,0.64755 -0.367488,0.0707 -0.490642,-0.0918 -0.490642,-0.64755 z m 56.914542,-0.42056 c 0,-0.1542 0.12618,-0.28036 0.28038,-0.28036 0.1542,0 0.28037,0.12616 0.28037,0.28036 0,0.15421 -0.12617,0.28036 -0.28037,0.28036 -0.1542,0 -0.28038,-0.12615 -0.28038,-0.28036 z m -3.3644,-1.6822 c 0,-0.15421 0.12617,-0.28036 0.28038,-0.28036 0.15419,0 0.28036,0.12615 0.28036,0.28036 0,0.1542 -0.12617,0.28036 -0.28036,0.28036 -0.15421,0 -0.28038,-0.12616 -0.28038,-0.28036 z m 16.54167,-0.99784 c 0,-0.2404 0.12617,-0.35912 0.28037,-0.26381 0.15421,0.0952 0.28037,0.29199 0.28037,0.4371 0,0.1451 -0.12616,0.26381 -0.28037,0.26381 -0.1542,0 -0.28037,-0.1967 -0.28037,-0.4371 z m -70.372176,-0.68437 c 0,-0.15419 0.133612,-0.28036 0.296906,-0.28036 0.163303,0 0.218946,0.12617 0.123641,0.28036 -0.09526,0.15421 -0.228919,0.28036 -0.296917,0.28036 -0.06803,0 -0.12363,-0.12615 -0.12363,-0.28036 z m 67.848866,-0.14017 c 0,-0.23132 0.1853,-0.42057 0.41175,-0.42057 0.25083,0 0.34868,0.16439 0.25038,0.42057 -0.0888,0.23129 -0.27404,0.42053 -0.41175,0.42053 -0.1377,0 -0.25038,-0.18924 -0.25038,-0.42053 z m -77.381361,-0.25982 c 0,-0.26008 0.239715,-0.44111 0.584104,-0.44111 0.683266,0 0.586688,0.65515 -0.11669,0.79157 -0.276655,0.0536 -0.467414,-0.0894 -0.467414,-0.35046 z m -8.512101,-3.15895 c -0.335073,-0.33508 -0.181031,-0.92693 0.241264,-0.92693 0.231311,0 0.420555,0.1818 0.420555,0.404 0,0.46839 -0.400168,0.78458 -0.661819,0.52293 z m -3.543691,-4.01098 c 0,-0.15419 0.189245,-0.28036 0.420546,-0.28036 0.231313,0 0.420557,0.12617 0.420557,0.28036 0,0.15421 -0.189244,0.28037 -0.420557,0.28037 -0.231301,0 -0.420546,-0.12616 -0.420546,-0.28037 z m 95.324873,-1.26164 c 0,-0.23131 0.12617,-0.42055 0.28036,-0.42055 0.15422,0 0.28038,0.18924 0.28038,0.42055 0,0.23129 -0.12616,0.42055 -0.28038,0.42055 -0.15419,0 -0.28036,-0.18926 -0.28036,-0.42055 z m -92.801566,-9.5325 c 0,-0.2313 0.126163,-0.42054 0.280364,-0.42054 0.154201,0 0.280374,0.18924 0.280374,0.42054 0,0.23131 -0.126173,0.42056 -0.280374,0.42056 -0.154201,0 -0.280364,-0.18925 -0.280364,-0.42056 z m -2.242942,-1.82239 c 0,-0.1542 0.126163,-0.28036 0.280374,-0.28036 0.154201,0 0.280364,0.12616 0.280364,0.28036 0,0.15421 -0.126163,0.28037 -0.280364,0.28037 -0.154211,0 -0.280374,-0.12616 -0.280374,-0.28037 z m 2.104127,-0.55851 c -0.09453,-0.15298 -0.06093,-0.47637 0.0746,-0.71863 0.22008,-0.39327 0.284411,-0.39482 0.600041,-0.0145 0.354709,0.4274 0.207215,1.01129 -0.255473,1.01129 -0.135996,0 -0.324625,-0.12517 -0.419179,-0.27815 z m 6.727448,-6.45067 c -0.09526,-0.15419 0.02342,-0.28037 0.263813,-0.28037 0.240404,0 0.437107,0.12618 0.437107,0.28037 0,0.15421 -0.118723,0.28038 -0.263822,0.28038 -0.145098,0 -0.341803,-0.12617 -0.437098,-0.28038 z m -2.943862,-0.28041 c 0,-0.15419 0.133612,-0.28036 0.296916,-0.28036 0.163303,0 0.218935,0.12617 0.12364,0.28036 -0.09526,0.15421 -0.228918,0.28038 -0.296916,0.28038 -0.06803,0 -0.12364,-0.12617 -0.12364,-0.28038 z m 86.913865,-5.88769 c 0,-0.15421 0.12616,-0.28036 0.28037,-0.28036 0.1542,0 0.28036,0.12615 0.28036,0.28036 0,0.15419 -0.12616,0.28037 -0.28036,0.28037 -0.15421,0 -0.28037,-0.12618 -0.28037,-0.28037 z m -33.96474,27.55629 c 3.23388,-2.51175 7.027,-6.32164 8.38378,-8.42086 l 1.10246,-1.70571 -0.0539,-3.1776 c -0.0297,-1.7477 -0.15185,-3.82262 -0.27157,-4.61095 -0.36468,-2.40106 0.11363,-3.31351 2.32916,-4.44364 2.87366,-1.46582 3.5425,-2.04777 5.65127,-4.91716 2.67923,-3.64562 2.94743,-4.53313 2.52353,-8.35116 -0.50545,-4.5528 -1.33136,-6.02187 -3.54205,-6.30038 -1.66693,-0.21 -3.26146,0.60012 -5.46019,2.7741 -1.41882,1.40284 -2.01124,1.81105 -2.52331,1.73864 -0.79091,-0.11179 -0.80029,-0.34901 -0.23495,-5.94385 0.36135,-3.57613 0.37102,-3.60859 1.15665,-3.88248 0.94859,-0.33067 0.9492,-0.3349 0.19959,-1.38763 l -0.59266,-0.83233 0.59266,-0.63086 c 0.32597,-0.34697 0.59266,-0.71736 0.59266,-0.82307 0,-0.33079 -0.99018,-0.20984 -1.53328,0.18728 -0.45852,0.33528 -0.76587,0.2283 -2.63809,-0.91821 -2.39046,-1.46391 -3.86092,-3.16312 -4.0889,-4.72498 -0.0838,-0.57451 -0.35165,-2.09784 -0.59511,-3.38518 l -0.44265,-2.3406 0.65202,-0.69404 c 0.5513,-0.58684 0.58732,-0.73118 0.23323,-0.93451 -0.23033,-0.13226 -0.64794,-0.41122 -0.928,-0.61994 -0.49206,-0.36669 -0.49206,-0.39496 0,-0.83849 0.45749,-0.412375 0.66377,-0.418795 2.03083,-0.0633 0.83689,0.21768 1.58467,0.33273 1.66174,0.25566 0.26433,-0.264325 -0.94117,-0.971635 -2.40716,-1.412355 -0.80671,-0.24251 -1.53902,-0.55787 -1.62736,-0.70081 -0.0882,-0.14292 -0.28723,-1.04615 -0.44199,-2.00717 -0.15477,-0.96102 -0.31931,-1.78523 -0.36563,-1.83155 -0.0464,-0.0464 -0.68031,0.17126 -1.40882,0.48354 -0.98172,0.42082 -1.93774,0.56778 -3.69346,0.56778 -2.82899,0 -3.73122,-0.32953 -6.13151,-2.23949 -0.971315,-0.7729 -1.907885,-1.40528 -2.081275,-1.40528 -0.17338,0 -0.5258,0.44158 -0.78318,0.98129 -0.29489,0.61838 -0.66706,0.98128 -1.00637,0.98128 -0.29613,0 -0.91327,0.31541 -1.37141,0.70092 -1.01363,0.85291 -2.45724,0.9312 -3.145579,0.17059 -0.270506,-0.2989 -0.704604,-0.47157 -0.994789,-0.39568 -0.395822,0.10351 -0.595617,-0.11007 -0.864219,-0.92395 -0.343339,-1.04033 -0.357178,-1.04856 -0.800962,-0.47699 -0.248373,0.31989 -0.943211,1.21332 -1.544078,1.9854 l -1.092484,1.4038 -3.080071,0.10547 -3.080059,0.10547 -1.105105,1.24529 c -1.335166,1.50454 -2.982985,4.835935 -4.124594,8.338645 -1.207944,3.70624 -1.314556,4.9182 -0.64178,7.29553 l 0.562264,1.98685 -0.697593,1.02659 c -0.823809,1.21235 -0.706579,2.30728 0.267721,2.50063 0.344612,0.0683 1.76205,0.33251 3.14986,0.58693 1.387821,0.25441 2.943216,0.7066 3.456428,1.00487 0.909715,0.5287 0.9519,0.52931 1.682204,0.024 1.426859,-0.98715 1.434298,-0.98611 2.009521,0.28141 0.677227,1.4923 0.77339,6.28801 0.173487,8.65208 -0.213648,0.84195 -0.603347,2.98173 -0.865993,4.75505 -0.262636,1.77332 -0.734829,3.95177 -1.049304,4.841 -0.6528,1.84592 -0.569723,2.94997 0.367691,4.8864 l 0.615034,1.27049 1.353351,-0.13004 c 1.038452,-0.0998 1.846906,-0.46347 3.474506,-1.56304 1.166628,-0.78813 2.589614,-1.5165 3.162213,-1.61857 2.30083,-0.41018 2.82262,-2.09412 0.76829,-2.47951 -0.54387,-0.10202 -0.98887,-0.29099 -0.98887,-0.41991 0,-0.12891 0.41313,-0.5495 0.91807,-0.93464 0.86586,-0.66044 0.97351,-0.67747 1.89249,-0.29972 1.09688,0.45091 4.47899,4.44661 4.47899,5.29161 0,0.43568 -0.12269,0.39541 -0.81444,-0.26732 l -0.81446,-0.78028 -1.99862,0.926 c -1.3656,0.6327 -1.97235,1.06302 -1.91572,1.35865 0.11018,0.57489 1.71086,1.09816 3.41925,1.11774 1.27231,0.0146 1.58857,0.1749 4.031765,2.04373 2.46188,1.88309 4.54066,4.25816 4.54066,5.1878 0,0.24229 -0.48559,0.3542 -1.53668,0.3542 -1.4298,0 -1.54969,0.0519 -1.72378,0.74549 -0.24665,0.98276 0.31096,3.13839 1.43901,5.56279 1.58706,3.41093 1.23875,3.3249 5.02952,1.24224 4.76754,-2.61932 6.67811,-4.50009 7.46447,-7.34802 0.14351,-0.51978 0.57521,-1.2403 0.95934,-1.60116 0.67807,-0.63701 0.71483,-0.64127 1.26208,-0.14601 0.31002,0.28057 0.56366,0.66521 0.56366,0.85474 0,0.18955 -0.52234,1.40011 -1.16077,2.69014 -1.04965,2.12091 -1.58657,2.76325 -5.60736,6.70851 -2.4456,2.39966 -4.44656,4.56676 -4.44656,4.81578 0,0.42115 0.44448,0.66328 1.36155,0.74172 0.20915,0.0179 1.4708,-0.8145 2.80367,-1.84973 z m -1.92228,-28.67696 c 0,-0.44953 1.84644,-2.36632 3.53259,-3.66718 1.26013,-0.97218 1.60657,-1.12522 1.81209,-0.80046 0.78418,1.23921 -0.13451,2.26702 -3.58307,4.00857 -1.63143,0.8239 -1.76161,0.85782 -1.76161,0.45907 z m 15.70057,-0.42287 c 0,-0.41663 -0.32633,-1.80414 -0.72516,-3.08336 l -0.72517,-2.32586 0.94685,-2.33776 c 0.72483,-1.78958 1.16757,-2.48652 1.88809,-2.97207 1.31143,-0.88378 1.63263,-0.8021 1.98452,0.50468 0.28694,1.06564 0.2601,1.17566 -0.41667,1.70801 l -0.72338,0.569 0.59535,0.96328 c 0.521,0.84298 0.5708,1.20744 0.39892,2.91895 -0.21985,2.18918 -0.84696,3.34149 -2.31216,4.24854 l -0.91119,0.5641 z M 96.239205,132.2315 c -1.08565,-0.59006 -2.3512,-3.84915 -2.55869,-6.58921 -0.0668,-0.88181 -0.22915,-1.05931 -1.601759,-1.7511 -1.420499,-0.71592 -3.378977,-2.31448 -3.378977,-2.75803 0,-0.1065 0.851614,-0.34487 1.892483,-0.52974 2.750073,-0.48841 6.004223,-1.38127 6.711073,-1.84131 0.33719,-0.21947 1.15726,-0.51978 1.82238,-0.66735 2.224345,-0.49353 7.278805,0.76504 8.358665,2.08131 0.39045,0.47593 0.3704,0.50085 -0.28036,0.34808 -3.63767,-0.854 -6.60587,-0.89243 -7.268415,-0.0941 -0.25541,0.30774 -0.0625,0.4182 1.012195,0.57935 2.16005,0.32392 4.04514,1.17085 5.83566,2.62184 1.90102,1.54053 2.67186,2.67559 2.16276,3.18467 -0.2413,0.24133 -0.68127,0.0691 -1.76949,-0.6927 l -1.44833,-1.01389 -0.94153,0.71814 c -0.60722,0.46315 -1.11677,0.65076 -1.43504,0.52837 -0.27143,-0.10431 -1.34455,-0.23472 -2.38474,-0.28969 -1.858235,-0.0981 -1.920555,-0.0783 -3.574675,1.13941 -0.9259,0.6816 -1.68346,1.41159 -1.68346,1.62218 0,0.49408 1.25386,1.75245 2.59341,2.60272 0.57825,0.36704 1.05137,0.79193 1.05137,0.9442 0,0.41606 -2.27834,0.31135 -3.11453,-0.14313 z m -0.41083,-8.16752 c 1.30669,-0.44524 3.51939,-0.42117 5.137465,0.0559 0.92466,0.27262 0.84265,-0.79759 -0.10891,-1.42106 -1.023965,-0.67093 -2.523305,-0.82029 -4.375125,-0.43586 -1.38107,0.28672 -1.60615,0.43019 -1.87225,1.19353 -0.44484,1.27611 -0.56609,1.21567 1.21878,0.6075 z m -8.530435,-4.27506 c 0,-0.35341 0.823013,-0.987 1.022695,-0.7873 0.287114,0.28711 -0.141369,1.03333 -0.593344,1.03333 -0.236145,0 -0.429351,-0.11076 -0.429351,-0.24603 z m 0.465189,-1.64432 c -0.08128,-0.13155 -0.0427,-0.40924 0.08573,-0.61711 0.284348,-0.46008 1.226912,-0.16277 1.061256,0.33476 -0.140299,0.42137 -0.939491,0.6181 -1.147003,0.28235 z m 5.142156,44.47653 c 1.96526,-1.17815 2.52331,-1.91835 2.52331,-3.3469 0,-1.06244 0.18344,-1.54933 0.97369,-2.58428 0.62511,-0.81867 1.03134,-1.71136 1.13471,-2.49353 0.0886,-0.67008 0.21386,-1.5596 0.27843,-1.97671 0.10869,-0.70229 -0.053,-0.84402 -2.18609,-1.91673 -2.1726,-1.09253 -2.39909,-1.14783 -3.9857,-0.97303 -0.925211,0.1019 -2.562008,0.1664 -3.637327,0.14324 -1.952087,-0.0421 -1.954322,-0.0412 -1.436733,0.53071 0.44975,0.49698 0.912755,0.58331 3.49714,0.65204 2.77186,0.0737 2.92034,0.1057 2.137656,0.4618 -0.476571,0.21677 -2.268873,0.4461 -4.135415,0.52914 -2.522204,0.11213 -3.294323,0.23608 -3.294323,0.5286 0,0.46432 0.997359,1.50353 1.442987,1.50353 0.176835,0 1.436141,0.66122 2.798456,1.46936 2.331382,1.38303 2.448406,1.49688 1.991501,1.93759 -0.266974,0.25751 -1.298359,0.67234 -2.291944,0.92184 -2.283369,0.57339 -3.76427,1.63084 -3.4916,2.49322 0.610119,1.92961 1.952396,2.69548 4.737394,2.70305 1.501261,0.005 2.193237,-0.13293 2.943858,-0.58294 z M 79.755658,143.14321 c 0.400709,-1.37572 1.02153,-2.98981 1.379598,-3.58687 0.540212,-0.90075 0.654825,-1.49732 0.673273,-3.50458 0.01907,-2.08105 -0.06591,-2.54263 -0.608581,-3.30344 -0.849293,-1.19067 -0.789105,-1.49702 0.487209,-2.48003 1.535282,-1.18247 1.563649,-1.44982 0.226162,-2.13216 -1.439373,-0.73431 -2.740387,-0.60651 -4.53553,0.44552 -1.183975,0.69385 -1.294538,0.85093 -1.294538,1.83917 v 1.08051 l -0.972278,-0.40624 c -1.397389,-0.58386 -1.476227,-0.54406 -1.784428,0.90099 -0.362201,1.69826 -0.09728,2.34292 1.630365,3.96749 l 1.397284,1.31391 -0.332552,1.18771 c -0.363472,1.29815 -0.03221,3.61335 0.822791,5.75015 0.408466,1.02084 1.238144,1.67614 1.902305,1.50249 0.154201,-0.0402 0.608221,-1.1989 1.00892,-2.57462 z m -0.650057,-17.50098 h 2.671901 l -0.534097,-0.60144 c -0.844282,-0.95073 -2.799061,-1.71034 -3.84224,-1.49306 -1.046876,0.21805 -3.280482,1.4454 -3.280482,1.80259 0,0.3853 0.62791,0.56045 1.506969,0.42037 0.443327,-0.0707 2.008407,-0.12846 3.477949,-0.12846 z m -4.480257,-3.1401 c 0.463334,-0.46335 0.421817,-0.69508 -0.154212,-0.86071 -0.269852,-0.0775 -0.694849,-0.22562 -0.94444,-0.32893 -0.321848,-0.13323 -0.502202,-0.003 -0.62028,0.44881 -0.251722,0.96259 0.970434,1.48931 1.718932,0.74083 z m 11.613512,98.3089 c -0.712471,-0.49903 -0.771896,-1.0837 -0.212133,-2.08685 0.356818,-0.63944 0.331259,-0.76385 -0.291448,-1.41839 l -0.682567,-0.71745 0.813742,-0.77962 c 0.791966,-0.75874 0.833261,-0.76682 1.543167,-0.30168 0.756075,0.49541 0.967434,1.56576 0.46576,2.35862 -0.166238,0.26272 -0.115915,0.6018 0.144474,0.97358 0.538709,0.7691 0.502754,1.38684 -0.113159,1.94424 -0.635285,0.57493 -0.880563,0.57897 -1.667835,0.0276 z"
       id="path15499"
       sodipodi:nodetypes="ccssscsccccssscsscsssssssscssscssssssssscssssscscsscssccsssssssscsscccccccssscssscssssssssssssssssssscsssscssssssscsscssssssssccssccssscssccsssssscssssscsscssscsssssscssssssssssssssscssscssssscsscsscssssssscsssssssscssssscssssscscscsssssssssccsssscscssssssscssssssccsscsssssssssssccsccsssssssssssssssssssscssssssssssssscssssssssssssscssssssssssssscsssccssccssssscscsssssssssssscssssscssssssssscsssssssssssssssssssssssssscssssssssssscssssssssscssssssscssscssscsscssssssscsssssssssssssscccssscscsscsssssccsssssssscscsssssssssssssscssssssssscsssscssscsccsssssssssssscscccsssccsscssssssssccscccssscccccsccsscscsccsscssssscssscsscsscssscsscscsssscsssssss" />
  </g>
</svg>
