<?xml version="1.0" encoding="UTF-8" standalone="no"?>
<!-- Created with Inkscape (http://www.inkscape.org/) -->

<svg
   width="190.30246mm"
   height="193.4801mm"
   viewBox="0 0 190.30246 193.4801"
   version="1.1"
   id="svg5"
   xmlns="http://www.w3.org/2000/svg"
   xmlns:svg="http://www.w3.org/2000/svg">
  <defs
     id="defs2" />
  <g
     id="layer2"
     transform="translate(-9.2229923,-59.065135)"
     style="display:inline">
    <path
       style="display:inline;fill:#ffffff;stroke-width:0.23493"
       d="m 98.298325,241.49598 c -0.242714,-0.1537 -0.285237,-0.47179 -0.164231,-1.22854 0.170713,-1.06756 2.286896,-10.86736 3.325676,-15.40085 l 0.60279,-2.63069 1.33573,-0.40095 c 0.73465,-0.22052 1.9326,-0.44939 2.66211,-0.5086 1.30214,-0.10568 1.32904,-0.0954 1.47305,0.56488 0.48664,2.2311 3.36377,19.49539 3.27333,19.64172 -0.14103,0.22819 -4.34423,0.22623 -4.68802,-0.002 -0.14288,-0.0949 -0.33434,-0.59548 -0.42547,-1.11232 -0.0911,-0.51685 -0.26904,-1.33617 -0.39534,-1.82071 l -0.22964,-0.88099 h -1.50893 -1.50894 l -0.22175,0.88099 c -0.12197,0.48454 -0.29432,1.30362 -0.38302,1.82017 -0.0887,0.51655 -0.2837,1.0171 -0.43336,1.11232 -0.37936,0.24139 -2.317313,0.21693 -2.713985,-0.0343 z m 6.371625,-7.53812 c -0.17566,-1.60998 -0.84787,-5.16847 -0.97635,-5.16847 -0.19513,0 -1.3783,5.60807 -1.21716,5.76919 0.0692,0.0692 0.60539,0.0944 1.19165,0.0562 0.98204,-0.0641 1.06089,-0.11579 1.00186,-0.65689 z m -18.686455,5.99906 c -1.009553,-0.30088 -1.892577,-0.60407 -1.962262,-0.67376 -0.0697,-0.0697 0.157012,-1.31332 0.503791,-2.76361 0.663218,-2.77371 0.652874,-3.66935 -0.05798,-5.02033 l -0.375122,-0.71292 -0.317921,1.05719 c -0.17486,0.58145 -0.636456,2.26495 -1.025767,3.74111 -0.798431,3.0274 -0.817167,3.07186 -1.294338,3.07186 -0.663377,0 -4.089206,-1.23849 -4.089206,-1.4783 0,-0.65973 3.845915,-14.92495 4.152844,-15.4037 0.210936,-0.329 1.369811,-1.02923 2.850737,-1.7225 l 2.495328,-1.16815 0.830139,0.39261 c 1.50458,0.7116 3.257282,2.23488 3.755382,3.26383 0.604463,1.24865 0.632087,3.75197 0.05985,5.4221 -0.364671,1.06431 -0.506837,1.21191 -1.575499,1.63578 -0.646055,0.25625 -1.202597,0.48018 -1.236765,0.49761 -0.03419,0.0174 0.203282,0.61138 0.52765,1.3199 0.960469,2.09794 0.977197,2.99576 0.116425,6.24896 -0.583074,2.20363 -0.848324,2.86759 -1.140709,2.85534 -0.209533,-0.009 -1.206974,-0.26214 -2.216528,-0.56302 z m 0.123892,-11.97031 c 0.491911,-0.10928 0.690975,-0.34247 0.871019,-1.02029 0.408908,-1.53949 0.372369,-2.79186 -0.107448,-3.68283 -0.71644,-1.33035 -0.662498,-1.4128 -1.754735,2.68203 -0.57685,2.16257 -0.583278,2.41673 -0.05763,2.27422 0.226119,-0.0613 0.69806,-0.17521 1.048763,-0.25313 z m 33.378143,10.63386 c -1.36028,-5.0192 -4.35529,-17.7981 -4.2411,-18.09566 0.15968,-0.41613 4.1034,-1.30411 4.39381,-0.98933 0.10609,0.115 0.62946,1.89291 1.16305,3.95089 0.53357,2.05798 1.01239,3.78404 1.06404,3.83569 0.0517,0.0517 0.51665,-0.0992 1.03331,-0.3353 l 0.93941,-0.4292 -0.68208,-2.7728 c -0.37514,-1.52503 -0.77175,-3.34463 -0.88135,-4.04356 l -0.19928,-1.27078 1.31387,-0.26437 c 0.72263,-0.1454 1.71095,-0.34978 2.19624,-0.45417 0.48531,-0.10439 0.93367,-0.10679 0.99639,-0.005 0.28079,0.45433 4.58183,18.6156 4.58183,19.34692 0,0.34464 -2.97051,1.33011 -4.0055,1.32882 -0.65252,-7e-4 -0.6053,0.13812 -1.87665,-5.52161 -0.6283,-2.79709 -0.65088,-2.82759 -1.71661,-2.31937 -0.4723,0.22522 -0.85872,0.54088 -0.85872,0.70146 0,0.26436 1.54418,6.85885 1.76627,7.54295 0.0871,0.2682 -1.9567,1.00825 -3.80585,1.37808 -0.71312,0.14262 -0.71343,0.14222 -1.18108,-1.58332 z m 20.2077,-5.79072 c -0.19999,-0.47784 -0.78148,-2.19028 -1.29218,-3.80542 -0.51071,-1.61515 -1.55616,-4.81216 -2.32322,-7.10446 -0.76705,-2.2923 -1.54238,-4.80113 -1.72294,-5.57517 l -0.32831,-1.40733 1.89577,-1.64894 c 1.04267,-0.90692 1.96564,-1.64894 2.05104,-1.64894 0.23396,0 5.83358,6.45382 9.19653,10.59945 0.69361,0.85504 1.93608,2.32791 2.76102,3.27302 l 1.49991,1.7184 -0.56018,0.46107 c -0.3081,0.25359 -1.34212,0.8349 -2.29781,1.29179 l -1.73763,0.83071 -0.49421,-0.57952 c -0.27182,-0.31875 -0.81707,-0.98442 -1.21169,-1.47928 l -0.71747,-0.89976 -1.20408,0.61015 c -0.66224,0.33559 -1.27347,0.72245 -1.35829,0.85969 -0.0848,0.13725 0.13766,1.04987 0.49442,2.02803 l 0.64865,1.77848 -0.56978,0.43028 c -0.31338,0.23666 -0.97391,0.58919 -1.46786,0.78342 l -0.89806,0.35313 z m 2.05582,-8.04106 0.93451,-0.47676 -1.9202,-2.22749 c -1.05611,-1.22512 -1.96636,-2.18133 -2.02279,-2.1249 -0.26013,0.26012 1.57926,5.3059 1.9342,5.3059 0.0769,0 0.56029,-0.21454 1.07428,-0.47675 z m -80.946972,5.38332 c -0.904485,-0.52158 -1.735681,-1.03678 -1.847115,-1.14489 -0.112039,-0.10869 0.477819,-1.38727 1.319474,-2.86011 0.837145,-1.46495 2.499315,-4.46076 3.693698,-6.65736 1.194393,-2.19659 2.346369,-4.17727 2.559951,-4.40149 0.470218,-0.49365 5.657797,-1.70172 6.451709,-1.50246 0.9679,0.24293 1.760569,1.06631 2.528784,2.62678 0.701044,1.42401 0.740157,1.63541 0.613201,3.31401 -0.141011,1.86457 -1.076742,4.25433 -1.989112,5.08002 -0.274848,0.24873 -1.812948,0.61545 -4.36528,1.0408 l -3.940905,0.65674 -1.348039,2.34739 c -0.741418,1.29107 -1.50189,2.37023 -1.689944,2.39814 -0.188045,0.0279 -1.081937,-0.376 -1.986422,-0.89757 z m 9.963897,-8.67424 c 0.377901,-0.52168 0.759309,-1.37594 0.847569,-1.89834 0.174486,-1.03276 -0.04218,-3.02641 -0.328834,-3.02641 -0.170082,0 -3.317262,5.43761 -3.317262,5.73146 0,0.078 0.475076,0.1418 1.055716,0.1418 0.963222,0 1.115909,-0.0831 1.742811,-0.94851 z m -22.591392,-4.54509 c -0.611408,-0.2228 -0.646063,-0.31473 -0.646063,-1.71375 0,-0.81308 0.129743,-1.96343 0.288327,-2.55633 0.275123,-1.02866 0.262151,-1.09774 -0.283284,-1.50917 -0.508479,-0.38354 -0.663564,-0.39667 -1.404245,-0.11883 -1.022339,0.3835 -3.555501,0.6474 -3.915945,0.40796 -0.145283,-0.0965 -0.337074,-0.5117 -0.426204,-0.92266 -0.135285,-0.62372 -0.07565,-0.7934 0.360639,-1.02692 0.518939,-0.27772 3.292782,-0.1957 4.337009,0.12825 0.304798,0.0946 0.669948,-0.008 0.988491,-0.27675 0.488386,-0.41253 0.49358,-0.46956 0.156622,-1.71881 -0.440873,-1.63451 -0.360125,-3.73909 0.155893,-4.06281 0.206123,-0.12932 0.655431,-0.16468 0.998454,-0.0786 0.587274,0.14739 0.623687,0.2379 0.623687,1.55007 0,0.76645 -0.117081,1.93947 -0.26018,2.60672 -0.235522,1.0982 -0.215623,1.25772 0.209915,1.68327 0.454458,0.45445 0.509287,0.45707 1.648344,0.0788 0.742927,-0.24677 1.72864,-0.36531 2.667976,-0.32086 l 1.489734,0.0705 v 1.05719 1.05718 l -1.213483,0.0703 c -0.667427,0.0387 -1.873114,-0.1006 -2.679323,-0.30951 -1.417715,-0.36737 -1.481228,-0.36444 -1.934949,0.0893 -0.454529,0.45453 -0.457051,0.51214 -0.08107,1.85197 0.526167,1.87526 0.515912,3.62907 -0.02309,3.95236 -0.279554,0.16768 -0.61788,0.17125 -1.057181,0.0112 z m 49.863935,-0.35543 -1.05719,-0.14169 0.02815,-6.34311 c 0.02744,-6.19109 0.08577,-6.97029 1.125285,-15.03554 0.360471,-2.79688 0.883859,-5.60101 1.420938,-7.61302 0.282698,-1.059 0.287643,-1.36789 0.02983,-1.86 -0.305428,-0.58292 -0.315417,-0.57344 -0.821712,0.77975 -1.755668,4.69243 -3.06415,15.43329 -3.071165,25.20999 l -0.0036,4.77021 -1.115926,-0.0716 -1.115918,-0.0716 0.04493,-6.7525 c 0.05301,-7.96936 0.773268,-14.97531 2.196248,-21.36364 0.6876,-3.08692 0.669619,-3.1869 -0.607537,-3.37842 -0.587415,-0.0881 -1.136029,-0.0922 -1.219139,-0.009 -0.08311,0.0831 0.0372,0.67479 0.267372,1.31485 0.515219,1.43276 0.358695,2.61474 -0.534246,4.03447 l -0.639493,1.01677 0.409342,1.05718 c 0.572286,1.47798 0.53232,2.09735 -0.229049,3.54961 -0.365177,0.69655 -0.794169,1.86777 -0.953303,2.60272 -0.247287,1.14199 -0.236144,1.43912 0.07663,2.04397 0.201284,0.38924 0.365976,1.20261 0.365976,1.80748 0,0.98256 -0.107625,1.20739 -1.009935,2.1097 -1.295527,1.29553 -2.037105,1.48873 -3.320645,0.86514 -0.8028,-0.39002 -1.043427,-0.66598 -1.308917,-1.50105 l -0.325283,-1.02317 -0.178703,1.17465 c -0.09829,0.64605 -0.240886,2.97187 -0.316892,5.16846 -0.07601,2.1966 -0.191304,4.43241 -0.25622,4.96846 l -0.118032,0.97465 -0.98763,-0.11792 c -1.039654,-0.12413 -1.939069,-0.8554 -1.632424,-1.32725 0.09622,-0.14806 0.240832,-3.33503 0.321376,-7.08217 0.188746,-8.78142 0.547823,-12.88648 1.629609,-18.63015 0.5854,-3.10809 0.583083,-3.38992 -0.02193,-2.66374 -0.254124,0.30504 -0.462041,0.76157 -0.462041,1.01454 0,0.25295 -0.365088,2.12915 -0.811315,4.16934 -0.446226,2.04018 -0.924925,4.86092 -1.063778,6.2683 -0.353492,3.58294 -0.927802,15.12103 -0.788522,15.84185 0.08755,0.45299 -0.01634,0.66679 -0.431248,0.88748 -1.47147,0.78274 -9.773224,-3.36172 -15.843347,-7.90942 -4.284426,-3.20987 -11.132851,-10.434 -11.132851,-11.74362 0,-0.70369 1.370007,-3.56968 2.488926,-5.20673 2.015714,-2.94911 3.776932,-5.62976 4.115915,-6.26457 0.212445,-0.39785 1.297152,-1.34407 2.466763,-2.15183 1.982204,-1.36896 2.158741,-1.44208 3.497164,-1.4485 1.546357,-0.007 3.415715,-0.72442 4.206421,-1.61339 0.44375,-0.49889 0.442755,-0.50308 -0.117463,-0.49483 -0.310756,0.004 -0.829305,0.15942 -1.152332,0.34407 -1.389905,0.79454 -1.991607,0.0183 -1.643549,-2.1203 0.19965,-1.22666 0.0018,-3.29571 -0.373089,-3.90235 -0.215792,-0.34916 -1.350569,-0.0215 -3.867056,1.11659 -2.973555,1.3448 -3.64749,1.48295 -3.866604,0.79259 -0.091,-0.28673 -0.09001,-1.77719 0.0018,-3.31211 0.09222,-1.53493 0.162961,-2.87077 0.15719,-2.96853 -0.01163,-0.19746 -5.659218,-1.42619 -6.678024,-1.45292 -0.517536,-0.0136 -0.646054,-0.12726 -0.646054,-0.57148 0,-0.30501 0.245573,-0.91289 0.545719,-1.35086 1.625045,-2.3712 4.344414,-6.10054 5.131328,-7.03707 0.495552,-0.58977 0.900996,-1.21687 0.900996,-1.39355 0,-0.17668 -0.8543,-1.19647 -1.898446,-2.26621 -1.229599,-1.25974 -1.869926,-2.09307 -1.817503,-2.36534 0.09839,-0.51096 1.129325,-0.86961 3.884601,-1.35137 2.776995,-0.48555 3.826328,-0.79759 3.819215,-1.13567 -0.0036,-0.15545 -0.426142,-1.1272 -0.939718,-2.15946 -0.513575,-1.03227 -0.933777,-2.01017 -0.933777,-2.17311 0,-0.22204 0.750439,-0.30039 2.995362,-0.31277 4.094481,-0.0226 4.003255,0.0382 3.02034,-2.01278 l -0.800198,-1.66971 1.180745,-0.13984 c 0.704897,-0.0835 2.423317,0.0458 4.263959,0.32091 1.695759,0.25342 3.146256,0.46146 3.223302,0.4623 0.157668,0.002 0.537985,-5.24767 0.484611,-6.68901 -0.019,-0.51412 -0.291159,-1.72988 -0.604721,-2.7017 -0.745555,-2.31073 -0.809113,-2.91831 -0.958959,-9.16724 -0.156994,-6.54657 -0.02344,-7.43888 1.511177,-10.09792 l 1.17089,-2.02881 -0.335219,-1.27076 c -0.325682,-1.23461 -0.318055,-1.30004 0.268296,-2.30057 0.331933,-0.5664 1.216892,-1.6432 1.966576,-2.39288 0.749685,-0.74969 1.961898,-2.15869 2.693806,-3.131119 1.663075,-2.20946 2.107934,-2.505876 3.760842,-2.505876 1.004315,0 1.586536,-0.157864 2.533766,-0.686988 2.331638,-1.302453 3.484805,-1.490116 7.513845,-1.222735 2.170001,0.144013 3.99997,0.390163 4.640234,0.624158 0.65679,0.240042 2.34734,0.460345 4.46367,0.581671 3.32594,0.190682 5.48795,0.610422 6.9239,1.344248 1.6454,0.840865 5.99727,4.814091 5.99727,5.475471 0,0.1126 0.47235,0.52971 1.04968,0.92692 1.27777,0.87913 3.10405,3.37565 3.57403,4.8857 0.33736,1.084 0.70013,2.44061 2.17248,8.1244 0.39687,1.53203 0.72166,3.3821 0.72175,4.11128 1.5e-4,0.98506 0.18127,1.70857 0.70479,2.8152 0.40852,0.86352 0.70461,1.87515 0.70461,2.40736 0,0.71064 0.17847,1.11706 0.79024,1.79961 0.43463,0.48491 0.96349,1.22051 1.17523,1.63465 0.28531,0.55802 0.58255,0.78162 1.14794,0.86355 0.41962,0.0608 1.60869,0.22569 2.64239,0.3664 2.22759,0.30323 7.384,1.54822 7.69329,1.85751 0.23574,0.23574 -0.14618,1.09701 -1.12794,2.54371 l -0.59464,0.87627 0.77352,0.41225 c 0.42544,0.22674 1.35498,0.57876 2.06564,0.78226 2.25352,0.64531 3.28903,1.08921 3.28903,1.40994 0,0.17123 -0.68717,1.33912 -1.52704,2.59531 -0.83988,1.25619 -1.52458,2.4024 -1.52155,2.54713 0.003,0.14474 1.07499,0.95031 2.38215,1.79019 2.09917,1.34876 3.95546,3.12195 3.95546,3.77839 0,0.10278 -1.03076,0.86633 -2.29057,1.69677 -1.25981,0.83044 -2.47648,1.71836 -2.7037,1.97316 -0.39764,0.44589 -0.38499,0.50214 0.33729,1.49974 0.41272,0.57006 1.39153,1.78898 2.1751,2.70871 0.78358,0.91974 1.66518,2.10169 1.95911,2.62657 l 0.53441,0.95433 -0.81213,0.61945 c -0.44668,0.34069 -1.63863,0.96905 -2.64879,1.39635 -1.40543,0.5945 -1.8294,0.88038 -1.80577,1.21765 0.0433,0.61653 1.45916,4.56092 1.86055,5.1829 0.18223,0.28237 1.04697,0.89157 1.92164,1.35377 0.87468,0.46221 3.1761,1.81696 5.11428,3.01056 3.20118,1.97141 3.53041,2.2363 3.59447,2.89205 0.11821,1.21033 -1.69044,5.44796 -3.68294,8.62905 -5.90865,9.43332 -11.12916,15.39295 -17.97604,20.52112 -4.33736,3.24861 -6.02126,4.21804 -10.58061,6.09134 -5.84799,2.40277 -10.24537,3.46329 -16.40119,3.95549 -4.47872,0.35811 -6.622708,0.39919 -8.400308,0.16096 z M 87.45952,201.02704 c 0.474853,-0.64227 0.559082,-1.05662 0.608903,-2.99536 0.04164,-1.62096 -0.04182,-2.46343 -0.298742,-3.0135 -0.759292,-1.62592 -1.000328,-0.78041 -1.004608,3.52395 -0.0018,1.77666 0.02975,3.23029 0.07006,3.23029 0.04031,0 0.321278,-0.33542 0.624371,-0.74538 z m 3.058751,-3.12798 c 0.356369,-0.4294 0.148186,-1.06017 -0.349914,-1.06017 -0.431078,0 -0.694961,0.55531 -0.50237,1.05718 0.171805,0.44772 0.482286,0.44881 0.852284,0.003 z m -2.006791,-6.21598 c 0.871259,-0.89225 0.890989,-0.94738 0.525528,-1.46831 -0.625384,-0.89142 -1.027365,-1.36351 -1.161007,-1.36351 -0.131253,0 -0.64427,2.68107 -0.64427,3.367 0,0.59909 0.291,0.47739 1.279749,-0.53518 z m 0.482614,-5.94464 c 0.448829,-0.29074 0.817353,-0.58795 0.81896,-0.6605 0.0053,-0.22767 -0.944148,-1.16022 -1.180896,-1.16022 -0.124176,0 -0.225782,0.25742 -0.225782,0.57204 0,0.31462 -0.103097,0.84321 -0.229111,1.17465 -0.279847,0.73606 -0.214389,0.74199 0.816829,0.074 z m 6.884395,-4.18422 c 0.166273,-0.26623 1.168376,-1.47222 2.226908,-2.67998 2.195153,-2.50459 1.960323,-2.47791 4.129833,-0.46932 l 1.39871,1.29496 1.52839,-1.7087 c 0.84061,-0.93978 1.729,-1.95999 1.9742,-2.26713 0.59461,-0.74481 1.02189,-0.58247 3.02247,1.14836 0.89262,0.77225 1.94009,1.56146 2.32772,1.7538 0.66154,0.32823 0.73167,0.3175 1.14278,-0.17475 0.24089,-0.28845 0.8923,-1.42881 1.44758,-2.53412 1.38158,-2.75013 1.4637,-2.7996 2.77025,-1.66879 0.5846,0.50597 1.7192,1.62152 2.52133,2.47901 1.02564,1.09641 1.54005,1.49132 1.73346,1.3308 0.15127,-0.12554 0.77914,-1.18436 1.39527,-2.35291 l 1.12024,-2.12465 h -0.83826 c -0.46104,0 -0.83826,-0.11051 -0.83826,-0.24558 0,-0.15224 0.30483,-0.18839 0.80203,-0.0951 0.66246,0.12427 0.84787,0.0648 1.06546,-0.34176 0.14488,-0.27071 0.44612,-0.49221 0.66941,-0.49221 0.49885,0 2.32901,1.21576 5.01673,3.33256 1.11802,0.88054 2.08428,1.60098 2.14723,1.60098 0.3524,0 1.09121,-2.2737 1.22697,-3.77609 0.17508,-1.93729 0.49874,-3.42648 0.78288,-3.60208 0.1025,-0.0633 1.74622,0.35506 3.65271,0.9298 1.90649,0.57473 3.55265,1.04497 3.65813,1.04497 0.89402,0 -0.0358,-3.62433 -1.65205,-6.43959 -1.01973,-1.7762 -1.02681,-2.30738 -0.0356,-2.67201 0.35104,-0.12913 1.13869,-0.41288 1.75033,-0.63055 0.61163,-0.21767 1.35167,-0.59218 1.6445,-0.83224 l 0.53244,-0.43648 -0.53426,-1.01388 c -0.59718,-1.13323 -2.11335,-2.81503 -4.03262,-4.47315 -1.24782,-1.07803 -1.26997,-1.11876 -0.94178,-1.73197 0.18484,-0.34539 0.54844,-0.75653 0.808,-0.91364 3.82017,-2.31238 4.7815,-2.99696 4.65853,-3.31741 -0.35594,-0.92756 -2.65509,-2.2005 -6.25238,-3.46168 -0.54194,-0.18999 -0.36558,-0.54078 1.62673,-3.23574 0.82293,-1.11315 1.49623,-2.12267 1.49623,-2.24338 0,-0.21932 -4.80248,-1.72343 -5.50278,-1.72343 -0.47161,0 -0.48735,0.092 0.30706,-1.79611 1.15528,-2.74591 1.18687,-2.55652 -0.49508,-2.96832 -2.35901,-0.57757 -3.43256,-0.69796 -4.75273,-0.53302 l -1.23757,0.15462 -0.15699,1.88246 c -0.32917,3.94702 -1.12472,5.37582 -5.75366,10.33342 l -2.43874,2.6119 0.14046,1.34387 c 0.22201,2.12407 0.32898,2.27442 1.09561,1.53994 0.55493,-0.53167 0.66374,-0.56329 0.7916,-0.2301 0.23923,0.62343 -0.76311,4.09805 -1.4835,5.14254 -0.36446,0.52845 -2.28725,2.61084 -4.27286,4.62754 -2.94031,2.98635 -4.1128,3.99487 -6.31889,5.43513 -3.11014,2.03048 -4.22585,3.15583 -5.20654,5.25152 -0.63367,1.35411 -0.77607,1.50388 -1.55952,1.64023 -0.4742,0.0826 -1.23219,0.3954 -1.68443,0.69527 -0.45224,0.29987 -1.41661,0.8052 -2.14302,1.12295 -0.726432,0.31776 -1.394596,0.69717 -1.484809,0.84315 -0.114409,0.18511 -0.355383,0.12917 -0.796496,-0.18494 -0.539592,-0.38422 -1.339222,-0.48781 -5.445636,-0.7054 -5.028587,-0.26647 -7.018338,-0.61979 -8.48868,-1.50738 -1.228409,-0.74153 -3.003425,-2.92936 -3.314767,-4.08567 -0.145798,-0.54148 -0.36706,-0.92149 -0.491698,-0.84446 -0.140345,0.0867 -0.163316,-0.16451 -0.06038,-0.66001 0.09145,-0.44002 0.262453,-1.85723 0.380015,-3.14935 0.11757,-1.29212 0.306982,-2.72165 0.420929,-3.17674 0.113939,-0.4551 0.18872,-1.88587 0.166176,-3.17952 -0.03667,-2.10411 -0.109419,-2.46884 -0.690069,-3.45965 -0.561427,-0.95801 -0.627817,-1.2622 -0.491609,-2.25258 0.134015,-0.97436 -0.0071,-1.6659 -0.94588,-4.64026 -1.514605,-4.79802 -1.712257,-5.25722 -2.262833,-5.25722 -0.350677,0 -0.425281,-0.10995 -0.313535,-0.46203 0.164204,-0.51736 0.245884,-0.48751 -2.901367,-1.06008 -2.305382,-0.41941 -3.321799,-0.45292 -3.321799,-0.10952 0,0.1363 0.312443,0.98205 0.694322,1.87945 l 0.694322,1.63163 h -3.421158 c -2.851235,0 -3.399928,0.0553 -3.293741,0.33202 0.07006,0.18262 0.65995,1.19066 1.310826,2.24009 l 1.183418,1.90807 -0.571708,0.21736 c -0.314432,0.11954 -1.130862,0.28662 -1.814289,0.37127 -1.527826,0.18924 -5.055873,0.98073 -5.513723,1.23696 -0.334836,0.18738 0.152351,0.71182 2.470191,2.6591 0.409076,0.34368 0.74377,0.72615 0.74377,0.84996 0,0.1238 -0.645823,1.05837 -1.435162,2.07683 -0.789339,1.01846 -2.126173,2.84034 -2.970741,4.04864 -1.207862,1.72805 -1.465618,2.24049 -1.2078,2.40122 0.412726,0.2573 2.981866,0.84399 4.649328,1.06174 l 1.267451,0.16551 -0.142921,2.66691 c -0.07858,1.4668 -0.05221,2.66691 0.05869,2.66691 0.624647,0 3.366586,-1.02328 3.715772,-1.38671 0.226403,-0.23563 0.675933,-0.48709 0.99896,-0.55879 0.323027,-0.0717 1.050122,-0.30173 1.615757,-0.51119 0.565644,-0.20945 1.063628,-0.34563 1.106648,-0.30262 0.04298,0.0431 0.151534,1.79358 0.24117,3.89013 l 0.162969,3.81192 0.492364,-0.35889 c 0.270808,-0.19738 1.047396,-0.68528 1.725753,-1.08421 0.939186,-0.55231 1.233382,-0.85868 1.233382,-1.28442 0,-0.50202 0.06109,-0.53586 0.598346,-0.33158 0.475067,0.18061 0.836479,0.1068 1.754167,-0.35822 1.445898,-0.73269 2.021664,-0.74773 2.186037,-0.0571 0.06917,0.29072 0.19949,1.74435 0.289543,3.23029 0.09006,1.48593 0.202749,2.76969 0.250422,2.85281 0.04768,0.0831 1.039867,-0.20761 2.204878,-0.64606 1.165011,-0.43844 2.365131,-0.79717 2.666919,-0.79717 1.019755,0 1.552351,1.09327 1.916968,3.93508 0.138978,1.08314 0.223846,1.23338 0.696764,1.23338 0.296176,0 1.171768,-0.42288 1.945746,-0.93972 1.965236,-1.31233 2.366258,-1.25733 4.251643,0.58315 1.639199,1.60014 2.305818,1.84888 2.806492,1.04716 z m -0.894061,-1.74777 c 0,-0.19382 0.147263,-0.3524 0.327254,-0.3524 0.18,0 0.388112,0.15858 0.462494,0.3524 0.09198,0.23969 -0.0127,0.35239 -0.327263,0.35239 -0.254479,0 -0.462485,-0.1585 -0.462485,-0.35239 z m -7.752697,-0.91459 c 0,-0.46979 0.640114,-0.65001 0.802809,-0.22601 0.200529,0.52255 0.182042,0.55327 -0.332954,0.55327 -0.258422,0 -0.469855,-0.14727 -0.469855,-0.32726 z m 6.123967,-0.71091 c -0.413391,-0.4981 -0.22342,-0.87494 0.260953,-0.51767 0.231508,0.17077 0.31991,0.41098 0.214194,0.58203 -0.138597,0.22425 -0.247918,0.20944 -0.475147,-0.0644 z m 3.146115,-0.15211 c -0.08515,-0.13781 -0.09598,-0.30945 -0.02397,-0.38142 0.193265,-0.19326 0.855915,0.10843 0.855915,0.38968 0,0.31885 -0.633632,0.31256 -0.831915,-0.008 z m 6.655117,-0.68868 c -0.0968,-0.6593 -0.077,-0.68042 0.30989,-0.33033 0.2273,0.2057 0.35622,0.52264 0.28651,0.70432 -0.21,0.54723 -0.48665,0.37374 -0.5964,-0.37399 z m -16.165995,-0.59487 c -0.455284,-0.54858 0.10244,-1.05423 0.606657,-0.55002 0.311564,0.31157 0.315711,0.40136 0.02948,0.63889 -0.259931,0.21572 -0.39954,0.19622 -0.636145,-0.0889 z m 34.595115,-0.1104 c -0.26455,-0.42362 -0.23462,-0.46987 0.30415,-0.46987 0.52478,0 0.56695,0.0573 0.34612,0.46987 -0.1383,0.25842 -0.27516,0.46986 -0.30415,0.46986 -0.0289,0 -0.18473,-0.21144 -0.34612,-0.46986 z m -29.773184,-0.23493 c -0.07982,-0.12921 0.01962,-0.23494 0.221067,-0.23494 0.201443,0 0.36626,0.10573 0.36626,0.23494 0,0.12921 -0.09948,0.23493 -0.221067,0.23493 -0.121583,0 -0.2864,-0.10572 -0.36626,-0.23493 z m 9.279734,0.0192 c 0,-0.11865 -0.0688,-0.39515 -0.15299,-0.61444 -0.12716,-0.33135 -0.0577,-0.36937 0.41112,-0.22495 0.76262,0.23489 0.79431,0.28383 0.45138,0.69703 -0.33058,0.39833 -0.70951,0.47435 -0.70951,0.14236 z m 3.87636,-0.72401 c -0.19234,-0.31122 0.0655,-0.70479 0.46173,-0.70479 0.20087,0 0.27163,0.17169 0.19366,0.46986 -0.1327,0.50745 -0.42271,0.61141 -0.65539,0.23493 z m -25.020071,-0.58732 c 0,-0.19578 0.208831,-0.3524 0.469863,-0.3524 0.261032,0 0.469864,0.15662 0.469864,0.3524 0,0.19577 -0.208832,0.35239 -0.469864,0.35239 -0.261032,0 -0.469863,-0.15662 -0.469863,-0.35239 z m 40.642921,-0.37197 c 0,-0.57255 0.54898,-0.49161 0.66328,0.0978 0.0449,0.23182 -0.0749,0.39166 -0.29366,0.39166 -0.21792,0 -0.36962,-0.20087 -0.36962,-0.48943 z m 11.04172,0.0195 c 0,-0.12921 0.15858,-0.23493 0.3524,-0.23493 0.19381,0 0.35239,0.10572 0.35239,0.23493 0,0.12922 -0.15858,0.23494 -0.35239,0.23494 -0.19382,0 -0.3524,-0.10572 -0.3524,-0.23494 z m -49.100406,-0.58732 c 0,-0.19578 0.208822,-0.3524 0.469863,-0.3524 0.261033,0 0.469855,0.15662 0.469855,0.3524 0,0.19577 -0.208822,0.35239 -0.469855,0.35239 -0.261041,0 -0.469863,-0.15662 -0.469863,-0.35239 z m 24.197806,-0.37198 c 0,-0.57253 0.54898,-0.4916 0.66329,0.0978 0.0449,0.23182 -0.0748,0.39167 -0.29366,0.39167 -0.21794,0 -0.36963,-0.20087 -0.36963,-0.48945 z m 12.68623,-0.0979 c 0,-0.19382 0.15858,-0.3524 0.3524,-0.3524 0.19382,0 0.35239,0.15858 0.35239,0.3524 0,0.19382 -0.15857,0.35239 -0.35239,0.35239 -0.19382,0 -0.3524,-0.15857 -0.3524,-0.35239 z m 9.86707,-0.58733 c 0,-0.12921 0.15857,-0.23493 0.3524,-0.23493 0.19382,0 0.35239,0.10572 0.35239,0.23493 0,0.12921 -0.15857,0.23493 -0.35239,0.23493 -0.19383,0 -0.3524,-0.10572 -0.3524,-0.23493 z m -57.792829,-0.44469 c 0,-0.11539 0.158584,-0.27065 0.3524,-0.34503 0.214656,-0.0824 0.352391,-4.7e-4 0.352391,0.2098 0,0.18976 -0.158575,0.34502 -0.352391,0.34502 -0.193816,0 -0.3524,-0.0944 -0.3524,-0.20979 z m 42.992229,-0.17137 c 0,-0.31217 0.0637,-0.32823 0.3524,-0.0887 0.19381,0.16086 0.35239,0.33238 0.35239,0.38116 0,0.0488 -0.15858,0.0887 -0.35239,0.0887 -0.19382,0 -0.3524,-0.17152 -0.3524,-0.38116 z m 17.5023,0.14623 c -0.19665,-0.31818 0.0687,-0.70479 0.48372,-0.70479 0.18619,0 0.33853,0.21144 0.33853,0.46986 0,0.48638 -0.56677,0.64832 -0.82225,0.23493 z m -52.271968,-0.58732 c 0,-0.46572 0.103194,-0.60191 0.411127,-0.5426 0.226119,0.0435 0.411127,0.28771 0.411127,0.5426 0,0.25488 -0.185008,0.49905 -0.411127,0.5426 -0.307933,0.0593 -0.411127,-0.0769 -0.411127,-0.5426 z m 47.690818,-0.3524 c 0,-0.12921 0.10573,-0.23493 0.23494,-0.23493 0.12921,0 0.23493,0.10572 0.23493,0.23493 0,0.12921 -0.10572,0.23493 -0.23493,0.23493 -0.12921,0 -0.23494,-0.10572 -0.23494,-0.23493 z m -2.81916,-1.40958 c 0,-0.12921 0.10573,-0.23493 0.23494,-0.23493 0.12921,0 0.23493,0.10572 0.23493,0.23493 0,0.12921 -0.10572,0.23493 -0.23493,0.23493 -0.12921,0 -0.23494,-0.10572 -0.23494,-0.23493 z m 13.86089,-0.83612 c 0,-0.20145 0.10571,-0.30092 0.23493,-0.22106 0.12921,0.0798 0.23493,0.24467 0.23493,0.36626 0,0.12158 -0.10572,0.22106 -0.23493,0.22106 -0.12922,0 -0.23493,-0.16482 -0.23493,-0.36626 z m -58.967476,-0.57346 c 0,-0.12921 0.111959,-0.23493 0.248788,-0.23493 0.136838,0 0.183463,0.10572 0.103603,0.23493 -0.07982,0.12921 -0.191818,0.23493 -0.248796,0.23493 -0.057,0 -0.103595,-0.10572 -0.103595,-0.23493 z m 56.853106,-0.11747 c 0,-0.19381 0.15526,-0.3524 0.34502,-0.3524 0.21017,0 0.29217,0.13775 0.2098,0.3524 -0.0744,0.19382 -0.22964,0.3524 -0.34503,0.3524 -0.11538,0 -0.20979,-0.15858 -0.20979,-0.3524 z m -64.840739,-0.2177 c 0,-0.21793 0.200867,-0.36962 0.489442,-0.36962 0.572535,0 0.491609,0.54897 -0.09778,0.66328 -0.231819,0.0449 -0.391664,-0.0748 -0.391664,-0.29366 z m -7.132605,-2.647 c -0.280771,-0.28078 -0.151693,-0.77671 0.202163,-0.77671 0.193825,0 0.352399,0.15233 0.352399,0.33853 0,0.39248 -0.335316,0.65743 -0.554562,0.43818 z M 61.389405,162.539 c 0,-0.12921 0.158575,-0.23492 0.352391,-0.23492 0.193825,0 0.3524,0.10571 0.3524,0.23492 0,0.12921 -0.158575,0.23493 -0.3524,0.23493 -0.193816,0 -0.352391,-0.10572 -0.352391,-0.23493 z m 79.876265,-1.05718 c 0,-0.19382 0.10572,-0.3524 0.23493,-0.3524 0.12922,0 0.23493,0.15858 0.23493,0.3524 0,0.19382 -0.10571,0.35239 -0.23493,0.35239 -0.12921,0 -0.23493,-0.15857 -0.23493,-0.35239 z m -77.761893,-7.98763 c 0,-0.19382 0.105716,-0.35239 0.234927,-0.35239 0.129211,0 0.234936,0.15857 0.234936,0.35239 0,0.19381 -0.105725,0.3524 -0.234936,0.3524 -0.129211,0 -0.234927,-0.15859 -0.234927,-0.3524 z m -1.879445,-1.52705 c 0,-0.12921 0.105717,-0.23492 0.234936,-0.23492 0.129211,0 0.234928,0.10571 0.234928,0.23492 0,0.12921 -0.105717,0.23493 -0.234928,0.23493 -0.129219,0 -0.234936,-0.10572 -0.234936,-0.23493 z m 1.763127,-0.468 c -0.0792,-0.12819 -0.05106,-0.39916 0.06251,-0.60217 0.184413,-0.32953 0.238319,-0.33083 0.502796,-0.0122 0.297224,0.35813 0.173634,0.84739 -0.21407,0.84739 -0.113956,0 -0.272016,-0.10488 -0.351245,-0.23307 z m 5.637179,-5.40525 c -0.07982,-0.12921 0.01962,-0.23494 0.221058,-0.23494 0.201444,0 0.366269,0.10573 0.366269,0.23494 0,0.12921 -0.09948,0.23493 -0.221066,0.23493 -0.121584,0 -0.286409,-0.10572 -0.366261,-0.23493 z m -2.466771,-0.23494 c 0,-0.12921 0.111958,-0.23492 0.248796,-0.23492 0.136839,0 0.183455,0.10571 0.103604,0.23492 -0.07982,0.12922 -0.191819,0.23494 -0.248797,0.23494 -0.05701,0 -0.103603,-0.10572 -0.103603,-0.23494 z m 72.828363,-4.93352 c 0,-0.12921 0.10572,-0.23493 0.23493,-0.23493 0.12921,0 0.23493,0.10572 0.23493,0.23493 0,0.12921 -0.10572,0.23493 -0.23493,0.23493 -0.12921,0 -0.23493,-0.10572 -0.23493,-0.23493 z m -28.46032,23.09045 c 2.70979,-2.10469 5.88818,-5.29714 7.02509,-7.05616 l 0.92379,-1.42927 -0.0452,-2.66264 c -0.0249,-1.46446 -0.12724,-3.20311 -0.22756,-3.86368 -0.30558,-2.01194 0.0952,-2.77652 1.95168,-3.72349 2.40796,-1.22827 2.9684,-1.71591 4.73542,-4.12028 2.24503,-3.0548 2.46976,-3.79847 2.11456,-6.99774 -0.42354,-3.81496 -1.1156,-5.04595 -2.96802,-5.27932 -1.39678,-0.17597 -2.7329,0.50286 -4.57529,2.32452 -1.18889,1.17549 -1.6853,1.51754 -2.11437,1.45687 -0.66273,-0.0937 -0.6706,-0.29246 -0.19688,-4.98057 0.30279,-2.99658 0.31089,-3.02379 0.9692,-3.25328 0.79485,-0.27708 0.79537,-0.28063 0.16724,-1.16275 l -0.49661,-0.69743 0.49661,-0.52863 c 0.27314,-0.29074 0.49662,-0.6011 0.49662,-0.68968 0,-0.27718 -0.82971,-0.17583 -1.28479,0.15693 -0.38422,0.28094 -0.64176,0.1913 -2.21056,-0.76941 -2.00306,-1.22666 -3.23521,-2.65049 -3.42624,-3.95923 -0.0702,-0.4814 -0.29467,-1.75785 -0.49867,-2.83657 l -0.37091,-1.96127 0.54635,-0.58157 c 0.46196,-0.49173 0.49214,-0.61269 0.19543,-0.78306 -0.193,-0.11082 -0.54293,-0.34458 -0.77761,-0.51947 -0.41231,-0.30726 -0.41231,-0.33095 0,-0.7026 0.38335,-0.34555 0.55621,-0.35093 1.70172,-0.053 0.70125,0.18241 1.32785,0.27881 1.39242,0.21423 0.2215,-0.22149 -0.78863,-0.81418 -2.01704,-1.18347 -0.67598,-0.20321 -1.28961,-0.46747 -1.36362,-0.58723 -0.074,-0.11977 -0.24069,-0.87661 -0.37037,-1.68189 -0.12969,-0.80528 -0.26755,-1.4959 -0.30637,-1.53472 -0.0388,-0.0388 -0.57005,0.1435 -1.1805,0.40517 -0.82263,0.35262 -1.62371,0.47577 -3.09489,0.47577 -2.37052,0 -3.12654,-0.27613 -5.13783,-1.87657 -0.8139,-0.64763 -1.598679,-1.17752 -1.74397,-1.17752 -0.145283,0 -0.440598,0.37001 -0.656257,0.82226 -0.247092,0.51815 -0.558958,0.82225 -0.843271,0.82225 -0.24814,0 -0.765268,0.26429 -1.149162,0.58733 -0.849354,0.71468 -2.05901,0.78028 -2.635797,0.14294 -0.226661,-0.25046 -0.590408,-0.39514 -0.833567,-0.33156 -0.331675,0.0868 -0.499093,-0.0923 -0.724165,-0.77422 -0.287696,-0.87171 -0.299293,-0.87862 -0.671156,-0.39968 -0.208121,0.26804 -0.790351,1.01669 -1.29384,1.66365 l -0.915433,1.17629 -2.580906,0.0883 -2.580896,0.0884 -0.926009,1.04349 c -1.118785,1.26071 -2.499553,4.05221 -3.456151,6.98726 -1.012181,3.1056 -1.101515,4.12114 -0.537772,6.1132 l 0.471142,1.66486 -0.584539,0.86022 c -0.690299,1.01586 -0.592068,1.93335 0.224335,2.09537 0.288762,0.0573 1.476486,0.27862 2.639384,0.4918 1.162907,0.21319 2.46623,0.59209 2.89627,0.84202 0.762284,0.44302 0.797632,0.44353 1.409581,0.0202 1.195618,-0.82717 1.201851,-0.82629 1.683853,0.23581 0.567473,1.25046 0.648052,5.26896 0.145371,7.24989 -0.179024,0.70551 -0.505567,2.49851 -0.725648,3.98444 -0.220072,1.48594 -0.615741,3.31134 -0.87925,4.05646 -0.547007,1.54676 -0.477393,2.47189 0.308101,4.09449 l 0.51536,1.0646 1.134023,-0.10897 c 0.870158,-0.0836 1.547591,-0.38836 2.911418,-1.30972 0.977561,-0.66042 2.169938,-1.27074 2.649737,-1.35627 1.927952,-0.3437 2.365176,-1.75475 0.643782,-2.07768 -0.455737,-0.0855 -0.828621,-0.24383 -0.828621,-0.35186 0,-0.10801 0.346184,-0.46044 0.769299,-0.78316 0.725532,-0.5534 0.815736,-0.56768 1.585781,-0.25114 0.919118,0.37782 3.753113,3.72597 3.753113,4.43403 0,0.36508 -0.10281,0.33133 -0.682455,-0.224 l -0.682459,-0.65383 -1.674716,0.77593 c -1.144287,0.53016 -1.652713,0.89075 -1.605253,1.13846 0.0923,0.48173 1.43359,0.92019 2.865112,0.9366 1.066114,0.0123 1.331116,0.14655 3.378371,1.71252 2.06289,1.57791 3.80478,3.56807 3.80478,4.34706 0,0.20301 -0.40689,0.2968 -1.28763,0.2968 -1.19809,0 -1.29855,0.0434 -1.44443,0.62467 -0.20668,0.82349 0.26057,2.62977 1.2058,4.66126 1.32985,2.85815 1.03799,2.78606 4.21443,1.04091 3.9949,-2.19481 5.59584,-3.77078 6.25475,-6.15716 0.12026,-0.43555 0.482,-1.0393 0.80387,-1.34168 0.56818,-0.53377 0.59898,-0.53734 1.05755,-0.12234 0.25977,0.23509 0.47231,0.55739 0.47231,0.71622 0,0.15883 -0.43769,1.1732 -0.97266,2.25415 -0.87953,1.7772 -1.32944,2.31545 -4.69861,5.62133 -2.04926,2.01076 -3.72593,3.82665 -3.72593,4.03531 0,0.3529 0.37244,0.55579 1.14089,0.62152 0.17525,0.015 1.23243,-0.6825 2.3493,-1.54997 z m -1.61074,-24.02949 c 0,-0.37669 1.5472,-1.98284 2.96008,-3.07287 1.05591,-0.81463 1.34621,-0.94286 1.51841,-0.67074 0.6571,1.03838 -0.1127,1.89962 -3.00237,3.35893 -1.36704,0.69037 -1.47612,0.7188 -1.47612,0.38468 z m 13.15608,-0.35435 c 0,-0.3491 -0.27344,-1.51175 -0.60763,-2.58366 l -0.60765,-1.94892 0.7934,-1.9589 c 0.60736,-1.49955 0.97835,-2.08354 1.58211,-2.49041 1.09889,-0.74055 1.36804,-0.6721 1.66289,0.4229 0.24044,0.89293 0.21795,0.98512 -0.34914,1.4312 l -0.60614,0.47679 0.49885,0.80716 c 0.43657,0.70637 0.4783,1.01176 0.33428,2.44589 -0.18422,1.8344 -0.7097,2.79997 -1.93744,3.56002 l -0.76353,0.47267 z m -25.163077,-3.28727 c -0.909697,-0.49443 -1.970146,-3.22534 -2.14402,-5.52134 -0.05594,-0.7389 -0.192005,-0.88764 -1.34217,-1.46731 -1.19029,-0.5999 -2.831371,-1.9394 -2.831371,-2.31106 0,-0.0892 0.713599,-0.28897 1.585781,-0.44388 2.304397,-0.40927 5.031162,-1.15742 5.623452,-1.54291 0.282547,-0.1839 0.969721,-0.43555 1.527045,-0.5592 1.86386,-0.41354 6.09918,0.64106 7.00404,1.74401 0.32717,0.3988 0.31037,0.41968 -0.23493,0.29167 -3.04814,-0.71559 -5.53531,-0.7478 -6.09047,-0.0789 -0.21402,0.25787 -0.0523,0.35043 0.84815,0.48546 1.80999,0.27142 3.38958,0.9811 4.88992,2.19693 1.59294,1.29087 2.23885,2.24198 1.81227,2.66856 -0.20221,0.20222 -0.57087,0.0579 -1.48273,-0.58044 l -1.21361,-0.84958 -0.78895,0.60176 c -0.5088,0.38809 -0.93578,0.54529 -1.20247,0.44274 -0.22744,-0.0875 -1.12665,-0.19669 -1.99826,-0.24274 -1.557087,-0.0822 -1.609306,-0.0656 -2.995348,0.95475 -0.775851,0.57114 -1.410638,1.18282 -1.410638,1.35928 0,0.41402 1.050655,1.46845 2.173108,2.18092 0.484541,0.30756 0.880991,0.66359 0.880991,0.79118 0,0.34863 -1.909111,0.26089 -2.60979,-0.11993 z m -0.344249,-6.84387 c 1.094936,-0.37308 2.94904,-0.35291 4.304876,0.0468 0.77481,0.22843 0.70609,-0.66834 -0.0912,-1.19076 -0.858,-0.56219 -2.114364,-0.68736 -3.666067,-0.36523 -1.15726,0.24025 -1.345855,0.36048 -1.568831,1.00011 -0.372751,1.06929 -0.474347,1.01866 1.021265,0.50905 z m -7.147966,-3.58223 c 0,-0.29613 0.689633,-0.82703 0.856954,-0.6597 0.240583,0.24058 -0.118458,0.86586 -0.497185,0.86586 -0.197874,0 -0.359769,-0.0928 -0.359769,-0.20616 z m 0.389799,-1.37783 c -0.0681,-0.11023 -0.03578,-0.34293 0.07183,-0.5171 0.238266,-0.38552 1.028075,-0.13639 0.889266,0.2805 -0.117561,0.35308 -0.787234,0.51794 -0.961117,0.2366 z m 4.308808,37.26854 c 1.646764,-0.98722 2.114372,-1.60746 2.114372,-2.8045 0,-0.89025 0.153717,-1.29823 0.815896,-2.16546 0.523796,-0.68599 0.864191,-1.43402 0.950817,-2.08942 0.07423,-0.56148 0.179193,-1.30684 0.233303,-1.65636 0.0911,-0.58848 -0.0444,-0.70724 -1.831808,-1.6061 -1.820495,-0.91548 -2.010289,-0.96181 -3.339771,-0.81534 -0.775265,0.0854 -2.146798,0.13943 -3.047847,0.12003 -1.635727,-0.0352 -1.637601,-0.0345 -1.203894,0.4447 0.376863,0.41644 0.764833,0.48878 2.930384,0.54637 2.322653,0.0618 2.44706,0.0886 1.791221,0.38696 -0.399336,0.18164 -1.901172,0.3738 -3.465217,0.44338 -2.113448,0.094 -2.760435,0.19782 -2.760435,0.44293 0,0.38908 0.835724,1.25987 1.209132,1.25987 0.148177,0 1.203396,0.55406 2.344931,1.23123 1.95355,1.15889 2.051613,1.2543 1.668757,1.62358 -0.223712,0.21578 -1.087948,0.56338 -1.920511,0.77245 -1.913319,0.48046 -3.154221,1.36654 -2.92574,2.08915 0.511241,1.6169 1.635984,2.25865 3.969638,2.26499 1.257959,0.004 1.837792,-0.11139 2.466772,-0.48846 z M 83.495999,145.48815 c 0.335769,-1.15277 0.855978,-2.50527 1.156017,-3.00557 0.452664,-0.75477 0.548702,-1.25465 0.564161,-2.93662 0.01598,-1.74378 -0.05523,-2.13056 -0.509954,-2.76807 -0.711654,-0.9977 -0.66122,-1.25441 0.408251,-2.07811 1.28647,-0.99083 1.31024,-1.21486 0.18951,-1.78662 -1.206105,-0.6153 -2.296273,-0.50822 -3.800489,0.37332 -0.992097,0.5814 -1.084743,0.71303 -1.084743,1.5411 v 0.90541 l -0.814707,-0.34041 c -1.170924,-0.48924 -1.236986,-0.45589 -1.495239,0.75498 -0.303502,1.42304 -0.08151,1.96322 1.366144,3.3245 l 1.170836,1.10098 -0.278658,0.99522 c -0.304567,1.08777 -0.02699,3.02776 0.689448,4.81827 0.342268,0.85539 1.037487,1.4045 1.594012,1.25899 0.129211,-0.0337 0.509651,-1.0046 0.845411,-2.15737 z m -0.544707,-14.66472 h 2.238886 l -0.447541,-0.50397 c -0.707454,-0.79665 -2.345436,-1.43316 -3.219554,-1.25109 -0.877217,0.18271 -2.748839,1.21116 -2.748839,1.51046 0,0.32286 0.526149,0.46962 1.262745,0.35224 0.371481,-0.0592 1.68292,-0.10764 2.914303,-0.10764 z m -3.754174,-2.63121 c 0.388245,-0.38826 0.353456,-0.58244 -0.12922,-0.72122 -0.226119,-0.065 -0.582239,-0.18905 -0.791381,-0.27562 -0.269689,-0.11164 -0.420814,-0.003 -0.519756,0.37607 -0.210926,0.80659 0.813162,1.24795 1.440357,0.62077 z m -36.12379,87.45686 c -0.205315,-0.38364 -0.07006,-0.61551 0.872724,-1.49603 2.53421,-2.36686 3.34754,-2.92486 3.34754,-2.29669 0,0.2901 -1.495443,2.26961 -2.542689,3.36575 -0.946715,0.99091 -1.324331,1.08701 -1.677575,0.42697 z m 8.48005,-1.59138 c -1.869411,-2.026 -2.242428,-2.65321 -1.577941,-2.65321 0.299142,0 4.156796,3.35177 4.313044,3.74744 0.03543,0.0898 -0.136554,0.34511 -0.382225,0.56743 -0.429703,0.38888 -0.519073,0.32577 -2.352878,-1.66166 z m 108.036432,1.22205 c -0.34327,-0.90289 -0.2894,-1.77761 0.2079,-3.37544 l 0.44242,-1.42148 -0.57555,-0.3771 c -0.52567,-0.34443 -0.70272,-0.34521 -2.0432,-0.009 -1.7509,0.4391 -3.23426,0.47439 -3.62249,0.0861 -0.47642,-0.47641 -0.32363,-1.32442 0.3139,-1.74215 0.59591,-0.39046 1.6214,-0.37994 4.27144,0.0439 0.79158,0.12658 0.94112,0.0737 1.20958,-0.42793 0.25642,-0.47913 0.24564,-0.77666 -0.0661,-1.82643 -0.54652,-1.84032 -0.49,-3.09078 0.16761,-3.70858 0.4858,-0.45638 0.58887,-0.47311 1.02651,-0.16657 0.6571,0.46025 0.84429,2.4139 0.38083,3.97456 -0.25569,0.861 -0.27958,1.29772 -0.0934,1.70645 0.28921,0.63476 0.56978,0.6564 2.49219,0.19222 1.83099,-0.44211 2.81512,-0.43565 3.27225,0.0215 0.42405,0.42406 0.49479,1.63983 0.10927,1.87809 -0.44241,0.27343 -2.28438,0.13756 -3.76425,-0.27768 -1.37429,-0.38559 -1.42513,-0.38361 -1.88254,0.0738 -0.45379,0.45379 -0.45687,0.51566 -0.0887,1.78216 0.21786,0.74939 0.35101,1.89797 0.31051,2.67833 l -0.0709,1.3663 -0.8814,0.0729 c -0.76662,0.0635 -0.91196,-0.007 -1.11593,-0.54388 z m -4.43156,-0.43058 c -0.26138,-0.31495 -0.23673,-0.47751 0.15602,-1.02907 0.60302,-0.84687 2.84457,-2.96647 3.51865,-3.32722 0.45856,-0.24543 0.52238,-0.22245 0.52238,0.18809 0,0.26503 -0.84197,1.35033 -1.94332,2.50494 -1.714,1.79687 -1.97995,1.99314 -2.25373,1.66326 z m 8.7479,-1.64198 c -1.84834,-1.85985 -2.45003,-2.74242 -1.86962,-2.74242 0.37014,0 2.61735,1.80451 3.75643,3.01642 0.57066,0.60714 0.63302,0.78434 0.38236,1.08636 -0.16473,0.19849 -0.36585,0.35279 -0.44694,0.34289 -0.0811,-0.01 -0.90109,-0.77637 -1.82223,-1.70325 z m -74.977638,-2.63828 c -0.597005,-0.41816 -0.6468,-0.90807 -0.177754,-1.74865 0.298991,-0.53581 0.277575,-0.64006 -0.244215,-1.18852 l -0.571948,-0.60118 0.681865,-0.65327 c 0.663617,-0.63578 0.69822,-0.64255 1.293076,-0.25278 0.633544,0.41511 0.810649,1.312 0.390279,1.97636 -0.139298,0.22014 -0.09713,0.50428 0.12106,0.8158 0.451403,0.64446 0.421276,1.16209 -0.09482,1.62915 -0.532329,0.48176 -0.737857,0.48515 -1.397541,0.0231 z m -42.987105,-2.20395 c -1.52051,-1.10145 -3.111486,-2.88288 -3.111486,-3.48395 0,-0.48733 0.05239,-0.5132 0.528591,-0.26099 0.836239,0.4429 3.93508,3.63716 3.93508,4.05625 0,0.53676 -0.266004,0.47552 -1.352185,-0.31131 z m 3.812679,0.44514 c -0.163662,-0.26481 0.38916,-1.03235 2.17698,-3.02251 1.025083,-1.1411 1.210224,-1.25343 1.81547,-1.10152 l 0.673979,0.16916 -2.090247,2.09998 c -1.149641,1.15498 -2.165507,2.09997 -2.257479,2.09997 -0.09198,0 -0.235397,-0.11029 -0.318703,-0.24508 z m 108.885534,-1.20179 c -0.44625,-0.26936 -1.58213,-1.17742 -2.52417,-2.01788 -1.6494,-1.47155 -1.69777,-1.54473 -1.30687,-1.97667 0.39462,-0.43605 0.44775,-0.40741 1.90687,1.02813 1.65258,1.62585 2.98578,3.20596 2.83349,3.35824 -0.0539,0.0539 -0.46305,-0.12245 -0.90932,-0.39182 z m 2.83005,0.37326 c 0,-0.54936 3.62393,-4.56471 4.11975,-4.56471 0.15751,0 0.40133,0.1385 0.54181,0.30776 0.1964,0.23665 -0.13621,0.69242 -1.43954,1.97255 -1.49852,1.47182 -3.22202,2.69378 -3.22202,2.2844 z M 28.322973,186.01722 c -1.453632,-0.77887 -2.642972,-1.56359 -2.642972,-1.74384 0,-0.5451 1.199356,-3.73874 1.536945,-4.09256 0.263927,-0.27663 0.594395,-0.28425 2.032097,-0.0469 0.944291,0.15591 1.803509,0.37004 1.909368,0.47583 0.105858,0.10579 -0.236588,0.89334 -0.760996,1.75011 -0.5244,0.85677 -0.851627,1.55776 -0.727176,1.55776 0.309203,0 3.593363,-1.31376 4.716428,-1.8867 1.098603,-0.56047 2.39255,-1.66791 3.084972,-2.64032 l 0.507867,-0.71324 -0.687619,0.16983 c -0.378194,0.0934 -1.519861,0.5442 -2.537042,1.00175 -1.487843,0.66928 -1.888821,0.76941 -2.050903,0.51213 -0.537363,-0.85297 -1.430722,-3.26985 -1.317601,-3.56464 0.134672,-0.35096 3.930756,-2.0392 4.595351,-2.04372 0.213208,-0.002 1.682698,0.4371 3.26554,0.97456 l 2.877899,0.97719 v 1.58031 c 0,0.86917 -0.06313,1.89605 -0.140337,2.28196 -0.197696,0.98849 -1.657738,2.82284 -2.955157,3.71276 -1.386699,0.95116 -6.593617,3.16345 -7.432644,3.15796 -0.347081,-0.003 -1.820389,-0.6414 -3.27402,-1.42026 z m 152.645897,-1.74819 c -0.96908,-0.16788 -4.03492,-0.6887 -6.81297,-1.15737 -6.4846,-1.09398 -8.69242,-1.55841 -8.69242,-1.82856 0,-0.34017 1.43228,-3.69486 1.62957,-3.8168 0.0971,-0.06 0.53659,-0.0178 0.97671,0.0936 2.2669,0.57415 2.31339,0.56557 2.80491,-0.51722 0.67728,-1.49199 0.60839,-1.67398 -0.94751,-2.50327 -0.77528,-0.41321 -1.40958,-0.77913 -1.40958,-0.81313 0,-0.23932 0.80418,-2.4182 0.95331,-2.58293 0.10234,-0.11306 2.81054,1.42915 6.01823,3.42711 3.20769,1.99797 6.45069,3.99341 7.20669,4.4343 l 1.37454,0.80163 -0.1405,1.52704 c -0.17981,1.95425 -0.5563,3.29563 -0.91638,3.26494 -0.15544,-0.0132 -1.07551,-0.16144 -2.0446,-0.32933 z m -4.1022,-5.63545 c -0.38265,-0.31271 -1.19719,-0.8415 -1.81009,-1.17508 l -1.11436,-0.60652 -0.38034,0.73551 c -0.20919,0.40453 -0.3214,0.79444 -0.24936,0.86649 0.25691,0.25691 2.3865,0.73348 3.31015,0.74076 l 0.93972,0.007 -0.69572,-0.56857 z m -154.630815,-3.05544 -0.486201,-1.99639 0.966719,-0.24773 c 2.445035,-0.62655 3.276098,-0.92051 3.994891,-1.41303 0.771145,-0.52841 1.611886,-1.58481 1.930012,-2.42511 0.15528,-0.41015 0.08133,-0.43072 -0.98557,-0.27398 -0.634396,0.0932 -2.142919,0.4249 -3.352273,0.73709 -1.209354,0.31221 -2.447468,0.56764 -2.751369,0.56764 -0.556392,0 -0.619808,-0.13072 -1.11116,-2.29042 -0.135302,-0.59469 -0.261689,-0.54838 5.357768,-1.96321 l 3.055298,-0.76924 1.656984,0.98439 c 0.911331,0.54141 1.862254,0.9843 2.113164,0.98418 0.25091,-1.1e-4 1.592201,-0.30507 2.980649,-0.67768 l 2.524443,-0.67747 0.359174,1.20627 c 0.197546,0.66345 0.420628,1.58812 0.495747,2.05482 l 0.13658,0.84855 -1.845543,0.49142 c -1.015059,0.27029 -2.562535,0.6686 -3.438855,0.88515 -1.581607,0.39083 -1.597643,0.40291 -2.18545,1.64543 -0.55775,1.17899 -1.604525,2.23269 -2.886636,2.90572 -0.830583,0.43601 -4.505785,1.41373 -5.326725,1.41708 -0.70353,0.003 -0.723562,-0.0304 -1.201647,-1.99348 z m 158.011905,-4.72517 c -0.20279,-0.0602 -0.59867,-0.58287 -0.87974,-1.16138 l -0.51103,-1.05187 -0.88224,0.555 c -1.57312,0.98961 -2.41023,1.14963 -4.56734,0.87312 -3.70823,-0.47537 -3.48025,-0.38237 -3.48025,-1.41973 0,-0.50464 0.11451,-1.4515 0.25449,-2.10417 0.30719,-1.43238 0.82146,-1.6586 2.48334,-1.09234 1.52178,0.51852 2.96185,0.47453 4.13992,-0.12648 1.2354,-0.63025 1.09695,-0.69255 -2.82241,-1.27 -3.2363,-0.47681 -3.28389,-0.51485 -3.00136,-2.39884 0.263,-1.75386 0.49857,-2.17137 1.22515,-2.17137 0.59963,0 6.46564,0.93842 11.11189,1.77762 1.1455,0.2069 2.16897,0.53087 2.40046,0.75984 0.22197,0.21954 0.92285,1.18837 1.55754,2.15295 1.12885,1.71564 1.14734,1.77254 0.84971,2.61612 -0.408,1.15639 -1.30191,2.52359 -2.21176,3.3828 -0.71503,0.67521 -0.84183,0.70654 -3.02199,0.74652 -1.25161,0.0229 -2.44158,-0.007 -2.64438,-0.0677 z m 4.34323,-4.34693 c 0.34725,-0.27316 0.57865,-0.54937 0.51421,-0.61381 -0.22006,-0.22007 -3.07709,-0.75247 -4.08237,-0.76074 l -1.00323,-0.008 0.47942,0.93971 0.47941,0.93972 h 1.49058 c 1.16166,0 1.62992,-0.1096 2.12198,-0.49663 z M 35.997364,161.97695 c -0.05381,-0.0508 -1.366508,-0.15366 -2.917048,-0.22871 -2.480863,-0.12007 -5.015543,-0.29117 -11.317068,-0.76392 l -1.684919,-0.12641 -0.144936,-1.68492 c -0.07974,-0.9267 -0.05399,-2.00194 0.05718,-2.38941 0.198451,-0.69154 0.255918,-0.71454 3.121973,-1.25 1.605892,-0.30002 3.001586,-0.62508 3.10154,-0.72236 0.09995,-0.0973 -1.13666,-0.41582 -2.748013,-0.70788 -1.611362,-0.29206 -3.050947,-0.67705 -3.19908,-0.85554 -0.427909,-0.51559 -0.420175,-3.83226 0.0096,-4.10452 0.480439,-0.30436 1.167454,-0.39147 5.520853,-0.70001 2.067392,-0.14652 4.498931,-0.35993 5.403407,-0.47425 0.904485,-0.11432 2.728123,-0.27723 4.052544,-0.36201 l 2.408035,-0.15415 v 2.12584 c 0,1.29119 -0.101348,2.18849 -0.258129,2.28539 -0.14197,0.0877 -1.507173,0.25259 -3.033791,0.36632 -3.932541,0.29298 -4.367127,0.51267 -1.994005,1.00802 1.033687,0.21577 2.619468,0.57303 3.523953,0.79392 l 1.644509,0.40164 0.07077,0.96791 c 0.08125,1.11185 0.491573,0.90475 -3.9266,1.98196 -2.623597,0.63966 -4.064451,1.12692 -3.426983,1.1589 1.296557,0.0651 7.008287,0.72767 7.178351,0.83278 0.122072,0.0755 0.221946,0.71239 0.221946,1.41542 v 1.27825 h -0.783097 c -0.430706,0 -0.827155,-0.0416 -0.88099,-0.0923 z m 135.653696,-5.31081 c -0.76704,-0.30931 -0.85273,-0.92691 -0.6699,-4.82812 l 0.16797,-3.58381 0.73986,-0.0817 c 0.40692,-0.0449 3.61079,-0.0464 7.1197,-0.004 l 6.37983,0.0784 1.60779,1.88007 c 0.88429,1.03404 1.6865,2.21452 1.7827,2.6233 0.0962,0.40877 0.1102,1.50968 0.0312,2.44647 l -0.14378,1.70324 -1.20577,-0.004 c -2.24281,-0.006 -2.26298,-0.0251 -2.26298,-2.14595 0,-2.08599 0.10205,-1.97726 -2.03842,-2.17183 l -1.4511,-0.1319 -0.16498,2.10897 -0.16498,2.10897 h -0.89415 c -0.49178,0 -1.17181,-0.10557 -1.5112,-0.2346 -0.57895,-0.22012 -0.60812,-0.30354 -0.47232,-1.35086 0.0796,-0.61393 0.19173,-1.34572 0.24917,-1.62621 0.11257,-0.54964 -0.027,-0.60522 -2.3032,-0.91738 l -1.11592,-0.15305 v 0.81448 c 0,0.44795 -0.0679,1.46429 -0.15093,2.25851 l -0.15093,1.44404 -1.43485,-0.0149 c -0.78916,-0.008 -1.66341,-0.10706 -1.94278,-0.21971 z m -1.13445,-10.63091 c -0.23947,-0.69905 -1.29141,-7.30524 -1.18086,-7.41579 0.15088,-0.15089 14.58488,-3.01935 16.23935,-3.22724 l 1.19974,-0.15075 0.25116,1.02131 c 0.13813,0.56173 0.32087,1.50355 0.40606,2.09293 l 0.15492,1.0716 -1.84074,0.38829 c -2.14982,0.45349 -7.9301,1.48132 -9.51549,1.692 -1.58725,0.21093 -1.73987,0.49276 -1.37519,2.53954 0.16604,0.93194 0.35216,1.82659 0.41358,1.98811 0.0848,0.22296 -0.46174,0.29366 -2.27013,0.29366 -1.69518,0 -2.41081,-0.0846 -2.4824,-0.29366 z M 30.629882,143.72007 c -4.061183,-0.89452 -7.426837,-1.66927 -7.479233,-1.72166 -0.05239,-0.0524 -0.401076,-1.13456 -0.77484,-2.4048 -0.587087,-1.99519 -0.632815,-2.34464 -0.336044,-2.56755 0.188942,-0.14191 1.693176,-0.38529 3.342737,-0.54084 3.473954,-0.32759 4.329186,-0.47685 4.173719,-0.72841 -0.06171,-0.0998 -0.509758,-0.25208 -0.995728,-0.33844 -0.485971,-0.0864 -2.029664,-0.427 -3.430428,-0.75701 l -2.546845,-0.60003 0.154162,-0.82174 c 0.395952,-2.11061 0.658068,-2.24445 3.143645,-1.60519 0.729316,0.18758 4.339016,0.94086 8.021543,1.67397 3.682528,0.73311 6.735508,1.36848 6.784397,1.41194 0.08222,0.0731 -0.127506,1.03914 -0.69394,3.19567 -0.125224,0.47675 -0.410328,0.92383 -0.63357,0.9935 -0.223242,0.0697 -2.122062,0.34312 -4.219616,0.60763 -2.097546,0.26451 -4.053343,0.57118 -4.346208,0.68149 -0.487,0.18342 -0.452211,0.2215 0.407238,0.44577 0.516844,0.13487 1.574034,0.36707 2.3493,0.516 0.775274,0.14894 2.337631,0.48369 3.471903,0.7439 l 2.062321,0.47309 -0.16075,0.85985 c -0.270764,1.44831 -0.455763,2.00156 -0.687671,2.05656 -0.12217,0.029 -3.544908,-0.67919 -7.606092,-1.5737 z M 176.06937,132.82918 c -1.05452,-0.70583 -2.37959,-1.55425 -2.94459,-1.88535 l -1.02726,-0.60202 -2.31463,0.83787 c -2.1843,0.79068 -2.33182,0.81435 -2.6199,0.42038 -0.29694,-0.40609 -1.29859,-3.37909 -1.17431,-3.4855 0.1013,-0.0867 8.8087,-3.29558 11.13206,-4.10238 l 2.14257,-0.74402 1.49885,0.7429 c 0.82435,0.40859 2.00079,1.07779 2.6143,1.4871 l 1.11546,0.7442 4.7e-4,1.65725 c 4.7e-4,1.42487 -0.0949,1.80762 -0.67963,2.72963 -0.37404,0.58981 -1.03556,1.34351 -1.47002,1.6749 -1.00603,0.76733 -3.22163,1.8031 -3.86339,1.80609 -0.27095,8.9e-4 -1.35543,-0.57521 -2.40996,-1.28105 z m 2.68387,-3.08071 c 1.06313,-0.50294 2.45057,-1.78506 2.45057,-2.26457 0,-0.18354 -2.09162,0.22909 -3.17156,0.62568 -0.51685,0.1898 -1.24678,0.45881 -1.62208,0.59778 l -0.68236,0.25267 0.66758,0.69681 c 0.36717,0.38324 0.76007,0.6968 0.87311,0.6968 0.11303,0 0.78117,-0.27233 1.48474,-0.60517 z M 34.54185,128.50058 c -3.589349,-2.42162 -6.695302,-4.57213 -6.9021,-4.77892 -0.343112,-0.34312 -0.34424,-0.56438 -0.01279,-2.52989 0.199738,-1.18463 0.426408,-2.21711 0.503693,-2.29441 0.206008,-0.206 17.139975,3.48172 17.460685,3.80244 0.07237,0.0724 -0.228641,0.98433 -0.668865,2.02663 l -0.800411,1.8951 -1.057182,-0.17504 c -0.581449,-0.0963 -1.412103,-0.18159 -1.84589,-0.18959 -0.724431,-0.0133 -0.823843,0.0744 -1.219938,1.07714 -0.498135,1.26106 -0.486539,1.27988 1.480047,2.40243 0.613761,0.35034 1.115918,0.6975 1.115918,0.77148 0,0.257 -1.250155,2.42982 -1.388183,2.41274 -0.07636,-0.01 -3.075604,-1.99851 -6.664953,-4.42011 z m 3.016095,-2.16774 c 0.20813,-0.40249 0.290139,-0.8151 0.182229,-0.91693 -0.216023,-0.20386 -3.566857,-1.17045 -4.057552,-1.17045 -0.51489,0 0.170899,0.66198 1.858854,1.79435 0.840199,0.56364 1.552475,1.02481 1.582842,1.02481 0.03037,0 0.225498,-0.3293 0.433627,-0.73178 z M 163.34558,123.5994 c -0.68865,-1.25982 -1.5994,-2.89646 -2.02389,-3.637 l -0.7718,-1.34641 0.98848,-0.67501 c 0.86365,-0.58976 5.31107,-3.0943 10.01035,-5.63725 l 1.5041,-0.81393 1.54999,0.50748 c 2.84357,0.931 3.76299,1.59429 4.76595,3.43829 0.49195,0.90449 0.86822,1.77763 0.83616,1.94033 -0.0321,0.16271 -0.71041,0.60344 -1.50744,0.97941 -1.67956,0.79229 -1.62277,0.82075 -2.89045,-1.44855 -0.68942,-1.23414 -0.7959,-1.326 -1.2608,-1.08777 -0.93633,0.47982 -2.50386,1.49472 -2.50428,1.62141 -2.3e-4,0.069 0.3696,0.69971 0.82184,1.40166 1.03108,1.60042 1.05427,2.21726 0.10186,2.70976 -1.18258,0.61154 -1.89639,0.38009 -2.56864,-0.83286 -1.18512,-2.13835 -0.91613,-2.01416 -2.5625,-1.18307 l -1.46192,0.73797 1.05146,1.94469 1.05148,1.94468 -1.74484,0.86337 c -0.95966,0.47485 -1.83218,0.86337 -1.93893,0.86337 -0.10674,0 -0.75752,-1.03076 -1.44618,-2.29057 z M 43.265795,120.30096 c -0.65615,-1.67013 -1.3756,-3.59345 -1.3756,-3.67743 0,-0.10817 0.829863,-0.27472 2.391502,-0.47997 1.262523,-0.16593 2.543968,-1.0006 2.033242,-1.32434 -0.509989,-0.32328 -2.053158,-0.22663 -4.295374,0.26904 -2.963787,0.65518 -4.372765,0.61399 -5.813104,-0.16994 -1.37766,-0.74982 -1.747721,-1.38007 -2.200847,-3.74837 -0.5694,-2.97597 -0.5198,-3.21742 0.831711,-4.04901 1.154356,-0.71029 2.843527,-1.49951 2.95212,-1.37932 0.270391,0.29929 1.75145,3.34798 1.75145,3.60529 0,0.22483 -0.285956,0.33874 -0.88099,0.35093 -1.111922,0.0228 -2.695652,0.49242 -2.809182,0.83301 -0.0475,0.14259 0.214425,0.38387 0.582132,0.53618 0.559216,0.23163 1.219912,0.16005 4.039794,-0.43769 1.854183,-0.39304 3.674705,-0.71462 4.0456,-0.71462 0.866801,0 3.388234,1.26876 3.707692,1.86567 0.134884,0.25204 0.517216,1.58681 0.84962,2.96614 l 0.604375,2.5079 -0.782049,0.81382 c -0.979302,1.01908 -2.311429,1.81292 -4.040495,2.40781 l -1.341477,0.46153 z m 115.158445,-4.92157 -1.21871,-1.57866 1.25108,-1.15449 c 3.32609,-3.06935 3.46597,-3.22452 3.61285,-4.00749 0.32762,-1.74636 0.11835,-1.73434 -2.12683,0.12212 -1.16291,0.96156 -2.55117,2.08925 -3.08502,2.50597 l -0.97064,0.75768 -0.93691,-1.01643 c -0.5153,-0.55904 -1.12178,-1.29856 -1.34772,-1.6434 -0.51179,-0.78109 -0.5149,-0.77707 2.43251,-3.15205 1.24143,-1.00033 3.79144,-3.08868 5.66669,-4.64079 1.87525,-1.55211 3.77227,-3.079425 4.2156,-3.394044 l 0.80606,-0.572019 1.36705,1.509562 c 0.75187,0.830263 1.36705,1.580421 1.36705,1.667011 0,0.0866 -1.24219,1.1989 -2.76043,2.4718 -2.50422,2.09954 -2.70191,2.32112 -2.12997,2.38719 0.89347,0.10321 2.02337,-0.55217 2.58082,-1.497 0.45553,-0.77206 0.53638,-0.80767 1.83356,-0.80767 0.74635,0 1.68738,0.0661 2.09116,0.14682 0.68178,0.13636 0.73415,0.21692 0.73415,1.12902 0,1.18116 -0.73648,2.28861 -2.15598,3.24195 -0.9766,0.6559 -1.46003,0.76031 -3.07121,0.6633 l -0.88098,-0.053 v 1.10062 c 0,0.60533 -0.17681,1.4866 -0.3929,1.95838 -0.42103,0.91917 -3.80954,4.3495 -4.96422,5.02547 l -0.69836,0.40884 z M 51.730777,111.84693 c -0.72524,-0.61047 -2.311012,-2.02285 -3.523953,-3.13861 -1.212942,-1.11576 -3.498976,-3.21287 -5.080078,-4.66024 -3.278699,-3.00138 -3.20462,-2.69644 -1.194188,-4.915532 l 1.099544,-1.213661 0.897364,0.761796 c 0.493544,0.418994 1.690245,1.517457 2.659336,2.441027 0.96909,0.92358 2.872021,2.66317 4.228744,3.86577 2.993471,2.65341 5.168461,4.73877 5.168461,4.95546 0,0.29781 -2.42099,3.02592 -2.679936,3.01991 -0.14118,-0.004 -0.850064,-0.50545 -1.575294,-1.11592 z m 5.429884,-6.02727 c -1.764902,-0.49109 -2.91338,-1.21059 -4.247896,-2.66123 -1.869482,-2.03213 -6.844722,-8.475488 -6.880506,-8.910829 -0.01696,-0.205981 0.638951,-0.905054 1.457521,-1.553497 l 1.488295,-1.178987 0.577152,0.683587 c 0.317433,0.375966 1.769129,2.163634 3.225992,3.972604 1.456863,1.808962 3.030382,3.622478 3.496694,4.030042 0.795314,0.69512 2.16992,1.22168 2.452218,0.93937 0.199082,-0.19908 -1.301982,-2.198907 -6.337255,-8.443019 -2.115739,-2.62366 -2.124086,-2.403223 0.154783,-4.085699 l 1.377714,-1.017154 2.937132,3.700899 c 4.216668,5.313166 6.942359,8.766383 7.540856,9.553593 l 0.520191,0.68423 -0.533688,0.57411 c -0.29353,0.31577 -0.996847,0.89466 -1.562935,1.28642 -1.003657,0.6946 -1.045816,0.70251 -1.696443,0.31817 -0.747242,-0.44141 -0.695485,-0.5199 -1.030304,1.56258 -0.134911,0.83909 -0.183046,0.87999 -1.011995,0.85998 -0.478689,-0.0115 -1.346077,-0.15338 -1.927526,-0.31517 z m 8.494648,-7.716084 c -1.218127,-2.9263 -5.440558,-14.525951 -5.440558,-14.946064 0,-0.26754 0.619692,-0.702748 1.865575,-1.310186 2.214539,-1.079709 1.988447,-1.183312 4.134349,1.894539 1.417963,2.033784 1.987709,2.697765 1.987709,2.316481 0,-0.08586 -0.152155,-0.752863 -0.338122,-1.482178 -0.185958,-0.729315 -0.492567,-2.156752 -0.681349,-3.172095 l -0.343245,-1.846067 1.498453,-0.679432 c 2.54269,-1.152908 2.048763,-1.652056 6.747122,6.818405 2.287366,4.1238 4.158855,7.592177 4.158855,7.707501 0,0.259772 -2.87432,1.709638 -3.389299,1.709638 -0.408774,0 -1.303909,-1.316917 -3.093025,-4.550421 -0.634103,-1.146019 -1.184315,-1.926869 -1.2227,-1.735237 -0.06136,0.306281 1.370282,6.361611 1.718739,7.269683 0.09083,0.236703 -0.16455,0.479373 -0.811537,0.771119 -1.18237,0.533172 -1.088072,0.607039 -3.847726,-3.013858 -1.174663,-1.541252 -2.169202,-2.701939 -2.210073,-2.579316 -0.04084,0.122631 0.498881,1.74995 1.199454,3.61628 0.700582,1.866321 1.223668,3.474611 1.162418,3.573978 -0.06127,0.09936 -0.623714,0.440287 -1.249923,0.757614 l -1.13856,0.576956 z M 138.9751,97.439843 c -1.11262,-0.621894 -1.70325,-1.095984 -1.70325,-1.367165 0,-0.22833 0.20383,-1.007565 0.45294,-1.731632 l 0.45294,-1.316482 -1.09899,-0.633269 c -0.60445,-0.348297 -1.16642,-0.669939 -1.24881,-0.714753 -0.0824,-0.04484 -0.58799,0.498863 -1.12353,1.208182 -0.53555,0.709319 -1.14091,1.289676 -1.34524,1.289676 -0.56623,0 -2.19749,-0.986201 -2.19749,-1.328514 0,-0.166246 0.92504,-1.402762 2.05564,-2.747817 1.1306,-1.345047 3.48284,-4.14202 5.2272,-6.215495 1.74435,-2.073474 3.3614,-3.839131 3.59343,-3.923679 0.23204,-0.08453 1.31378,0.08187 2.40386,0.369856 2.33682,0.617322 2.28584,-0.08506 0.42512,5.858016 -2.55463,8.159278 -3.89785,12.21627 -4.04283,12.210739 -0.0812,-0.0027 -0.9142,-0.434045 -1.85099,-0.957663 z m 0.4771,-8.14025 c 0.4345,-1.087762 1.11052,-3.344725 1.10346,-3.684055 -0.003,-0.138063 -0.18789,-0.02442 -0.41113,0.252579 -0.22325,0.276989 -0.96032,1.198975 -1.63792,2.048861 l -1.23201,1.545247 0.64468,0.349772 c 0.95633,0.51885 1.14635,0.455337 1.53292,-0.512404 z m -12.58243,2.771232 c -2.16506,-0.69196 -2.04921,-0.363561 -2.04921,-5.809224 0,-2.640636 -0.09,-4.745516 -0.20009,-4.67751 -0.26141,0.161567 -0.72832,1.445747 -1.90834,5.248739 -0.95862,3.089438 -0.97118,3.112826 -1.67222,3.112826 -0.3885,0 -1.03034,-0.167542 -1.42632,-0.372307 -0.65693,-0.339711 -0.70739,-0.4477 -0.57633,-1.23339 0.079,-0.473584 1.12185,-3.821195 2.31742,-7.439117 l 2.17376,-6.578043 2.46676,-0.481922 c 1.68535,-0.32926 2.52145,-0.403686 2.63938,-0.234936 0.0949,0.135844 0.17422,1.971159 0.17619,4.078472 0.003,2.413771 0.0879,3.779391 0.23141,3.690687 0.1253,-0.07743 0.6732,-1.537309 1.21756,-3.24415 0.54437,-1.70685 1.01816,-3.142261 1.05287,-3.189809 0.10434,-0.142929 2.44833,0.75764 2.65182,1.018841 0.19833,0.254577 -0.48649,2.602127 -3.29505,11.295483 -1.27764,3.95465 -1.79638,5.271257 -2.07318,5.261791 -0.20303,-0.0071 -0.97993,-0.207845 -1.72643,-0.446431 z m -14.50052,-3.276373 c -1.03926,-0.138525 -1.06033,-0.158832 -1.24298,-1.198104 -0.51205,-2.913487 -0.36579,-2.693636 -1.84378,-2.771374 l -1.32479,-0.0697 -0.2815,1.244329 c -0.52051,2.300836 -0.37622,2.142555 -1.81769,1.993783 -0.71028,-0.07334 -1.34567,-0.187539 -1.41199,-0.253858 -0.18537,-0.185372 4.34609,-15.172333 4.8732,-16.117148 0.2632,-0.471799 4.25925,-1.029487 4.50679,-0.62897 0.0922,0.149171 0.22158,0.800722 0.28753,1.447895 0.44877,4.403798 1.3093,14.786654 1.3093,15.797583 0,0.751292 -0.0205,0.766298 -0.99844,0.73174 -0.54916,-0.01945 -1.47419,-0.0987 -2.05565,-0.1762 z m -1.74506,-7.658683 c -0.0739,-0.71066 -0.20173,-1.899991 -0.28404,-2.642963 l -0.14967,-1.350845 -0.30776,0.704791 c -0.16928,0.387633 -0.48522,1.483235 -0.7021,2.434664 -0.43841,1.923228 -0.34755,2.13602 0.91497,2.142874 l 0.66296,0.0036 z m -14.667404,6.375418 c -0.147164,-0.584441 -0.267567,-1.587965 -0.267567,-2.23005 v -1.167436 l 0.998445,-0.165216 c 0.549155,-0.09087 1.059259,-0.200698 1.13357,-0.244055 0.07432,-0.04333 0.05319,-0.797632 -0.04697,-1.676145 -0.850642,-7.46184 -1.189802,-11.396405 -0.998827,-11.58738 0.120225,-0.120225 1.14077,-0.289481 2.267885,-0.376116 l 2.049288,-0.157518 v 0.826889 c 0,0.454787 0.2643,3.137369 0.58732,5.96129 0.78881,6.895716 0.78086,7.2133 -0.21736,8.695576 -1.46141,2.170072 -2.307938,2.909713 -3.334326,2.913327 -0.501589,0.0018 -1.135159,0.06313 -1.407939,0.136332 -0.427527,0.114756 -0.532861,-0.0135 -0.763519,-0.929498 z"
       id="path15499" />
  </g>
</svg>
