<?xml version="1.0" encoding="UTF-8" standalone="no"?>
<!-- Created with Inkscape (http://www.inkscape.org/) -->

<svg
   width="190.30246mm"
   height="193.4801mm"
   viewBox="0 0 190.30246 193.4801"
   version="1.1"
   id="svg5"
   xmlns="http://www.w3.org/2000/svg"
   xmlns:svg="http://www.w3.org/2000/svg">
  <defs
     id="defs2" />
  <g
     id="layer2"
     transform="translate(-9.2229923,-59.065135)">
    <path
       style="display:inline;fill:#000000;stroke-width:0.243774"
       d="m 98.069611,244.72179 c -0.25185,-0.15948 -0.29597,-0.48955 -0.17041,-1.27478 0.17714,-1.10775 2.372989,-11.27647 3.450869,-15.98062 l 0.62548,-2.72972 1.38601,-0.41605 c 0.76231,-0.22881 2.00536,-0.4663 2.76232,-0.52774 1.35116,-0.10966 1.37908,-0.099 1.52851,0.58614 0.50496,2.3151 3.49039,20.22929 3.39655,20.38113 -0.14634,0.23678 -4.50777,0.23475 -4.8645,-0.002 -0.14825,-0.0985 -0.34692,-0.6179 -0.44148,-1.1542 -0.0946,-0.5363 -0.27917,-1.38646 -0.41022,-1.88924 l -0.23829,-0.91416 h -1.56574 -1.56574 l -0.2301,0.91416 c -0.12656,0.50278 -0.3054,1.35269 -0.39743,1.88868 -0.092,0.536 -0.29438,1.05539 -0.44967,1.1542 -0.39364,0.25048 -2.404549,0.22509 -2.816159,-0.0356 z m 6.611479,-7.82189 c -0.18227,-1.67059 -0.87979,-5.36303 -1.01311,-5.36303 -0.20246,0 -1.43017,5.81918 -1.26297,5.98636 0.0718,0.0718 0.62818,0.098 1.23651,0.0583 1.01901,-0.0665 1.10082,-0.12015 1.03957,-0.68162 z m -19.389895,6.22489 c -1.047557,-0.3122 -1.963823,-0.6268 -2.03613,-0.69912 -0.07233,-0.0723 0.162922,-1.36276 0.522756,-2.86765 0.688185,-2.87812 0.677451,-3.80747 -0.06016,-5.20932 l -0.389244,-0.73975 -0.329889,1.09699 c -0.181442,0.60333 -0.660415,2.35021 -1.064382,3.88193 -0.828488,3.14138 -0.847928,3.18751 -1.343062,3.18751 -0.688351,0 -4.243144,-1.28511 -4.243144,-1.53396 0,-0.68456 3.990693,-15.48679 4.309177,-15.98356 0.218876,-0.34139 1.421377,-1.06797 2.958053,-1.78734 l 2.589263,-1.21213 0.86139,0.40739 c 1.56122,0.73839 3.379902,2.31901 3.896752,3.38669 0.627219,1.29566 0.655883,3.89322 0.0621,5.62622 -0.378399,1.10437 -0.525917,1.25753 -1.634809,1.69736 -0.670375,0.26589 -1.247869,0.49825 -1.283322,0.51634 -0.03547,0.018 0.210934,0.6344 0.547513,1.36958 0.996625,2.17693 1.013983,3.10854 0.120807,6.48421 -0.605023,2.28659 -0.880258,2.97555 -1.18365,2.96283 -0.217421,-0.009 -1.252411,-0.27201 -2.299969,-0.58422 z m 0.128556,-12.42093 c 0.510429,-0.1134 0.716986,-0.35536 0.903809,-1.05869 0.4243,-1.59745 0.386387,-2.89696 -0.111493,-3.82147 -0.74341,-1.38043 -0.687438,-1.46599 -1.820792,2.78299 -0.598565,2.24398 -0.605236,2.50771 -0.0598,2.35983 0.234631,-0.0636 0.724339,-0.18181 1.088245,-0.26266 z m 34.634649,11.03418 c -1.41149,-5.20815 -4.51924,-18.46811 -4.40076,-18.77688 0.1657,-0.43179 4.25788,-1.3532 4.55922,-1.02657 0.11009,0.11934 0.65316,1.96417 1.20683,4.09962 0.55366,2.13545 1.0505,3.92649 1.1041,3.98009 0.0536,0.0536 0.5361,-0.10296 1.07221,-0.34792 l 0.97477,-0.44537 -0.70775,-2.87717 c -0.38926,-1.58244 -0.80081,-3.47055 -0.91454,-4.19578 l -0.20677,-1.31862 1.36333,-0.27432 c 0.74983,-0.15087 1.77535,-0.36295 2.27891,-0.47127 0.50358,-0.10833 0.96882,-0.11081 1.0339,-0.006 0.29136,0.47144 4.75432,19.31638 4.75432,20.07523 0,0.35762 -3.08235,1.38018 -4.15629,1.37884 -0.67708,-7.3e-4 -0.62809,0.14333 -1.9473,-5.72946 -0.65195,-2.90239 -0.67538,-2.93404 -1.78123,-2.40669 -0.49008,0.2337 -0.89105,0.56124 -0.89105,0.72786 0,0.27432 1.60231,7.11705 1.83276,7.82691 0.0904,0.2783 -2.03035,1.0462 -3.94911,1.42995 -0.73998,0.148 -0.74029,0.14759 -1.22555,-1.64291 z m 20.96842,-6.00871 c -0.20752,-0.49584 -0.8109,-2.27274 -1.34083,-3.94868 -0.52994,-1.67595 -1.61473,-4.99331 -2.41067,-7.37191 -0.79593,-2.37859 -1.60044,-4.98186 -1.78781,-5.78504 l -0.34067,-1.46031 1.96714,-1.71102 c 1.08193,-0.94106 2.03964,-1.71101 2.12825,-1.71101 0.24277,0 6.05318,6.69677 9.54274,10.99846 0.71972,0.88723 2.00896,2.41554 2.86495,3.39624 l 1.55638,1.78308 -0.58127,0.47843 c -0.3197,0.26314 -1.39264,0.86633 -2.38431,1.34042 l -1.80304,0.86199 -0.51281,-0.60134 c -0.28206,-0.33075 -0.84784,-1.02148 -1.25731,-1.53497 l -0.74449,-0.93363 -1.24939,0.63312 c -0.68718,0.34822 -1.32141,0.74964 -1.40943,0.89205 -0.088,0.14242 0.14284,1.08939 0.51303,2.10438 l 0.67307,1.84543 -0.59123,0.44647 c -0.32517,0.24557 -1.01058,0.61138 -1.52311,0.81291 l -0.93188,0.36643 z m 2.13321,-8.34378 0.96969,-0.4947 -1.99249,-2.31134 c -1.09586,-1.27125 -2.04038,-2.26345 -2.09894,-2.2049 -0.26991,0.26992 1.63872,5.50565 2.00702,5.50565 0.0798,0 0.58138,-0.22262 1.11472,-0.49471 z m -83.994202,5.58598 c -0.938535,-0.54121 -1.80102,-1.07581 -1.91665,-1.18799 -0.116256,-0.11278 0.495807,-1.43949 1.369146,-2.96777 0.868659,-1.5201 2.5934,-4.62869 3.832747,-6.90798 1.239355,-2.27928 2.434697,-4.33452 2.656319,-4.56718 0.48792,-0.51224 5.870784,-1.76578 6.694583,-1.55902 1.004337,0.25207 1.826845,1.10645 2.62398,2.72566 0.727434,1.47762 0.768019,1.69697 0.636285,3.43877 -0.14632,1.93476 -1.117277,4.41448 -2.063992,5.27125 -0.285195,0.2581 -1.881196,0.63862 -4.529611,1.07998 l -4.08926,0.68147 -1.398786,2.43575 c -0.769328,1.33968 -1.558428,2.45946 -1.753561,2.48842 -0.195124,0.0289 -1.122666,-0.39015 -2.0612,-0.93136 z m 10.338986,-9.00078 c 0.392127,-0.54132 0.787894,-1.42773 0.879476,-1.9698 0.181055,-1.07164 -0.04376,-3.14033 -0.341213,-3.14033 -0.176485,0 -3.44214,5.64229 -3.44214,5.94722 0,0.0809 0.49296,0.14713 1.095459,0.14713 0.999481,0 1.157917,-0.0862 1.808418,-0.98422 z m -23.441842,-4.71619 c -0.634424,-0.23119 -0.670384,-0.32658 -0.670384,-1.77826 0,-0.84369 0.134628,-2.03734 0.299181,-2.65257 0.285481,-1.06738 0.27202,-1.13906 -0.293948,-1.56598 -0.527621,-0.39798 -0.688544,-0.41159 -1.457107,-0.1233 -1.060825,0.39794 -3.689348,0.67177 -4.063361,0.42332 -0.150751,-0.10014 -0.349763,-0.53096 -0.442248,-0.95739 -0.140377,-0.64721 -0.0785,-0.82328 0.374216,-1.06558 0.538474,-0.28818 3.416738,-0.20307 4.500274,0.13308 0.316272,0.0981 0.695169,-0.008 1.025703,-0.28717 0.506771,-0.42807 0.512161,-0.48724 0.162518,-1.78351 -0.45747,-1.69605 -0.373682,-3.87986 0.161761,-4.21577 0.213883,-0.13418 0.680105,-0.17087 1.036041,-0.0815 0.609382,0.15295 0.647166,0.24686 0.647166,1.60844 0,0.7953 -0.121489,2.01247 -0.269974,2.70484 -0.244389,1.13954 -0.223741,1.30507 0.217816,1.74663 0.471566,0.47157 0.52846,0.47429 1.710396,0.0817 0.770895,-0.25605 1.793714,-0.37906 2.768412,-0.33293 l 1.545815,0.0731 v 1.09699 1.09698 l -1.259165,0.073 c -0.692552,0.0402 -1.943627,-0.10439 -2.780186,-0.32116 -1.471084,-0.3812 -1.536988,-0.37816 -2.007789,0.0926 -0.47164,0.47164 -0.474257,0.53142 -0.08412,1.92169 0.545974,1.94586 0.535333,3.76568 -0.02396,4.10114 -0.290078,0.17399 -0.64114,0.1777 -1.096979,0.0116 z m 51.741059,-0.36881 -1.09699,-0.14702 0.0292,-6.5819 c 0.0285,-6.42415 0.089,-7.23268 1.16764,-15.60155 0.37404,-2.90216 0.91713,-5.81186 1.47443,-7.89961 0.29334,-1.09887 0.29847,-1.41939 0.031,-1.93002 -0.31692,-0.60487 -0.32729,-0.59503 -0.85264,0.8091 -1.82176,4.86909 -3.1795,16.01428 -3.18678,26.15902 l -0.004,4.94978 -1.15794,-0.0743 -1.15792,-0.0743 0.0466,-7.00669 c 0.055,-8.26936 0.80237,-15.53905 2.27892,-22.16787 0.71349,-3.20313 0.69483,-3.30687 -0.6304,-3.5056 -0.60953,-0.0914 -1.1788,-0.0956 -1.26504,-0.009 -0.0862,0.0862 0.0386,0.70019 0.27744,1.36435 0.53461,1.48669 0.3722,2.71317 -0.55436,4.18634 l -0.66357,1.05505 0.42476,1.09698 c 0.59383,1.53361 0.55236,2.1763 -0.23768,3.68324 -0.37892,0.72277 -0.82406,1.93808 -0.989184,2.70069 -0.256596,1.18498 -0.245033,1.4933 0.07951,2.12091 0.208861,0.4039 0.379753,1.24789 0.379753,1.87553 0,1.01955 -0.111677,1.25284 -1.047954,2.18912 -1.344297,1.3443 -2.113791,1.54478 -3.44565,0.8977 -0.833021,-0.4047 -1.082707,-0.69105 -1.358191,-1.55755 l -0.337528,-1.06169 -0.185431,1.21887 c -0.101985,0.67038 -0.249954,3.08374 -0.328821,5.36303 -0.07887,2.27928 -0.198505,4.59926 -0.265865,5.15549 l -0.122475,1.01134 -1.02481,-0.12235 c -1.078791,-0.12881 -2.012065,-0.88761 -1.693876,-1.37722 0.09984,-0.15363 0.249898,-3.46058 0.333474,-7.34878 0.195851,-9.11199 0.568446,-13.37159 1.690955,-19.33147 0.607438,-3.2251 0.605033,-3.51754 -0.02276,-2.76402 -0.263691,0.31652 -0.479434,0.79024 -0.479434,1.05273 0,0.26247 -0.378832,2.2093 -0.841857,4.32629 -0.463025,2.11699 -0.959744,5.04391 -1.103825,6.50427 -0.366799,3.71783 -0.962729,15.69027 -0.818206,16.43822 0.09085,0.47005 -0.01695,0.69189 -0.447481,0.92089 -1.526863,0.8122 -10.141136,-3.48827 -16.439768,-8.20717 -4.445712,-3.33071 -11.551945,-10.82679 -11.551945,-12.18571 0,-0.73018 1.42158,-3.70406 2.58262,-5.40274 2.091596,-3.06013 3.919114,-5.84169 4.270859,-6.5004 0.220442,-0.41282 1.345983,-1.39466 2.559623,-2.23283 2.056824,-1.4205 2.240007,-1.49637 3.628815,-1.50303 1.60457,-0.007 3.544299,-0.75169 4.364771,-1.67412 0.460455,-0.51767 0.459423,-0.52202 -0.121885,-0.51346 -0.322455,0.005 -0.860524,0.16541 -1.195711,0.35702 -1.442228,0.82445 -2.066581,0.019 -1.705421,-2.20011 0.207166,-1.27284 0.0018,-3.41978 -0.387133,-4.04926 -0.223916,-0.36231 -1.401412,-0.0223 -4.012631,1.15862 -3.085494,1.39543 -3.7848,1.53878 -4.012161,0.82242 -0.09443,-0.29752 -0.0934,-1.84408 0.0018,-3.43678 0.09569,-1.59271 0.169096,-2.97884 0.163107,-3.08028 -0.01207,-0.2049 -5.872258,-1.47988 -6.929416,-1.50762 -0.537019,-0.0141 -0.670375,-0.13205 -0.670375,-0.593 0,-0.31648 0.254818,-0.94725 0.566262,-1.4017 1.68622,-2.46047 4.507959,-6.3302 5.324497,-7.30199 0.514206,-0.61197 0.934913,-1.26267 0.934913,-1.446 0,-0.18333 -0.88646,-1.24151 -1.969913,-2.35153 -1.275887,-1.30716 -1.940319,-2.17186 -1.885923,-2.45438 0.102095,-0.5302 1.171839,-0.90234 4.030837,-1.40224 2.881535,-0.50383 3.970369,-0.82761 3.962989,-1.17842 -0.0037,-0.16131 -0.442184,-1.16964 -0.975093,-2.24076 -0.53291,-1.07112 -0.96893,-2.08584 -0.96893,-2.25491 0,-0.2304 0.778689,-0.3117 3.108122,-0.32455 4.248617,-0.0234 4.153958,0.0396 3.13404,-2.08854 l -0.830321,-1.73258 1.225194,-0.1451 c 0.731433,-0.0866 2.514542,0.0475 4.424475,0.33299 1.759596,0.26297 3.264697,0.47883 3.344643,0.47971 0.163604,0.002 0.558237,-5.44523 0.502854,-6.94082 -0.01972,-0.53347 -0.30212,-1.795 -0.627486,-2.8034 -0.773621,-2.39772 -0.839572,-3.02817 -0.995059,-9.51234 -0.162904,-6.79301 -0.02432,-7.71892 1.568066,-10.47806 l 1.214967,-2.10518 -0.347837,-1.3186 c -0.337943,-1.28109 -0.330028,-1.34898 0.278395,-2.38718 0.344429,-0.58772 1.262702,-1.70504 2.040608,-2.48296 0.777906,-0.7779 2.035753,-2.239947 2.795213,-3.248977 1.725682,-2.292638 2.187288,-2.600212 3.902419,-2.600212 1.042122,0 1.646261,-0.163807 2.629149,-0.71285 2.419413,-1.351483 3.61599,-1.546211 7.796706,-1.268765 2.25169,0.149434 4.15054,0.404851 4.814909,0.647655 0.68151,0.249078 2.43571,0.477674 4.6317,0.603568 3.45114,0.19786 5.69454,0.633401 7.18454,1.394852 1.70735,0.872519 6.22304,4.995309 6.22304,5.681599 0,0.11684 0.49014,0.54964 1.0892,0.96181 1.32587,0.91222 3.2209,3.50272 3.70857,5.06962 0.35006,1.1248 0.72648,2.53248 2.25427,8.43024 0.4118,1.5897 0.74881,3.50942 0.74892,4.26605 1.4e-4,1.02214 0.18809,1.77288 0.73132,2.92117 0.42389,0.89603 0.73113,1.94575 0.73113,2.49799 0,0.73739 0.18519,1.15911 0.81999,1.86735 0.45099,0.50317 0.99976,1.26647 1.21947,1.69619 0.29605,0.57903 0.60448,0.81104 1.19115,0.89606 0.43542,0.0631 1.66925,0.23418 2.74186,0.38019 2.31145,0.31465 7.66197,1.6065 7.98291,1.92744 0.24461,0.24461 -0.15168,1.13831 -1.1704,2.63947 l -0.61703,0.90925 0.80264,0.42777 c 0.44146,0.23528 1.40599,0.60055 2.14341,0.81171 2.33835,0.6696 3.41284,1.13022 3.41284,1.46302 0,0.17767 -0.71305,1.38953 -1.58453,2.693 -0.8715,1.30349 -1.58197,2.49284 -1.57883,2.64302 0.003,0.15019 1.11546,0.98608 2.47183,1.85758 2.17819,1.39953 4.10436,3.23948 4.10436,3.92064 0,0.10664 -1.06956,0.89893 -2.37679,1.76063 -1.30724,0.86171 -2.56971,1.78306 -2.80549,2.04745 -0.41261,0.46267 -0.39948,0.52104 0.34999,1.5562 0.42826,0.59151 1.44391,1.85632 2.25698,2.81067 0.81308,0.95436 1.72787,2.18081 2.03286,2.72545 l 0.55453,0.99026 -0.84271,0.64276 c -0.46349,0.35352 -1.70031,1.00553 -2.7485,1.44892 -1.45833,0.61688 -1.89827,0.91352 -1.87374,1.26349 0.0449,0.63973 1.51408,4.73261 1.93059,5.37801 0.18909,0.293 1.08638,0.92513 1.99398,1.40473 0.9076,0.47961 3.29566,1.88536 5.3068,3.12389 3.32169,2.04562 3.66332,2.32048 3.72978,3.00092 0.12267,1.25589 -1.75407,5.65305 -3.82158,8.95389 -6.13108,9.78843 -11.54811,15.97241 -18.65274,21.29364 -4.50064,3.3709 -6.24793,4.37682 -10.97892,6.32064 -6.06814,2.49322 -10.63106,3.59367 -17.0186,4.1044 -4.64732,0.37159 -6.872019,0.41421 -8.716539,0.16701 z M 86.822785,202.72941 c 0.492729,-0.66645 0.580128,-1.0964 0.631825,-3.10812 0.04321,-1.68199 -0.0434,-2.55617 -0.309988,-3.12695 -0.787875,-1.68712 -1.037985,-0.80978 -1.042426,3.65661 -0.0018,1.84354 0.03087,3.3519 0.0727,3.3519 0.04183,0 0.333372,-0.34805 0.647875,-0.77344 z m 3.173897,-3.24574 c 0.369785,-0.44556 0.153765,-1.10008 -0.363086,-1.10008 -0.447306,0 -0.721123,0.57621 -0.521282,1.09698 0.178273,0.46457 0.500441,0.4657 0.884368,0.003 z m -2.082336,-6.44998 c 0.904057,-0.92584 0.92453,-0.98304 0.545311,-1.52358 -0.648926,-0.92498 -1.06604,-1.41484 -1.204713,-1.41484 -0.136194,0 -0.668523,2.78199 -0.668523,3.49375 0,0.62164 0.301955,0.49536 1.327925,-0.55533 z m 0.500782,-6.16843 c 0.465725,-0.30167 0.848122,-0.61008 0.84979,-0.68535 0.0055,-0.23625 -0.979691,-1.2039 -1.225351,-1.2039 -0.128851,0 -0.234281,0.26711 -0.234281,0.59357 0,0.32646 -0.106978,0.87495 -0.237736,1.21887 -0.290383,0.76376 -0.222461,0.76992 0.847578,0.0768 z m 7.143553,-4.34172 c 0.17253,-0.27626 1.21236,-1.52765 2.31074,-2.78087 2.277789,-2.59888 2.03412,-2.5712 4.285299,-0.48699 l 1.45137,1.34371 1.58592,-1.77302 c 0.87225,-0.97516 1.79409,-2.03378 2.04852,-2.35248 0.61699,-0.77285 1.06035,-0.6044 3.13625,1.19159 0.92621,0.80132 2.01311,1.62023 2.41534,1.81982 0.68644,0.34058 0.75922,0.32945 1.1858,-0.18133 0.24996,-0.29931 0.92589,-1.4826 1.50208,-2.62952 1.43359,-2.85366 1.5188,-2.90498 2.87453,-1.73161 0.60661,0.52502 1.78392,1.68257 2.61625,2.57233 1.06425,1.13769 1.59802,1.54747 1.79871,1.38091 0.15697,-0.13027 0.80847,-1.22895 1.4478,-2.44149 l 1.16241,-2.20464 h -0.86982 c -0.47839,0 -0.86981,-0.11467 -0.86981,-0.25482 0,-0.15797 0.3163,-0.19548 0.83222,-0.0987 0.6874,0.12895 0.87979,0.0673 1.10556,-0.35462 0.15034,-0.28091 0.46292,-0.51074 0.69462,-0.51074 0.51762,0 2.41669,1.26152 5.20558,3.45801 1.16011,0.91369 2.16274,1.66124 2.22806,1.66124 0.36567,0 1.13229,-2.35929 1.27316,-3.91823 0.18168,-2.01022 0.51752,-3.55547 0.81235,-3.73769 0.10636,-0.0657 1.81196,0.36843 3.79022,0.96481 1.97826,0.59637 3.68639,1.08431 3.79584,1.08431 0.92768,0 -0.0371,-3.76077 -1.71424,-6.68201 -1.05812,-1.84306 -1.06546,-2.39424 -0.0369,-2.77259 0.36425,-0.134 1.18155,-0.42843 1.81621,-0.65429 0.63467,-0.22587 1.40256,-0.61448 1.70642,-0.86358 l 0.55248,-0.4529 -0.55438,-1.05205 c -0.61965,-1.17589 -2.1929,-2.921 -4.18442,-4.64154 -1.2948,-1.11862 -1.31778,-1.16088 -0.97724,-1.79717 0.1918,-0.3584 0.5691,-0.78501 0.83842,-0.94804 3.96398,-2.39942 4.9615,-3.10978 4.8339,-3.44229 -0.36934,-0.96248 -2.75504,-2.28334 -6.48775,-3.59199 -0.56234,-0.19714 -0.37934,-0.56114 1.68797,-3.35755 0.85391,-1.15506 1.55255,-2.20258 1.55255,-2.32783 0,-0.22758 -4.98326,-1.78832 -5.70992,-1.78832 -0.48937,0 -0.50571,0.0955 0.31861,-1.86371 1.19878,-2.84929 1.23155,-2.65277 -0.51371,-3.08007 -2.44782,-0.59931 -3.56178,-0.72424 -4.93165,-0.55309 l -1.28416,0.16045 -0.1629,1.95332 c -0.34156,4.0956 -1.16706,5.57819 -5.97025,10.72242 l -2.53055,2.71023 0.14575,1.39445 c 0.23037,2.20403 0.34136,2.36004 1.13685,1.59791 0.57583,-0.55168 0.68873,-0.58449 0.8214,-0.23876 0.24824,0.6469 -0.79183,4.25232 -1.53935,5.33614 -0.37817,0.54834 -2.37335,2.70912 -4.4337,4.80174 -3.051,3.09877 -4.26764,4.14525 -6.55677,5.63973 -3.22722,2.10692 -4.38493,3.27463 -5.40254,5.44921 -0.65752,1.40509 -0.80528,1.5605 -1.61822,1.70198 -0.49205,0.0857 -1.27858,0.41029 -1.74784,0.72144 -0.46927,0.31116 -1.46993,0.83551 -2.2237,1.16523 -0.753769,0.32971 -1.447089,0.72342 -1.540699,0.87489 -0.11871,0.19208 -0.36876,0.13402 -0.82648,-0.1919 -0.5599,-0.39869 -1.38963,-0.50618 -5.650632,-0.73196 -5.217887,-0.2765 -7.282543,-0.64312 -8.808236,-1.56412 -1.274652,-0.76945 -3.116488,-3.03964 -3.439551,-4.23948 -0.151285,-0.56187 -0.380877,-0.95618 -0.510207,-0.87625 -0.145629,0.09 -0.169464,-0.1707 -0.06265,-0.68485 0.09489,-0.4566 0.272333,-1.92715 0.39432,-3.26791 0.121996,-1.34076 0.318539,-2.82411 0.436776,-3.29633 0.118227,-0.47223 0.195824,-1.95687 0.172431,-3.29921 -0.03805,-2.18332 -0.113539,-2.56178 -0.716047,-3.58989 -0.582561,-0.99407 -0.65145,-1.30972 -0.510115,-2.33737 0.139059,-1.01105 -0.0074,-1.72862 -0.981488,-4.81495 -1.571622,-4.97865 -1.776715,-5.45512 -2.348017,-5.45512 -0.363878,0 -0.44129,-0.11409 -0.325338,-0.47943 0.170386,-0.53683 0.255141,-0.50587 -3.010588,-1.09999 -2.392168,-0.4352 -3.446848,-0.46997 -3.446848,-0.11364 0,0.14143 0.324205,1.01901 0.72046,1.9502 l 0.720459,1.69305 h -3.549947 c -2.958568,0 -3.527917,0.0574 -3.417733,0.34452 0.0727,0.1895 0.684794,1.23548 1.360172,2.32442 l 1.227968,1.9799 -0.593231,0.22554 c -0.326269,0.12404 -1.173432,0.29741 -1.882587,0.38525 -1.585341,0.19636 -5.2462,1.01765 -5.721286,1.28352 -0.347441,0.19443 0.158086,0.73862 2.56318,2.75921 0.424476,0.35661 0.77177,0.75348 0.77177,0.88195 0,0.12846 -0.670136,1.09822 -1.489189,2.15502 -0.819053,1.05679 -2.206212,2.94726 -3.082573,4.20104 -1.253332,1.79311 -1.520791,2.32484 -1.253268,2.49162 0.428262,0.26698 3.094118,0.87576 4.824351,1.10171 l 1.315164,0.17174 -0.148301,2.7673 c -0.08154,1.52202 -0.05418,2.76731 0.0609,2.76731 0.648162,0 3.493321,-1.0618 3.855652,-1.43891 0.234926,-0.2445 0.701378,-0.50543 1.036566,-0.57983 0.335187,-0.0744 1.089654,-0.31309 1.676582,-0.53043 0.586938,-0.21734 1.103668,-0.35864 1.148308,-0.31401 0.04459,0.0447 0.157237,1.86109 0.250248,4.03656 l 0.169104,3.95543 0.510899,-0.3724 c 0.281003,-0.20482 1.086825,-0.71108 1.790719,-1.12503 0.974541,-0.57311 1.279812,-0.89101 1.279812,-1.33277 0,-0.52092 0.06339,-0.55603 0.620871,-0.34407 0.49295,0.18741 0.867968,0.11083 1.820203,-0.3717 1.500328,-0.76027 2.097768,-0.77588 2.268329,-0.0592 0.07177,0.30167 0.207,1.81002 0.300443,3.35189 0.09345,1.54187 0.210382,2.87396 0.259849,2.96021 0.04948,0.0862 1.079012,-0.21543 2.28788,-0.67038 1.208868,-0.45495 2.454166,-0.82718 2.767315,-0.82718 1.058144,0 1.610789,1.13443 1.989132,4.08321 0.14421,1.12392 0.232273,1.27981 0.722994,1.27981 0.307326,0 1.215879,-0.43879 2.018993,-0.97509 2.039217,-1.36174 2.455336,-1.30466 4.411692,0.6051 1.70091,1.66038 2.39262,1.91848 2.91214,1.08658 z m -0.92772,-1.81357 c 0,-0.20112 0.15281,-0.36567 0.33958,-0.36567 0.18677,0 0.40272,0.16455 0.4799,0.36567 0.0954,0.24872 -0.0132,0.36565 -0.33958,0.36565 -0.26406,0 -0.4799,-0.16446 -0.4799,-0.36565 z m -8.04454,-0.94902 c 0,-0.48748 0.664211,-0.67448 0.833031,-0.23452 0.208078,0.54222 0.188895,0.5741 -0.345489,0.5741 -0.26815,0 -0.487542,-0.15282 -0.487542,-0.33958 z m 6.3545,-0.73767 c -0.42895,-0.51685 -0.23183,-0.90788 0.27078,-0.53716 0.24022,0.17719 0.33195,0.42645 0.22225,0.60394 -0.14381,0.23269 -0.25725,0.21732 -0.49303,-0.0668 z m 3.26455,-0.15784 c -0.0884,-0.14299 -0.0996,-0.3211 -0.0249,-0.39578 0.20054,-0.20054 0.88814,0.11251 0.88814,0.40435 0,0.33086 -0.65749,0.32433 -0.86324,-0.008 z m 6.905649,-0.71461 c -0.1004,-0.68411 -0.0799,-0.70603 0.32155,-0.34276 0.23586,0.21344 0.36963,0.54232 0.29729,0.73083 -0.2179,0.56783 -0.50496,0.38781 -0.61884,-0.38807 z m -16.77456,-0.61726 c -0.472423,-0.56923 0.106296,-1.09392 0.629495,-0.57072 0.323293,0.32329 0.327595,0.41646 0.03059,0.66294 -0.269717,0.22384 -0.414581,0.2036 -0.660093,-0.0922 z m 35.89744,-0.11456 c -0.27451,-0.43957 -0.24345,-0.48755 0.3156,-0.48755 0.54453,0 0.58829,0.0594 0.35915,0.48755 -0.14351,0.26815 -0.28553,0.48755 -0.3156,0.48755 -0.03,0 -0.19169,-0.2194 -0.35915,-0.48755 z m -30.893988,-0.24377 c -0.08283,-0.13407 0.02036,-0.24378 0.229389,-0.24378 0.209027,0 0.380048,0.10971 0.380048,0.24378 0,0.13408 -0.103228,0.24377 -0.229389,0.24377 -0.12616,0 -0.297182,-0.10969 -0.380048,-0.24377 z m 9.629068,0.0199 c 0,-0.12311 -0.0714,-0.41002 -0.15875,-0.63756 -0.13195,-0.34383 -0.0599,-0.38328 0.4266,-0.23343 0.79132,0.24374 0.8242,0.29452 0.46836,0.72327 -0.34302,0.41333 -0.73621,0.49221 -0.73621,0.14772 z m 4.02228,-0.75126 c -0.19959,-0.32293 0.068,-0.73132 0.47911,-0.73132 0.20844,0 0.28186,0.17815 0.20096,0.48754 -0.1377,0.52656 -0.43863,0.63443 -0.68007,0.24378 z m -25.961943,-0.60944 c 0,-0.20314 0.216693,-0.36566 0.487552,-0.36566 0.270858,0 0.487551,0.16252 0.487551,0.36566 0,0.20314 -0.216693,0.36566 -0.487551,0.36566 -0.270859,0 -0.487552,-0.16252 -0.487552,-0.36566 z m 42.172913,-0.38597 c 0,-0.59409 0.56964,-0.51011 0.68825,0.10146 0.0466,0.24055 -0.0777,0.4064 -0.30472,0.4064 -0.22613,0 -0.38353,-0.20843 -0.38353,-0.50786 z m 11.45738,0.0203 c 0,-0.13407 0.16455,-0.24377 0.36566,-0.24377 0.20112,0 0.36566,0.1097 0.36566,0.24377 0,0.13409 -0.16454,0.24378 -0.36566,0.24378 -0.20111,0 -0.36566,-0.10969 -0.36566,-0.24378 z m -50.948774,-0.60943 c 0,-0.20314 0.216683,-0.36566 0.487551,-0.36566 0.270859,0 0.487542,0.16252 0.487542,0.36566 0,0.20314 -0.216683,0.36566 -0.487542,0.36566 -0.270868,0 -0.487551,-0.16252 -0.487551,-0.36566 z m 25.108724,-0.38598 c 0,-0.59408 0.56964,-0.51011 0.68825,0.10146 0.0466,0.24055 -0.0777,0.40641 -0.30471,0.40641 -0.22614,0 -0.38354,-0.20843 -0.38354,-0.50787 z m 13.1638,-0.10157 c 0,-0.20111 0.16455,-0.36566 0.36566,-0.36566 0.20112,0 0.36566,0.16455 0.36566,0.36566 0,0.20112 -0.16454,0.36566 -0.36566,0.36566 -0.20111,0 -0.36566,-0.16454 -0.36566,-0.36566 z m 10.23851,-0.60943 c 0,-0.13408 0.16454,-0.24378 0.36567,-0.24378 0.20111,0 0.36565,0.1097 0.36565,0.24378 0,0.13407 -0.16454,0.24377 -0.36565,0.24377 -0.20113,0 -0.36567,-0.1097 -0.36567,-0.24377 z m -59.968421,-0.46147 c 0,-0.11973 0.164553,-0.28084 0.365666,-0.35801 0.222736,-0.0855 0.365656,-4.9e-4 0.365656,0.2177 0,0.1969 -0.164544,0.358 -0.365656,0.358 -0.201113,0 -0.365666,-0.098 -0.365666,-0.21769 z m 44.610651,-0.17781 c 0,-0.32393 0.0661,-0.34059 0.36567,-0.0921 0.20111,0.16692 0.36565,0.34489 0.36565,0.39551 0,0.0506 -0.16454,0.092 -0.36565,0.092 -0.20112,0 -0.36567,-0.17797 -0.36567,-0.3955 z m 18.16117,0.15172 c -0.20405,-0.33015 0.0713,-0.73132 0.50194,-0.73132 0.1932,0 0.35127,0.2194 0.35127,0.48755 0,0.50469 -0.5881,0.67273 -0.85321,0.24377 z m -54.239724,-0.60942 c 0,-0.48325 0.10708,-0.62457 0.426604,-0.56303 0.234631,0.0451 0.426604,0.29854 0.426604,0.56303 0,0.26447 -0.191973,0.51783 -0.426604,0.56303 -0.319524,0.0615 -0.426604,-0.0798 -0.426604,-0.56303 z m 49.486124,-0.36567 c 0,-0.13407 0.10971,-0.24377 0.24378,-0.24377 0.13408,0 0.24378,0.1097 0.24378,0.24377 0,0.13408 -0.1097,0.24377 -0.24378,0.24377 -0.13407,0 -0.24378,-0.10969 -0.24378,-0.24377 z m -2.92528,-1.46264 c 0,-0.13408 0.1097,-0.24377 0.24378,-0.24377 0.13407,0 0.24377,0.10969 0.24377,0.24377 0,0.13407 -0.1097,0.24377 -0.24377,0.24377 -0.13408,0 -0.24378,-0.1097 -0.24378,-0.24377 z m 14.38267,-0.8676 c 0,-0.20903 0.1097,-0.31225 0.24377,-0.22938 0.13409,0.0828 0.24378,0.25388 0.24378,0.38005 0,0.12616 -0.10969,0.22938 -0.24378,0.22938 -0.13407,0 -0.24377,-0.17103 -0.24377,-0.38005 z m -61.187285,-0.59505 c 0,-0.13407 0.116173,-0.24377 0.258154,-0.24377 0.141989,0 0.190369,0.1097 0.107503,0.24377 -0.08283,0.13408 -0.19904,0.24377 -0.258163,0.24377 -0.05915,0 -0.107494,-0.10969 -0.107494,-0.24377 z m 58.993315,-0.12188 c 0,-0.20112 0.16111,-0.36567 0.35801,-0.36567 0.21809,0 0.30317,0.14293 0.2177,0.36567 -0.0772,0.20111 -0.23828,0.36565 -0.35801,0.36565 -0.11973,0 -0.2177,-0.16454 -0.2177,-0.36565 z m -67.281641,-0.2259 c 0,-0.22614 0.208428,-0.38354 0.507867,-0.38354 0.594087,0 0.510115,0.56964 -0.101459,0.68825 -0.240547,0.0466 -0.406408,-0.0777 -0.406408,-0.30471 z m -7.401112,-2.74665 c -0.29134,-0.29135 -0.157403,-0.80595 0.209774,-0.80595 0.201121,0 0.365665,0.15807 0.365665,0.35127 0,0.40726 -0.347939,0.68218 -0.575439,0.45468 z m -3.081173,-3.48747 c 0,-0.13407 0.164545,-0.24377 0.365657,-0.24377 0.201122,0 0.365666,0.1097 0.365666,0.24377 0,0.13408 -0.164544,0.24377 -0.365666,0.24377 -0.201112,0 -0.365657,-0.10969 -0.365657,-0.24377 z m 82.883186,-1.09698 c 0,-0.20112 0.1097,-0.36566 0.24377,-0.36566 0.13409,0 0.24378,0.16454 0.24378,0.36566 0,0.20111 -0.10969,0.36566 -0.24378,0.36566 -0.13407,0 -0.24377,-0.16455 -0.24377,-0.36566 z m -80.689218,-8.28833 c 0,-0.20111 0.109696,-0.36565 0.243771,-0.36565 0.134075,0 0.24378,0.16454 0.24378,0.36565 0,0.20112 -0.109705,0.36567 -0.24378,0.36567 -0.134075,0 -0.243771,-0.16455 -0.243771,-0.36567 z m -1.950196,-1.58453 c 0,-0.13407 0.109696,-0.24377 0.24378,-0.24377 0.134075,0 0.243771,0.1097 0.243771,0.24377 0,0.13408 -0.109696,0.24378 -0.243771,0.24378 -0.134084,0 -0.24378,-0.1097 -0.24378,-0.24378 z m 1.829499,-0.48561 c -0.08219,-0.13302 -0.05298,-0.4142 0.06486,-0.62484 0.191355,-0.34194 0.24729,-0.34329 0.521724,-0.0126 0.308413,0.37162 0.18017,0.8793 -0.222129,0.8793 -0.118246,0 -0.282255,-0.10883 -0.364468,-0.24185 z m 5.84939,-5.60874 c -0.08283,-0.13407 0.02036,-0.24378 0.22938,-0.24378 0.209027,0 0.380057,0.10971 0.380057,0.24378 0,0.13408 -0.103228,0.24378 -0.229389,0.24378 -0.12616,0 -0.297191,-0.1097 -0.380048,-0.24378 z m -2.559633,-0.24381 c 0,-0.13407 0.116173,-0.24377 0.258163,-0.24377 0.141989,0 0.19036,0.1097 0.107503,0.24377 -0.08283,0.13408 -0.19904,0.24378 -0.258163,0.24378 -0.05915,0 -0.107503,-0.1097 -0.107503,-0.24378 z m 75.569968,-5.11924 c 0,-0.13408 0.1097,-0.24377 0.24378,-0.24377 0.13407,0 0.24377,0.10969 0.24377,0.24377 0,0.13407 -0.1097,0.24378 -0.24377,0.24378 -0.13408,0 -0.24378,-0.10971 -0.24378,-0.24378 z m -29.5317,23.95968 c 2.8118,-2.18392 6.10984,-5.49655 7.28954,-7.32178 l 0.95857,-1.48308 -0.0469,-2.76287 c -0.0258,-1.51959 -0.13203,-3.32369 -0.23613,-4.00913 -0.31708,-2.08768 0.0988,-2.88104 2.02516,-3.86366 2.4986,-1.27451 3.08014,-1.7805 4.91368,-4.27538 2.32954,-3.1698 2.56273,-3.94147 2.19416,-7.26118 -0.43948,-3.95857 -1.15759,-5.2359 -3.07975,-5.47806 -1.44936,-0.18259 -2.83578,0.52179 -4.74753,2.41203 -1.23364,1.21974 -1.74874,1.57467 -2.19397,1.51171 -0.68768,-0.0972 -0.69584,-0.30346 -0.20429,-5.16806 0.31419,-3.10938 0.3226,-3.13761 1.00569,-3.37575 0.82478,-0.28751 0.82531,-0.29119 0.17354,-1.20652 l -0.51531,-0.72369 0.51531,-0.54852 c 0.28342,-0.30169 0.51531,-0.62373 0.51531,-0.71565 0,-0.28761 -0.86095,-0.18245 -1.33316,0.16284 -0.39868,0.29152 -0.66591,0.1985 -2.29377,-0.79837 -2.07846,-1.27284 -3.357,-2.75027 -3.55522,-4.10828 -0.0729,-0.49952 -0.30576,-1.82403 -0.51744,-2.94335 l -0.38488,-2.03511 0.56692,-0.60345 c 0.47935,-0.51025 0.51067,-0.63575 0.20279,-0.81254 -0.20027,-0.115 -0.56337,-0.35755 -0.80688,-0.53903 -0.42783,-0.31883 -0.42783,-0.34341 0,-0.72905 0.39778,-0.35855 0.57714,-0.36414 1.76577,-0.055 0.72766,0.18927 1.37784,0.2893 1.44485,0.22229 0.22983,-0.22983 -0.81833,-0.84482 -2.09298,-1.22802 -0.70142,-0.21086 -1.33815,-0.48506 -1.41496,-0.60934 -0.0767,-0.12427 -0.24974,-0.90961 -0.3843,-1.7452 -0.13457,-0.83559 -0.27763,-1.55222 -0.31791,-1.5925 -0.0403,-0.0403 -0.59151,0.14891 -1.22494,0.42043 -0.85359,0.3659 -1.68483,0.49368 -3.21139,0.49368 -2.45976,0 -3.24423,-0.28652 -5.33124,-1.9472 -0.84453,-0.67202 -1.658859,-1.22186 -1.809619,-1.22186 -0.15075,0 -0.45718,0.38394 -0.68096,0.85321 -0.2564,0.53767 -0.58,0.85321 -0.87502,0.85321 -0.25748,0 -0.79407,0.27424 -1.19242,0.60943 -0.88133,0.74159 -2.13652,0.80966 -2.73502,0.14833 -0.2352,-0.25989 -0.61264,-0.41002 -0.86495,-0.34404 -0.34416,0.09 -0.517878,-0.0957 -0.751423,-0.80336 -0.298526,-0.90454 -0.310559,-0.9117 -0.696421,-0.41473 -0.215956,0.27814 -0.820104,1.05496 -1.342547,1.72627 l -0.949894,1.22058 -2.678064,0.0917 -2.678054,0.0917 -0.960868,1.08276 c -1.160902,1.30817 -2.593649,4.20476 -3.586257,7.2503 -1.050285,3.22251 -1.142982,4.27628 -0.558016,6.34333 l 0.488878,1.72753 -0.606544,0.8926 c -0.716286,1.05411 -0.614357,2.00613 0.232779,2.17425 0.299633,0.0594 1.532069,0.28911 2.738744,0.51032 1.206684,0.22121 2.559071,0.61438 3.005299,0.87372 0.79098,0.45969 0.827659,0.46022 1.462645,0.0209 1.240627,-0.85831 1.247095,-0.8574 1.747241,0.24468 0.588836,1.29753 0.672448,5.46731 0.150844,7.52282 -0.185763,0.73206 -0.524599,2.59256 -0.752965,4.13443 -0.228357,1.54187 -0.63892,3.43599 -0.91235,4.20916 -0.567598,1.60499 -0.495364,2.56494 0.3197,4.24863 l 0.534761,1.10467 1.176713,-0.11307 c 0.902915,-0.0868 1.60585,-0.40298 3.021018,-1.35903 1.014361,-0.68527 2.251621,-1.31857 2.749481,-1.40732 2.00053,-0.35664 2.45422,-1.8208 0.66802,-2.15589 -0.47289,-0.0887 -0.85981,-0.25301 -0.85981,-0.3651 0,-0.11209 0.35921,-0.47778 0.79825,-0.81265 0.75285,-0.57424 0.84645,-0.58905 1.64548,-0.2606 0.95372,0.39205 3.8944,3.86624 3.8944,4.60095 0,0.37882 -0.10668,0.3438 -0.70814,-0.23243 l -0.70816,-0.67844 -1.73776,0.80514 c -1.18736,0.55012 -1.71492,0.92428 -1.66568,1.18132 0.0958,0.49986 1.48756,0.95483 2.97297,0.97186 1.10625,0.0127 1.38123,0.15207 3.505539,1.77698 2.14056,1.63731 3.94802,3.70239 3.94802,4.5107 0,0.21066 -0.42221,0.30797 -1.33611,0.30797 -1.24319,0 -1.34743,0.0451 -1.4988,0.64819 -0.21446,0.85449 0.27038,2.72877 1.25119,4.83674 1.37992,2.96574 1.07707,2.89094 4.37308,1.0801 4.14528,-2.27745 5.80649,-3.91274 6.49021,-6.38896 0.12478,-0.45194 0.50014,-1.07842 0.83413,-1.39218 0.58957,-0.55387 0.62153,-0.55757 1.09736,-0.12695 0.26955,0.24395 0.49009,0.57838 0.49009,0.74318 0,0.16481 -0.45417,1.21737 -1.00927,2.33902 -0.91265,1.84409 -1.37949,2.4026 -4.87549,5.83293 -2.12641,2.08646 -3.8662,3.97071 -3.8662,4.18723 0,0.36618 0.38646,0.57671 1.18384,0.64491 0.18185,0.0156 1.27883,-0.70819 2.43774,-1.60831 z m -1.67139,-24.93408 c 0,-0.39086 1.60545,-2.05747 3.07152,-3.18854 1.09566,-0.8453 1.39689,-0.97836 1.57558,-0.69599 0.68183,1.07747 -0.11695,1.97113 -3.11541,3.48538 -1.4185,0.71636 -1.53169,0.74586 -1.53169,0.39915 z m 13.65135,-0.36768 c 0,-0.36225 -0.28373,-1.56866 -0.63051,-2.68092 l -0.63052,-2.02229 0.82327,-2.03264 c 0.63022,-1.55601 1.01518,-2.16198 1.64166,-2.58416 1.14026,-0.76843 1.41954,-0.69741 1.7255,0.43881 0.24949,0.92655 0.22615,1.02221 -0.36229,1.48508 l -0.62896,0.49474 0.51764,0.83755 c 0.453,0.73296 0.4963,1.04985 0.34686,2.53797 -0.19116,1.90345 -0.73642,2.90537 -2.01038,3.69403 l -0.79227,0.49047 z m -26.110329,-3.41102 c -0.94395,-0.51304 -2.04432,-3.34676 -2.22473,-5.72919 -0.0581,-0.76672 -0.19924,-0.92105 -1.3927,-1.52255 -1.235097,-0.62248 -2.937957,-2.0124 -2.937957,-2.39805 0,-0.0926 0.740462,-0.29986 1.645478,-0.4606 2.391139,-0.42467 5.220559,-1.20099 5.835149,-1.60099 0.29318,-0.19082 1.00622,-0.45194 1.58453,-0.58025 1.934019,-0.42911 6.328779,0.66519 7.267699,1.80966 0.33949,0.41382 0.32205,0.43548 -0.24377,0.30265 -3.16289,-0.74253 -5.74368,-0.77595 -6.31975,-0.0818 -0.22207,0.26758 -0.0543,0.36362 0.88008,0.50374 1.87813,0.28164 3.51718,1.01803 5.074,2.27964 1.6529,1.33946 2.32313,2.32637 1.88048,2.76901 -0.20981,0.20983 -0.59235,0.0601 -1.53854,-0.60229 l -1.25929,-0.88156 -0.81865,0.62441 c -0.52796,0.4027 -0.97101,0.56582 -1.24774,0.45941 -0.236,-0.0907 -1.16906,-0.20409 -2.07348,-0.25188 -1.615699,-0.0853 -1.669889,-0.0681 -3.108109,0.99069 -0.80506,0.59264 -1.46374,1.22735 -1.46374,1.41046 0,0.42959 1.09021,1.52372 2.25492,2.26301 0.50278,0.31914 0.91415,0.68857 0.91415,0.82097 0,0.36175 -1.98098,0.27071 -2.70803,-0.12445 z m -0.35721,-7.1015 c 1.13615,-0.38713 3.06005,-0.3662 4.466929,0.0486 0.80397,0.23704 0.73267,-0.69349 -0.0947,-1.23558 -0.89031,-0.58336 -2.193959,-0.71323 -3.804079,-0.37897 -1.20082,0.24929 -1.39652,0.37404 -1.62789,1.03775 -0.38678,1.10955 -0.4922,1.057 1.05971,0.52821 z m -7.41705,-3.71709 c 0,-0.30728 0.715594,-0.85817 0.889214,-0.68454 0.24964,0.24964 -0.122918,0.89846 -0.515901,0.89846 -0.205324,0 -0.373313,-0.0963 -0.373313,-0.21392 z m 0.404473,-1.4297 c -0.07067,-0.11438 -0.03713,-0.35583 0.07454,-0.53657 0.247235,-0.40003 1.066777,-0.14152 0.922742,0.29107 -0.121987,0.36637 -0.81687,0.53743 -0.997298,0.2455 z m 4.471007,38.67151 c 1.70876,-1.02438 2.19397,-1.66797 2.19397,-2.91007 0,-0.92377 0.1595,-1.34711 0.84661,-2.24698 0.54352,-0.71182 0.89673,-1.488 0.98661,-2.16808 0.077,-0.58262 0.18594,-1.35604 0.24209,-1.71871 0.0945,-0.61063 -0.0461,-0.73386 -1.90077,-1.66656 -1.88903,-0.94994 -2.08596,-0.99802 -3.46549,-0.84603 -0.804453,0.0886 -2.227618,0.14468 -3.162587,0.12454 -1.697303,-0.0366 -1.699247,-0.0358 -1.249213,0.46144 0.391049,0.43212 0.793624,0.50718 3.040698,0.56694 2.410082,0.0641 2.539182,0.0919 1.858652,0.40153 -0.41437,0.18847 -1.972743,0.38787 -3.595666,0.46007 -2.193009,0.0975 -2.864352,0.20527 -2.864352,0.45961 0,0.40372 0.867185,1.30729 1.25465,1.30729 0.153755,0 1.248698,0.57492 2.433205,1.27758 2.027093,1.20252 2.128843,1.30151 1.731573,1.6847 -0.232129,0.2239 -1.128899,0.58459 -1.992803,0.80152 -1.985346,0.49856 -3.272962,1.41799 -3.03588,2.16781 0.530487,1.67776 1.697571,2.34367 4.119075,2.35025 1.305318,0.004 1.906978,-0.11558 2.559628,-0.50685 z M 82.710058,145.09976 c 0.348409,-1.19616 0.888201,-2.59958 1.199535,-3.11871 0.469704,-0.78319 0.569358,-1.30189 0.585398,-3.04717 0.01658,-1.80943 -0.05731,-2.21077 -0.52915,-2.87228 -0.738444,-1.03526 -0.686112,-1.30163 0.423619,-2.15634 1.334899,-1.02813 1.359564,-1.26059 0.196644,-1.85387 -1.251508,-0.63847 -2.382715,-0.52735 -3.943558,0.38737 -1.029444,0.60329 -1.125577,0.73987 -1.125577,1.59912 v 0.93949 l -0.845377,-0.35322 c -1.215004,-0.50766 -1.283552,-0.47305 -1.551527,0.78339 -0.314927,1.47661 -0.08458,2.03713 1.417572,3.44966 l 1.214912,1.14242 -0.289148,1.03269 c -0.316032,1.12872 -0.02801,3.14174 0.715402,4.99965 0.355153,0.8876 1.076543,1.45737 1.654018,1.30639 0.134075,-0.035 0.528837,-1.04242 0.877237,-2.23859 z m -0.565212,-15.21677 h 2.323168 l -0.464388,-0.52294 c -0.734087,-0.82664 -2.433731,-1.48711 -3.340755,-1.29819 -0.910239,0.18959 -2.852318,1.25675 -2.852318,1.56732 0,0.33501 0.545956,0.4873 1.310281,0.3655 0.385465,-0.0615 1.746273,-0.11169 3.024012,-0.11169 z m -3.8955,-2.73026 c 0.402861,-0.40287 0.366762,-0.60436 -0.134084,-0.74837 -0.234631,-0.0674 -0.604158,-0.19617 -0.821173,-0.286 -0.279841,-0.11584 -0.436655,-0.003 -0.539322,0.39023 -0.218867,0.83696 0.843774,1.29493 1.494579,0.64414 z m -37.483664,90.74916 c -0.213044,-0.39808 -0.0727,-0.63869 0.905577,-1.55235 2.62961,-2.45596 3.473558,-3.03497 3.473558,-2.38315 0,0.30102 -1.551739,2.35506 -2.638408,3.49245 -0.982354,1.02821 -1.374186,1.12794 -1.740727,0.44305 z m 8.79928,-1.65129 c -1.939785,-2.10227 -2.326845,-2.75309 -1.637342,-2.75309 0.310403,0 4.313277,3.47795 4.475407,3.88851 0.03676,0.0932 -0.141695,0.3581 -0.396614,0.5888 -0.445879,0.40351 -0.538613,0.33802 -2.441451,-1.72422 z m 112.103438,1.26806 c -0.35619,-0.93689 -0.3003,-1.84453 0.21572,-3.50251 l 0.45908,-1.47499 -0.59721,-0.3913 c -0.54546,-0.3574 -0.72918,-0.35821 -2.12012,-0.009 -1.81682,0.45563 -3.35602,0.49225 -3.75886,0.0894 -0.49436,-0.49435 -0.33581,-1.37429 0.32572,-1.80774 0.61834,-0.40516 1.68243,-0.39425 4.43223,0.0455 0.82138,0.13134 0.97656,0.0765 1.25512,-0.44404 0.26607,-0.49716 0.25489,-0.8059 -0.0686,-1.89518 -0.56709,-1.9096 -0.50845,-3.20713 0.17393,-3.84819 0.50408,-0.47357 0.61103,-0.49092 1.06515,-0.17285 0.68183,0.47758 0.87607,2.50478 0.39516,4.12418 -0.26531,0.89342 -0.29011,1.34658 -0.0969,1.7707 0.3001,0.65866 0.59123,0.68111 2.58601,0.19946 1.89992,-0.45876 2.92109,-0.45206 3.39543,0.0223 0.44001,0.44003 0.51342,1.70156 0.11339,1.94879 -0.45908,0.28373 -2.37038,0.14274 -3.90596,-0.28813 -1.42602,-0.40011 -1.47878,-0.39805 -1.95341,0.0766 -0.47088,0.47087 -0.47407,0.53507 -0.0921,1.84925 0.22606,0.77759 0.36422,1.96942 0.3222,2.77915 l -0.0736,1.41773 -0.91458,0.0756 c -0.79548,0.0659 -0.94629,-0.007 -1.15794,-0.56436 z m -4.59839,-0.44679 c -0.27122,-0.32681 -0.24564,-0.49549 0.1619,-1.06781 0.62572,-0.87875 2.95165,-3.07814 3.6511,-3.45248 0.47583,-0.25466 0.54205,-0.23082 0.54205,0.19517 0,0.27502 -0.87366,1.40116 -2.01648,2.59924 -1.77852,1.86451 -2.05448,2.06818 -2.33857,1.72588 z m 9.07722,-1.70379 c -1.91793,-1.92987 -2.54226,-2.84567 -1.94,-2.84567 0.38407,0 2.71587,1.87244 3.89784,3.12998 0.59214,0.63 0.65685,0.81386 0.39675,1.12725 -0.17093,0.20597 -0.37962,0.36607 -0.46376,0.3558 -0.0841,-0.0102 -0.93502,-0.80559 -1.89083,-1.76736 z m -77.800153,-2.7376 c -0.61948,-0.4339 -0.671149,-0.94226 -0.184445,-1.81448 0.310246,-0.55598 0.288023,-0.66415 -0.253409,-1.23326 l -0.593479,-0.62381 0.707533,-0.67787 c 0.6886,-0.65971 0.724505,-0.66673 1.341755,-0.2623 0.657393,0.43075 0.841166,1.3614 0.40497,2.05077 -0.144541,0.22843 -0.100786,0.52326 0.125617,0.84651 0.468397,0.66872 0.437135,1.20583 -0.09839,1.69048 -0.552368,0.49989 -0.765633,0.50341 -1.450151,0.024 z m -44.605349,-2.28692 c -1.577749,-1.14291 -3.228616,-2.9914 -3.228616,-3.6151 0,-0.50568 0.05436,-0.53252 0.548489,-0.27082 0.867719,0.45958 4.083216,3.77408 4.083216,4.20895 0,0.55697 -0.276018,0.49342 -1.403089,-0.32303 z m 3.956208,0.4619 c -0.169823,-0.27478 0.40381,-1.07121 2.258932,-3.13629 1.063672,-1.18406 1.255783,-1.30062 1.883812,-1.14299 l 0.699352,0.17552 -2.168934,2.17903 c -1.192919,1.19847 -2.247028,2.17904 -2.342462,2.17904 -0.09544,0 -0.244259,-0.11444 -0.3307,-0.25431 z m 112.984504,-1.24703 c -0.46305,-0.27951 -1.64169,-1.22174 -2.61919,-2.09385 -1.71149,-1.52694 -1.76168,-1.60288 -1.35607,-2.05108 0.40948,-0.45247 0.4646,-0.42275 1.97866,1.06683 1.71479,1.68706 3.09817,3.32665 2.94015,3.48467 -0.0559,0.0559 -0.48048,-0.12706 -0.94355,-0.40657 z m 2.93659,0.3873 c 0,-0.57004 3.76035,-4.73654 4.27484,-4.73654 0.16344,0 0.41643,0.14371 0.56221,0.31935 0.20379,0.24556 -0.14135,0.71849 -1.49374,2.0468 -1.55493,1.52723 -3.34331,2.79518 -3.34331,2.37039 z M 25.460051,187.15454 c -1.508353,-0.80819 -2.742466,-1.62245 -2.742466,-1.80949 0,-0.56561 1.244506,-3.87947 1.594804,-4.24662 0.273862,-0.28704 0.61677,-0.29495 2.108594,-0.0487 0.979839,0.16178 1.871402,0.38396 1.981246,0.49374 0.109843,0.10977 -0.245494,0.92696 -0.789644,1.81599 -0.544141,0.88903 -0.883686,1.6164 -0.75455,1.6164 0.320842,0 3.728634,-1.36321 4.893977,-1.95772 1.13996,-0.58157 2.482618,-1.7307 3.201106,-2.73972 l 0.526985,-0.74008 -0.713504,0.17622 c -0.392431,0.0969 -1.577076,0.56468 -2.632548,1.03946 -1.543853,0.69447 -1.959926,0.79837 -2.128109,0.53141 -0.557593,-0.88508 -1.484582,-3.39295 -1.367202,-3.69884 0.139741,-0.36416 4.078729,-2.11596 4.768341,-2.12064 0.221235,-0.002 1.746043,0.45355 3.388471,1.01124 l 2.986237,1.01398 v 1.63979 c 0,0.90189 -0.06551,1.96744 -0.145619,2.36787 -0.205139,1.02571 -1.720144,2.92911 -3.066404,3.85253 -1.438901,0.98696 -6.841833,3.28253 -7.712445,3.27683 -0.360147,-0.003 -1.888917,-0.66554 -3.39727,-1.47372 z m 158.392229,-1.814 c -1.00557,-0.1742 -4.18683,-0.71462 -7.06945,-1.20094 -6.72872,-1.13516 -9.01965,-1.61708 -9.01965,-1.89739 0,-0.35298 1.4862,-3.83395 1.69092,-3.96048 0.10073,-0.0623 0.55679,-0.0185 1.01348,0.0971 2.35224,0.59576 2.40048,0.58686 2.9105,-0.5367 0.70277,-1.54815 0.63129,-1.73699 -0.98318,-2.5975 -0.80446,-0.42877 -1.46265,-0.80846 -1.46265,-0.84374 0,-0.24833 0.83446,-2.50923 0.9892,-2.68017 0.1062,-0.11731 2.91635,1.48295 6.24479,3.55613 3.32844,2.07319 6.69352,4.14374 7.47798,4.60123 l 1.42629,0.8318 -0.1458,1.58453 c -0.18657,2.02781 -0.57723,3.41969 -0.95087,3.38785 -0.16129,-0.0137 -1.11599,-0.16752 -2.12156,-0.34173 z m -4.25664,-5.8476 c -0.39705,-0.32448 -1.24225,-0.87317 -1.87823,-1.21931 l -1.1563,-0.62935 -0.39466,0.76319 c -0.21707,0.41976 -0.3335,0.82435 -0.25875,0.89911 0.26658,0.26659 2.47634,0.76109 3.43476,0.76865 l 0.9751,0.007 -0.72192,-0.58998 z m -160.451856,-3.17046 -0.504504,-2.07154 1.003112,-0.25706 c 2.537078,-0.65013 3.399426,-0.95516 4.145278,-1.46622 0.800175,-0.5483 1.672565,-1.64446 2.002667,-2.5164 0.161126,-0.42559 0.0844,-0.44693 -1.022672,-0.28429 -0.658278,0.0967 -2.223589,0.44089 -3.478469,0.76484 -1.25488,0.32395 -2.539602,0.589 -2.854944,0.589 -0.577337,0 -0.64314,-0.13564 -1.152988,-2.37664 -0.140396,-0.61708 -0.271541,-0.56902 5.55946,-2.03711 l 3.170313,-0.79821 1.719361,1.02145 c 0.945638,0.56179 1.932359,1.02135 2.192714,1.02123 0.260356,-1.1e-4 1.652139,-0.31655 3.092856,-0.70319 l 2.619475,-0.70297 0.372695,1.25168 c 0.204982,0.68843 0.436463,1.6479 0.514409,2.13217 l 0.141722,0.88049 -1.915019,0.50992 c -1.05327,0.28046 -2.659,0.69377 -3.568309,0.91847 -1.641148,0.40555 -1.657787,0.41808 -2.267722,1.70738 -0.578746,1.22337 -1.664927,2.31673 -2.995303,3.0151 -0.86185,0.45243 -4.675405,1.46696 -5.527249,1.47043 -0.730014,0.003 -0.7508,-0.0315 -1.246883,-2.06853 z m 163.960236,-4.90305 c -0.21043,-0.0625 -0.62121,-0.6048 -0.91286,-1.2051 l -0.53027,-1.09146 -0.91545,0.57589 c -1.63234,1.02687 -2.50097,1.19291 -4.73928,0.90599 -3.84783,-0.49327 -3.61126,-0.39677 -3.61126,-1.47318 0,-0.52363 0.11882,-1.50614 0.26407,-2.18337 0.31876,-1.48631 0.85238,-1.72104 2.57682,-1.13347 1.57907,0.53804 3.07335,0.49239 4.29577,-0.13124 1.28191,-0.65398 1.13825,-0.71862 -2.92866,-1.31781 -3.35813,-0.49476 -3.40751,-0.53423 -3.11435,-2.48914 0.2729,-1.81988 0.51735,-2.25311 1.27128,-2.25311 0.6222,0 6.70904,0.97374 11.53019,1.84454 1.18862,0.21468 2.25062,0.55085 2.49083,0.78844 0.23032,0.22781 0.95759,1.2331 1.61617,2.234 1.17135,1.78022 1.19053,1.83927 0.88169,2.71461 -0.42336,1.19992 -1.35092,2.61859 -2.29502,3.51013 -0.74194,0.70063 -0.87351,0.73314 -3.13575,0.77463 -1.29873,0.0238 -2.53349,-0.007 -2.74392,-0.0703 z m 4.50672,-4.51056 c 0.36033,-0.28345 0.60044,-0.57005 0.53358,-0.63692 -0.22835,-0.22835 -3.19293,-0.78079 -4.23605,-0.78938 l -1.041,-0.008 0.49746,0.97509 0.49746,0.97509 h 1.5467 c 1.20538,0 1.69128,-0.11372 2.20185,-0.51533 z M 33.423343,162.20928 c -0.05583,-0.0527 -1.41795,-0.15944 -3.026859,-0.23732 -2.574255,-0.12459 -5.204353,-0.30213 -11.743098,-0.79268 l -1.748347,-0.13117 -0.150392,-1.74834 c -0.08274,-0.96159 -0.05602,-2.07731 0.05934,-2.47937 0.205922,-0.71756 0.265552,-0.74144 3.239498,-1.29705 1.666347,-0.31131 3.114581,-0.64861 3.218298,-0.74955 0.103716,-0.10095 -1.179449,-0.43148 -2.851462,-0.73453 -1.672022,-0.30305 -3.165799,-0.70254 -3.319508,-0.88775 -0.444018,-0.535 -0.435993,-3.97652 0.0099,-4.25903 0.498524,-0.31582 1.211401,-0.40621 5.728684,-0.72636 2.145219,-0.15204 4.668292,-0.37348 5.606817,-0.49211 0.938534,-0.11862 2.830824,-0.28766 4.205102,-0.37563 l 2.498685,-0.15996 v 2.20587 c 0,1.3398 -0.105163,2.27088 -0.267846,2.37142 -0.147315,0.091 -1.56391,0.2621 -3.147998,0.38012 -4.080581,0.304 -4.531527,0.53196 -2.069069,1.04596 1.0726,0.22389 2.718078,0.5946 3.656612,0.82381 l 1.706416,0.41675 0.07343,1.00435 c 0.0843,1.15371 0.510079,0.93881 -4.074417,2.05657 -2.722362,0.66374 -4.217456,1.16934 -3.555991,1.20253 1.345366,0.0675 7.272113,0.75507 7.44858,0.86413 0.126667,0.0783 0.230301,0.73921 0.230301,1.4687 v 1.32637 h -0.812577 c -0.446919,0 -0.858293,-0.0431 -0.914155,-0.0957 z m 140.760347,-5.51073 c -0.79591,-0.32096 -0.88483,-0.96181 -0.69511,-5.00988 l 0.17429,-3.71872 0.76772,-0.0848 c 0.42223,-0.0466 3.74671,-0.0482 7.38771,-0.004 l 6.62,0.0814 1.66832,1.95085 c 0.91757,1.07297 1.74998,2.29788 1.8498,2.72205 0.0998,0.42416 0.11435,1.56651 0.0323,2.53857 l -0.14918,1.76736 -1.25117,-0.004 c -2.32724,-0.006 -2.34816,-0.0261 -2.34816,-2.22673 0,-2.16452 0.10589,-2.0517 -2.11516,-2.25359 l -1.50573,-0.13687 -0.17119,2.18837 -0.17119,2.18836 h -0.92778 c -0.51029,0 -1.21592,-0.10955 -1.56809,-0.24344 -0.60074,-0.2284 -0.63101,-0.31496 -0.4901,-1.4017 0.0825,-0.63705 0.19895,-1.39639 0.25855,-1.68743 0.11681,-0.57034 -0.028,-0.62801 -2.3899,-0.95192 l -1.15793,-0.15881 v 0.84514 c 0,0.46481 -0.0705,1.51941 -0.15661,2.34353 l -0.15661,1.4984 -1.48887,-0.0155 c -0.81887,-0.008 -1.72603,-0.11109 -2.01591,-0.22798 z m -1.17715,-11.03112 c -0.24848,-0.72536 -1.34003,-7.58024 -1.22532,-7.69495 0.15657,-0.15657 15.13393,-3.13302 16.85068,-3.34873 l 1.24491,-0.15643 0.26061,1.05977 c 0.14333,0.58287 0.33295,1.56014 0.42135,2.17171 l 0.16075,1.11195 -1.91004,0.4029 c -2.23074,0.47056 -8.22862,1.53708 -9.87369,1.75569 -1.64701,0.21887 -1.80537,0.51132 -1.42696,2.63514 0.17229,0.96703 0.36542,1.89536 0.42915,2.06295 0.088,0.23136 -0.47913,0.30472 -2.3556,0.30472 -1.75898,0 -2.50156,-0.0878 -2.57584,-0.30472 z M 27.853804,143.26512 c -4.214066,-0.92819 -7.70642,-1.7321 -7.760789,-1.78647 -0.05436,-0.0544 -0.416174,-1.17727 -0.804007,-2.49533 -0.609188,-2.0703 -0.656638,-2.43291 -0.348695,-2.6642 0.196055,-0.14725 1.756915,-0.39979 3.468574,-0.56121 3.60473,-0.33992 4.492157,-0.4948 4.330838,-0.75583 -0.06403,-0.10354 -0.528948,-0.26157 -1.033213,-0.35117 -0.504264,-0.0896 -2.10607,-0.44308 -3.559566,-0.78552 l -2.64272,-0.62261 0.159965,-0.85267 c 0.410858,-2.19007 0.682841,-2.32895 3.261988,-1.66562 0.75677,0.19464 4.502357,0.97628 8.323513,1.73699 3.821156,0.7607 6.989065,1.41999 7.039794,1.46508 0.08532,0.0758 -0.132306,1.07827 -0.720063,3.31597 -0.129938,0.4947 -0.425775,0.95861 -0.657421,1.03091 -0.231646,0.0723 -2.201946,0.35604 -4.378463,0.6305 -2.176507,0.27447 -4.20593,0.59269 -4.50982,0.70715 -0.505333,0.19032 -0.469234,0.22984 0.422569,0.46255 0.5363,0.13995 1.633288,0.38089 2.437738,0.53543 0.804459,0.15454 2.425632,0.50189 3.602602,0.7719 l 2.139958,0.4909 -0.166802,0.89222 c -0.280956,1.50282 -0.47292,2.07691 -0.713558,2.13398 -0.126769,0.03 -3.678356,-0.70476 -7.892422,-1.63295 z M 178.76833,131.96425 c -1.09422,-0.73241 -2.46917,-1.61276 -3.05544,-1.95633 l -1.06593,-0.62468 -2.40176,0.86941 c -2.26653,0.82044 -2.4196,0.84501 -2.71852,0.4362 -0.30812,-0.42137 -1.34748,-3.50629 -1.21853,-3.61671 0.10512,-0.09 9.1403,-3.41964 11.55113,-4.25681 l 2.22323,-0.77203 1.55527,0.77087 c 0.85539,0.42397 2.07611,1.11836 2.71271,1.54308 l 1.15746,0.77222 4.9e-4,1.71963 c 4.8e-4,1.47851 -0.0985,1.87567 -0.70522,2.83239 -0.38812,0.61201 -1.07454,1.39409 -1.52536,1.73795 -1.0439,0.79622 -3.34291,1.87098 -4.00882,1.87408 -0.28115,9.2e-4 -1.40646,-0.59686 -2.50069,-1.32927 z m 2.78491,-3.19668 c 1.10315,-0.52188 2.54282,-1.85227 2.54282,-2.34982 0,-0.19046 -2.17037,0.2377 -3.29096,0.64923 -0.5363,0.19694 -1.29371,0.47608 -1.68314,0.62028 l -0.70805,0.26219 0.69272,0.72303 c 0.38098,0.39767 0.78867,0.72303 0.90597,0.72303 0.11729,0 0.81058,-0.28257 1.54064,-0.62794 z M 31.913037,127.47269 c -3.724469,-2.51277 -6.947346,-4.74424 -7.161929,-4.95882 -0.356028,-0.35603 -0.357198,-0.58562 -0.01327,-2.62512 0.207258,-1.22923 0.44246,-2.30058 0.522655,-2.38078 0.213762,-0.21376 17.785207,3.61278 18.11799,3.94557 0.07509,0.0751 -0.237248,1.02139 -0.694045,2.10293 l -0.830542,1.96644 -1.096979,-0.18163 c -0.603338,-0.0999 -1.465262,-0.18843 -1.915379,-0.19673 -0.751702,-0.0138 -0.854857,0.0772 -1.265862,1.11769 -0.516887,1.30853 -0.504855,1.32806 1.535763,2.49287 0.636865,0.36353 1.157926,0.72376 1.157926,0.80053 0,0.26666 -1.297216,2.52128 -1.44044,2.50356 -0.07924,-0.01 -3.191385,-2.07374 -6.915854,-4.58651 z m 3.129636,-2.24934 c 0.215965,-0.41764 0.301061,-0.84578 0.189089,-0.95145 -0.224156,-0.21153 -3.701132,-1.21451 -4.210298,-1.21451 -0.534273,0 0.177332,0.68691 1.92883,1.8619 0.871828,0.58486 1.610918,1.06339 1.642428,1.06339 0.03151,0 0.233986,-0.3417 0.449951,-0.75933 z m 130.522887,-2.83634 c -0.71457,-1.30724 -1.65961,-3.00549 -2.10008,-3.77391 l -0.80086,-1.3971 1.02569,-0.70042 c 0.89617,-0.61196 5.51101,-3.21078 10.3872,-5.84946 l 1.56072,-0.84457 1.60834,0.52658 c 2.9506,0.96605 3.90464,1.65431 4.94536,3.56773 0.51046,0.93853 0.9009,1.84454 0.86763,2.01337 -0.0333,0.16883 -0.73715,0.62615 -1.56418,1.01628 -1.74279,0.82211 -1.68386,0.85164 -2.99927,-1.50308 -0.71537,-1.2806 -0.82586,-1.37592 -1.30826,-1.12872 -0.97158,0.49788 -2.59811,1.55099 -2.59855,1.68245 -2.4e-4,0.0716 0.38351,0.72605 0.85277,1.45443 1.0699,1.66066 1.09397,2.30072 0.1057,2.81177 -1.22709,0.63455 -1.96778,0.39439 -2.66533,-0.86422 -1.22974,-2.21885 -0.95062,-2.08999 -2.65896,-1.22761 l -1.51696,0.76575 1.09104,2.0179 1.09106,2.01789 -1.81052,0.89586 c -0.99579,0.49273 -1.90115,0.89588 -2.01192,0.89588 -0.11076,0 -0.78604,-1.06956 -1.50062,-2.3768 z M 40.965394,118.9644 c -0.680851,-1.73299 -1.427385,-3.72872 -1.427385,-3.81586 0,-0.11224 0.861104,-0.28506 2.48153,-0.49804 1.310051,-0.17218 2.639735,-1.03827 2.109783,-1.3742 -0.529187,-0.33545 -2.130449,-0.23515 -4.457072,0.27917 -3.075359,0.67985 -4.537377,0.63711 -6.031938,-0.17633 -1.429522,-0.77805 -1.813513,-1.43203 -2.283697,-3.88949 -0.590835,-3.08799 -0.539368,-3.33853 0.86302,-4.20142 1.197812,-0.73703 2.950571,-1.55596 3.063253,-1.43125 0.280569,0.31055 1.817383,3.47402 1.817383,3.74101 0,0.2333 -0.296721,0.3515 -0.914155,0.36415 -1.153781,0.0237 -2.79713,0.51095 -2.914934,0.86436 -0.04929,0.14796 0.222497,0.39832 0.604047,0.55636 0.580267,0.24035 1.265835,0.16608 4.191871,-0.45416 1.923983,-0.40784 3.813039,-0.74152 4.197896,-0.74152 0.899432,0 3.515784,1.31651 3.847267,1.9359 0.139963,0.26153 0.536687,1.64654 0.881604,3.0778 l 0.627127,2.60231 -0.811489,0.84445 c -1.016167,1.05745 -2.398443,1.88117 -4.192599,2.49845 l -1.391977,0.47891 z m 119.493556,-5.10683 -1.26458,-1.63809 1.29817,-1.19796 c 3.4513,-3.18489 3.59644,-3.3459 3.74886,-4.15835 0.33995,-1.8121 0.1228,-1.79962 -2.2069,0.12672 -1.20669,0.99776 -2.64721,2.1679 -3.20115,2.60031 l -1.00719,0.7862 -0.97217,-1.05469 c -0.53471,-0.58008 -1.16401,-1.34745 -1.39845,-1.70527 -0.53106,-0.81049 -0.53429,-0.80632 2.52407,-3.27071 1.28816,-1.03798 3.93417,-3.20495 5.88002,-4.815487 1.94584,-1.61054 3.91428,-3.195349 4.37429,-3.521812 l 0.8364,-0.593552 1.41851,1.566389 c 0.78019,0.861515 1.41852,1.639915 1.41852,1.729765 0,0.0898 -1.28896,1.24403 -2.86435,2.564857 -2.59848,2.17856 -2.80362,2.40849 -2.21015,2.47705 0.92711,0.10709 2.09954,-0.57297 2.67798,-1.55336 0.47268,-0.80111 0.55657,-0.83807 1.90258,-0.83807 0.77445,0 1.7509,0.0685 2.16988,0.15236 0.70744,0.14149 0.76179,0.22508 0.76179,1.17151 0,1.22562 -0.7642,2.37476 -2.23714,3.36399 -1.01336,0.68059 -1.51499,0.78893 -3.18683,0.68827 l -0.91415,-0.055 v 1.14205 c 0,0.62812 -0.18346,1.54256 -0.40769,2.03209 -0.43687,0.95378 -3.95294,4.51324 -5.15108,5.21466 l -0.72466,0.42423 z M 49.749038,110.19213 c -0.752541,-0.63346 -2.398009,-2.09901 -3.656611,-3.25677 -1.258603,-1.15776 -3.630695,-3.33381 -5.271317,-4.83567 -3.402125,-3.114367 -3.325257,-2.797947 -1.239143,-5.100576 l 1.140936,-1.259349 0.931145,0.790474 c 0.512124,0.434767 1.753875,1.574584 2.759447,2.532924 1.005571,0.958337 2.980137,2.763427 4.387934,4.011287 3.10616,2.7533 5.363028,4.91716 5.363028,5.14202 0,0.30902 -2.512129,3.13982 -2.780822,3.13358 -0.146495,-0.004 -0.882065,-0.52448 -1.634597,-1.15792 z m 5.634292,-6.25417 c -1.831342,-0.50958 -3.023054,-1.25616 -4.407808,-2.76141 -1.939858,-2.108627 -7.102391,-8.794547 -7.139521,-9.246276 -0.0176,-0.213735 0.663004,-0.939124 1.512388,-1.611977 l 1.544323,-1.22337 0.598878,0.70932 c 0.329383,0.390119 1.835728,2.245084 3.347434,4.122152 1.511707,1.877059 3.144461,3.758844 3.628327,4.181754 0.825254,0.72128 2.251607,1.26767 2.544532,0.97474 0.206576,-0.20658 -1.350996,-2.281694 -6.575821,-8.760865 -2.195386,-2.722426 -2.204046,-2.493692 0.16061,-4.239505 l 1.429578,-1.055444 3.0477,3.840219 c 4.375404,5.51318 7.203703,9.096385 7.82473,9.913235 l 0.539773,0.70999 -0.553778,0.595727 c -0.30458,0.32765 -1.034373,0.92833 -1.621771,1.33485 -1.04144,0.72073 -1.085186,0.72894 -1.760305,0.33015 -0.775373,-0.45803 -0.721667,-0.53948 -1.06909,1.62139 -0.13999,0.87068 -0.189937,0.91311 -1.050092,0.89235 -0.496709,-0.012 -1.396749,-0.15915 -2.000087,-0.32703 z m 8.814427,-8.006554 c -1.263983,-3.036459 -5.645366,-15.072777 -5.645366,-15.508705 0,-0.277612 0.64302,-0.729203 1.935804,-1.359509 2.297905,-1.120353 2.063301,-1.227857 4.289986,1.965859 1.471342,2.110346 2.062536,2.799323 2.062536,2.403685 0,-0.08909 -0.157883,-0.781204 -0.35085,-1.537974 -0.192959,-0.75677 -0.511111,-2.237943 -0.706999,-3.291508 l -0.356167,-1.915563 1.554863,-0.705008 c 2.638409,-1.19631 2.125889,-1.714248 7.001116,7.075082 2.373474,4.27904 4.315415,7.877984 4.315415,7.997649 0,0.269551 -2.982524,1.773997 -3.516889,1.773997 -0.424162,0 -1.352995,-1.366492 -3.209462,-4.721721 -0.657974,-1.18916 -1.228898,-1.999406 -1.268728,-1.80056 -0.06367,0.317811 1.421866,6.601093 1.783441,7.54335 0.09425,0.245614 -0.170745,0.497419 -0.842087,0.800147 -1.226881,0.553244 -1.129033,0.629891 -3.992574,-3.127314 -1.218883,-1.599272 -2.25086,-2.803653 -2.29327,-2.676414 -0.04238,0.127248 0.517661,1.815826 1.244607,3.752414 0.726955,1.936578 1.269732,3.605412 1.206178,3.708521 -0.06357,0.103099 -0.647194,0.456861 -1.296977,0.786133 l -1.181421,0.598676 z m 76.079893,-0.688719 c -1.1545,-0.645305 -1.76736,-1.137242 -1.76736,-1.418631 0,-0.236926 0.21149,-1.045494 0.46999,-1.796819 l 0.46999,-1.366041 -1.14037,-0.657108 c -0.6272,-0.361409 -1.21032,-0.695159 -1.29582,-0.74166 -0.0855,-0.04653 -0.61012,0.517643 -1.16582,1.253664 -0.55571,0.736021 -1.18386,1.338226 -1.39589,1.338226 -0.58753,0 -2.2802,-1.023326 -2.2802,-1.378526 0,-0.172504 0.95985,-1.455569 2.13302,-2.851259 1.17316,-1.395681 3.61395,-4.297946 5.42397,-6.449475 1.81002,-2.15153 3.48794,-3.983655 3.72871,-4.071386 0.24078,-0.08771 1.36323,0.08495 2.49435,0.38378 2.42479,0.64056 2.37189,-0.08827 0.44112,6.078539 -2.65079,8.466433 -4.04457,12.67615 -4.19502,12.67041 -0.0843,-0.0028 -0.94862,-0.450384 -1.92067,-0.993714 z m 0.49506,-8.446688 c 0.45086,-1.12871 1.15233,-3.470637 1.145,-3.82274 -0.003,-0.143261 -0.19496,-0.02534 -0.4266,0.262087 -0.23166,0.287415 -0.99647,1.24411 -1.69958,2.12599 l -1.2784,1.603418 0.66896,0.362938 c 0.99232,0.538383 1.1895,0.472478 1.59062,-0.531693 z m -13.05609,2.875555 c -2.24656,-0.718009 -2.12635,-0.377247 -2.12635,-6.027911 0,-2.740043 -0.0934,-4.924161 -0.20762,-4.853595 -0.27126,0.16765 -0.75574,1.500172 -1.98019,5.446327 -0.9947,3.20574 -1.00773,3.230008 -1.73517,3.230008 -0.40312,0 -1.06913,-0.173849 -1.48001,-0.386322 -0.68166,-0.3525 -0.73402,-0.464554 -0.59802,-1.279821 0.082,-0.491412 1.16408,-3.965043 2.40465,-7.719162 l 2.2556,-6.825672 2.55962,-0.500064 c 1.74879,-0.341655 2.61637,-0.418883 2.73873,-0.24378 0.0985,0.140958 0.18078,2.045363 0.18283,4.232005 0.003,2.504637 0.0912,3.921666 0.24012,3.829623 0.13001,-0.08034 0.69854,-1.595181 1.26339,-3.366276 0.56487,-1.771104 1.05649,-3.26055 1.0925,-3.309889 0.10828,-0.14831 2.54051,0.786161 2.75166,1.057195 0.20579,0.264161 -0.50481,2.700084 -3.4191,11.7207 -1.32573,4.103523 -1.864,5.469693 -2.15122,5.459871 -0.21067,-0.0074 -1.01682,-0.21567 -1.79142,-0.463237 z m -15.04639,-3.399711 c -1.07838,-0.14374 -1.10025,-0.164812 -1.28978,-1.243207 -0.53132,-3.023165 -0.37955,-2.795038 -1.91318,-2.875702 l -1.37467,-0.07233 -0.29209,1.291172 c -0.5401,2.387451 -0.39038,2.22321 -1.88612,2.068838 -0.73701,-0.0761 -1.39632,-0.194598 -1.46514,-0.263414 -0.19235,-0.192351 4.5097,-15.743494 5.05665,-16.723876 0.27311,-0.489559 4.41959,-1.068242 4.67645,-0.652648 0.0957,0.154787 0.22992,0.830865 0.29835,1.502401 0.46567,4.569579 1.35859,15.343296 1.35859,16.392281 0,0.779574 -0.0213,0.795145 -1.03603,0.759286 -0.56983,-0.02018 -1.52968,-0.102418 -2.13303,-0.182833 z m -1.81076,-7.946994 c -0.0766,-0.737412 -0.20932,-1.971516 -0.29473,-2.742456 l -0.1553,-1.401698 -0.31935,0.731323 c -0.17564,0.402225 -0.50348,1.53907 -0.72853,2.526316 -0.45491,1.995628 -0.36063,2.21643 0.94942,2.223543 l 0.68791,0.0037 z m -15.219539,6.61542 c -0.15271,-0.606442 -0.27764,-1.647744 -0.27764,-2.314 v -1.211384 l 1.03603,-0.171435 c 0.56983,-0.09429 1.09913,-0.208253 1.17624,-0.253243 0.0771,-0.04496 0.0552,-0.827659 -0.0487,-1.739243 -0.88266,-7.74274 -1.23459,-11.825421 -1.03643,-12.023585 0.12475,-0.124751 1.18372,-0.300379 2.35326,-0.390275 l 2.126429,-0.163448 v 0.858017 c 0,0.471907 0.27425,3.255474 0.60944,6.185702 0.8185,7.155305 0.81025,7.484844 -0.22555,9.02292 -1.516419,2.251763 -2.394819,3.019249 -3.459839,3.022999 -0.52047,0.0018 -1.1779,0.06551 -1.46094,0.141464 -0.44362,0.119075 -0.55292,-0.01401 -0.79226,-0.964489 z"
       id="path15499" />
  </g>
</svg>
